<svg width="260" height="30" viewBox="0 0 260 30" fill="none" xmlns="http://www.w3.org/2000/svg">
<path d="M0.904844 0.68C1.57151 0.706666 2.42484 0.733332 3.46484 0.759999C4.50484 0.786665 5.54484 0.799998 6.58484 0.799998C7.89151 0.799998 9.13151 0.786665 10.3048 0.759999C11.4782 0.733332 12.3048 0.719999 12.7848 0.719999C15.9315 0.719999 18.2782 1.30667 19.8248 2.48C21.3982 3.65333 22.1848 5.16 22.1848 7C22.1848 7.93333 21.9315 8.86667 21.4248 9.8C20.9448 10.7333 20.1582 11.5733 19.0648 12.32C17.9982 13.0667 16.5982 13.6267 14.8648 14V14.08C17.2115 14.2933 19.0648 14.7733 20.4248 15.52C21.8115 16.24 22.7982 17.1067 23.3848 18.12C23.9715 19.1067 24.2648 20.1467 24.2648 21.24C24.2648 22.8667 23.8382 24.2667 22.9848 25.44C22.1582 26.5867 20.9582 27.4667 19.3848 28.08C17.8115 28.6933 15.9182 29 13.7048 29C13.1182 29 12.2248 28.9867 11.0248 28.96C9.82484 28.9067 8.37151 28.88 6.66484 28.88C5.57151 28.88 4.50484 28.8933 3.46484 28.92C2.42484 28.92 1.57151 28.9467 0.904844 29V28.2C1.78484 28.1467 2.43818 28.04 2.86484 27.88C3.31818 27.72 3.61151 27.4 3.74484 26.92C3.90484 26.44 3.98484 25.72 3.98484 24.76V4.92C3.98484 3.93333 3.90484 3.21333 3.74484 2.76C3.61151 2.28 3.31818 1.96 2.86484 1.8C2.43818 1.61333 1.78484 1.50667 0.904844 1.48V0.68ZM12.1048 1.48C11.0115 1.48 10.2915 1.70667 9.94484 2.16C9.62484 2.61333 9.46484 3.53333 9.46484 4.92V24.76C9.46484 25.6933 9.54484 26.4 9.70484 26.88C9.86484 27.36 10.1448 27.68 10.5448 27.84C10.9448 28 11.5315 28.08 12.3048 28.08C14.4915 28.08 16.0648 27.48 17.0248 26.28C18.0115 25.0533 18.5048 23.32 18.5048 21.08C18.5048 19.0267 17.9715 17.44 16.9048 16.32C15.8648 15.2 14.1315 14.64 11.7048 14.64H8.06484C8.06484 14.64 8.06484 14.5333 8.06484 14.32C8.06484 14.08 8.06484 13.96 8.06484 13.96H11.5048C12.8648 13.96 13.9182 13.6667 14.6648 13.08C15.4115 12.4667 15.9182 11.6667 16.1848 10.68C16.4515 9.66667 16.5848 8.58667 16.5848 7.44C16.5848 5.46667 16.2382 3.98667 15.5448 3C14.8515 1.98667 13.7048 1.48 12.1048 1.48ZM26.9595 0.68C27.6262 0.706666 28.4795 0.733332 29.5195 0.759999C30.5595 0.786665 31.5995 0.799998 32.6395 0.799998C33.9462 0.799998 35.1862 0.786665 36.3595 0.759999C37.5329 0.733332 38.3595 0.719999 38.8395 0.719999C41.2395 0.719999 43.2129 1.01333 44.7595 1.6C46.3329 2.16 47.5062 2.96 48.2795 4C49.0529 5.04 49.4395 6.26667 49.4395 7.68C49.4395 8.56 49.2662 9.46667 48.9195 10.4C48.5729 11.3067 47.9729 12.1467 47.1195 12.92C46.2662 13.6933 45.0929 14.3333 43.5995 14.84C42.1329 15.32 40.2529 15.56 37.9595 15.56H34.1195V14.76H37.5595C39.2395 14.76 40.5195 14.4667 41.3995 13.88C42.3062 13.2667 42.9062 12.4667 43.1995 11.48C43.5195 10.4667 43.6795 9.34667 43.6795 8.12C43.6795 6.01333 43.2662 4.38667 42.4395 3.24C41.6129 2.06667 40.1862 1.48 38.1595 1.48C37.0662 1.48 36.3462 1.70667 35.9995 2.16C35.6795 2.61333 35.5195 3.53333 35.5195 4.92V24.76C35.5195 25.72 35.5995 26.44 35.7595 26.92C35.9195 27.4 36.2129 27.72 36.6395 27.88C37.0929 28.04 37.7462 28.1467 38.5995 28.2V29C37.9329 28.9467 37.0795 28.92 36.0395 28.92C34.9995 28.8933 33.9462 28.88 32.8795 28.88C31.6795 28.88 30.5595 28.8933 29.5195 28.92C28.4795 28.92 27.6262 28.9467 26.9595 29V28.2C27.8395 28.1467 28.4929 28.04 28.9195 27.88C29.3729 27.72 29.6662 27.4 29.7995 26.92C29.9595 26.44 30.0395 25.72 30.0395 24.76V4.92C30.0395 3.93333 29.9595 3.21333 29.7995 2.76C29.6662 2.28 29.3729 1.96 28.9195 1.8C28.4929 1.61333 27.8395 1.50667 26.9595 1.48V0.68ZM34.1195 14.88C35.3729 14.9333 36.4129 15 37.2395 15.08C38.0929 15.1333 38.8129 15.1867 39.3995 15.24C40.0129 15.2933 40.5595 15.36 41.0395 15.44C43.2529 15.6533 44.8795 16.1733 45.9195 17C46.9862 17.8 47.6929 19.0267 48.0395 20.68L48.9595 24.8C49.1995 25.8933 49.4529 26.68 49.7195 27.16C50.0129 27.6133 50.4262 27.8267 50.9595 27.8C51.3329 27.8 51.6529 27.7067 51.9195 27.52C52.1862 27.3067 52.4529 27.0267 52.7195 26.68L53.2795 27.16C52.6129 27.9867 51.9062 28.6 51.1595 29C50.4129 29.3733 49.4662 29.56 48.3195 29.56C47.0395 29.56 45.9595 29.2667 45.0795 28.68C44.1995 28.0667 43.5995 26.92 43.2795 25.24L42.5195 21.24C42.3062 20.12 42.0529 19.1333 41.7595 18.28C41.4929 17.4267 41.1195 16.76 40.6395 16.28C40.1595 15.8 39.4529 15.56 38.5195 15.56H34.1995L34.1195 14.88ZM66.7098 0.559999L76.4298 25.64C76.8298 26.6 77.2565 27.2667 77.7098 27.64C78.1898 27.9867 78.6298 28.1733 79.0298 28.2V29C78.3365 28.9467 77.4965 28.92 76.5098 28.92C75.5498 28.8933 74.5632 28.88 73.5498 28.88C72.3765 28.88 71.2832 28.8933 70.2698 28.92C69.2565 28.92 68.4298 28.9467 67.7898 29V28.2C69.1498 28.1467 70.0165 27.92 70.3898 27.52C70.7632 27.0933 70.6832 26.2 70.1498 24.84L63.1098 5.84L63.8298 4.96L57.4298 21.56C56.9232 22.8933 56.6165 23.9867 56.5098 24.84C56.4032 25.6933 56.4698 26.36 56.7098 26.84C56.9498 27.32 57.3498 27.6667 57.9098 27.88C58.4698 28.0667 59.1632 28.1733 59.9898 28.2V29C59.1365 28.9467 58.3098 28.92 57.5098 28.92C56.7098 28.8933 55.9098 28.88 55.1098 28.88C54.5232 28.88 53.9632 28.8933 53.4298 28.92C52.9232 28.92 52.4698 28.9467 52.0698 29V28.2C52.6565 28.0667 53.2298 27.72 53.7898 27.16C54.3765 26.6 54.9365 25.6267 55.4698 24.24L64.6298 0.559999C64.9498 0.586665 65.2965 0.599998 65.6698 0.599998C66.0432 0.599998 66.3898 0.586665 66.7098 0.559999ZM70.1898 17.48V18.28H58.2698L58.6698 17.48H70.1898ZM105.42 0.68V1.48C104.566 1.56 103.913 1.76 103.46 2.08C103.006 2.37333 102.7 2.85333 102.54 3.52C102.406 4.16 102.34 5.08 102.34 6.28V29.12C102.1 29.0933 101.833 29.08 101.54 29.08C101.273 29.08 100.98 29.0933 100.66 29.12L83.4995 5.8V23.08C83.4995 24.36 83.5795 25.36 83.7395 26.08C83.8995 26.7733 84.2462 27.28 84.7795 27.6C85.3395 27.8933 86.1795 28.0933 87.2995 28.2V29C86.7929 28.9467 86.1395 28.92 85.3395 28.92C84.5395 28.8933 83.7795 28.88 83.0595 28.88C82.4195 28.88 81.7662 28.8933 81.0995 28.92C80.4595 28.92 79.9262 28.9467 79.4995 29V28.2C80.3795 28.0933 81.0329 27.8933 81.4595 27.6C81.9129 27.3067 82.2062 26.8267 82.3395 26.16C82.4995 25.4933 82.5795 24.5733 82.5795 23.4V4.92C82.5795 3.93333 82.4995 3.21333 82.3395 2.76C82.2062 2.28 81.9129 1.96 81.4595 1.8C81.0329 1.61333 80.3795 1.50667 79.4995 1.48V0.68C79.9262 0.706666 80.4595 0.733332 81.0995 0.759999C81.7662 0.786665 82.4195 0.799998 83.0595 0.799998C83.6729 0.799998 84.2729 0.786665 84.8595 0.759999C85.4462 0.733332 85.9662 0.706666 86.4195 0.68L101.42 20.64V6.6C101.42 5.29333 101.34 4.29333 101.18 3.6C101.02 2.90667 100.673 2.4 100.14 2.08C99.6062 1.76 98.7662 1.56 97.6195 1.48V0.68C98.1262 0.706666 98.7795 0.733332 99.5795 0.759999C100.406 0.786665 101.166 0.799998 101.86 0.799998C102.526 0.799998 103.18 0.786665 103.82 0.759999C104.486 0.733332 105.02 0.706666 105.42 0.68ZM119.972 0.68C125.092 0.68 128.879 1.88 131.332 4.28C133.812 6.65333 135.052 10.0667 135.052 14.52C135.052 17.4267 134.439 19.9733 133.212 22.16C132.012 24.32 130.266 26 127.972 27.2C125.679 28.4 122.892 29 119.612 29C119.212 29 118.666 28.9867 117.972 28.96C117.306 28.9333 116.599 28.92 115.852 28.92C115.132 28.8933 114.466 28.88 113.852 28.88C112.759 28.88 111.692 28.8933 110.652 28.92C109.612 28.92 108.759 28.9467 108.092 29V28.2C108.972 28.1467 109.626 28.04 110.052 27.88C110.506 27.72 110.799 27.4 110.932 26.92C111.092 26.44 111.172 25.72 111.172 24.76V4.92C111.172 3.93333 111.092 3.21333 110.932 2.76C110.799 2.28 110.506 1.96 110.052 1.8C109.626 1.61333 108.972 1.50667 108.092 1.48V0.68C108.759 0.706666 109.612 0.746666 110.652 0.799998C111.692 0.826665 112.732 0.826665 113.772 0.799998C114.732 0.773332 115.812 0.746666 117.012 0.719999C118.212 0.693333 119.199 0.68 119.972 0.68ZM119.612 1.4C118.386 1.4 117.586 1.62666 117.212 2.08C116.839 2.53333 116.652 3.45333 116.652 4.84V24.84C116.652 26.2267 116.839 27.1467 117.212 27.6C117.612 28.0533 118.426 28.28 119.652 28.28C122.132 28.28 124.066 27.76 125.452 26.72C126.866 25.6533 127.852 24.1067 128.412 22.08C128.999 20.0533 129.292 17.5867 129.292 14.68C129.292 11.6933 128.972 9.22667 128.332 7.28C127.719 5.30666 126.706 3.84 125.292 2.88C123.879 1.89333 121.986 1.4 119.612 1.4ZM173.935 0.68V1.48C173.082 1.56 172.428 1.76 171.975 2.08C171.522 2.37333 171.215 2.85333 171.055 3.52C170.922 4.16 170.855 5.08 170.855 6.28V29.12C170.615 29.0933 170.348 29.08 170.055 29.08C169.788 29.08 169.495 29.0933 169.175 29.12L152.015 5.8V23.08C152.015 24.36 152.095 25.36 152.255 26.08C152.415 26.7733 152.762 27.28 153.295 27.6C153.855 27.8933 154.695 28.0933 155.815 28.2V29C155.308 28.9467 154.655 28.92 153.855 28.92C153.055 28.8933 152.295 28.88 151.575 28.88C150.935 28.88 150.282 28.8933 149.615 28.92C148.975 28.92 148.442 28.9467 148.015 29V28.2C148.895 28.0933 149.548 27.8933 149.975 27.6C150.428 27.3067 150.722 26.8267 150.855 26.16C151.015 25.4933 151.095 24.5733 151.095 23.4V4.92C151.095 3.93333 151.015 3.21333 150.855 2.76C150.722 2.28 150.428 1.96 149.975 1.8C149.548 1.61333 148.895 1.50667 148.015 1.48V0.68C148.442 0.706666 148.975 0.733332 149.615 0.759999C150.282 0.786665 150.935 0.799998 151.575 0.799998C152.188 0.799998 152.788 0.786665 153.375 0.759999C153.962 0.733332 154.482 0.706666 154.935 0.68L169.935 20.64V6.6C169.935 5.29333 169.855 4.29333 169.695 3.6C169.535 2.90667 169.188 2.4 168.655 2.08C168.122 1.76 167.282 1.56 166.135 1.48V0.68C166.642 0.706666 167.295 0.733332 168.095 0.759999C168.922 0.786665 169.682 0.799998 170.375 0.799998C171.042 0.799998 171.695 0.786665 172.335 0.759999C173.002 0.733332 173.535 0.706666 173.935 0.68ZM188.858 0.559999L198.578 25.64C198.978 26.6 199.405 27.2667 199.858 27.64C200.338 27.9867 200.778 28.1733 201.178 28.2V29C200.485 28.9467 199.645 28.92 198.658 28.92C197.698 28.8933 196.712 28.88 195.698 28.88C194.525 28.88 193.432 28.8933 192.418 28.92C191.405 28.92 190.578 28.9467 189.938 29V28.2C191.298 28.1467 192.165 27.92 192.538 27.52C192.912 27.0933 192.832 26.2 192.298 24.84L185.258 5.84L185.978 4.96L179.578 21.56C179.072 22.8933 178.765 23.9867 178.658 24.84C178.552 25.6933 178.618 26.36 178.858 26.84C179.098 27.32 179.498 27.6667 180.058 27.88C180.618 28.0667 181.312 28.1733 182.138 28.2V29C181.285 28.9467 180.458 28.92 179.658 28.92C178.858 28.8933 178.058 28.88 177.258 28.88C176.672 28.88 176.112 28.8933 175.578 28.92C175.072 28.92 174.618 28.9467 174.218 29V28.2C174.805 28.0667 175.378 27.72 175.938 27.16C176.525 26.6 177.085 25.6267 177.618 24.24L186.778 0.559999C187.098 0.586665 187.445 0.599998 187.818 0.599998C188.192 0.599998 188.538 0.586665 188.858 0.559999ZM192.338 17.48V18.28H180.418L180.818 17.48H192.338ZM235.048 0.68V1.48C234.195 1.50667 233.541 1.61333 233.088 1.8C232.635 1.96 232.328 2.28 232.168 2.76C232.035 3.21333 231.968 3.93333 231.968 4.92V24.76C231.968 25.72 232.048 26.44 232.208 26.92C232.368 27.4 232.661 27.72 233.088 27.88C233.541 28.04 234.195 28.1467 235.048 28.2V29C234.355 28.9467 233.475 28.92 232.408 28.92C231.341 28.8933 230.261 28.88 229.168 28.88C227.968 28.88 226.835 28.8933 225.768 28.92C224.728 28.92 223.888 28.9467 223.248 29V28.2C224.155 28.1467 224.835 28.04 225.288 27.88C225.768 27.72 226.088 27.4 226.248 26.92C226.408 26.44 226.488 25.72 226.488 24.76V3L226.768 3.04L216.848 29.12H216.208L205.648 3.24V23.08C205.648 24.36 205.728 25.36 205.888 26.08C206.048 26.7733 206.395 27.28 206.928 27.6C207.488 27.8933 208.328 28.0933 209.448 28.2V29C208.941 28.9467 208.288 28.92 207.488 28.92C206.688 28.8933 205.928 28.88 205.208 28.88C204.568 28.88 203.915 28.8933 203.248 28.92C202.608 28.92 202.075 28.9467 201.648 29V28.2C202.528 28.0933 203.181 27.8933 203.608 27.6C204.061 27.3067 204.355 26.8267 204.488 26.16C204.648 25.4933 204.728 24.5733 204.728 23.4V4.92C204.728 3.93333 204.648 3.21333 204.488 2.76C204.355 2.28 204.061 1.96 203.608 1.8C203.181 1.61333 202.528 1.50667 201.648 1.48V0.68C202.075 0.706666 202.608 0.733332 203.248 0.759999C203.915 0.786665 204.568 0.799998 205.208 0.799998C206.195 0.799998 207.155 0.786665 208.088 0.759999C209.021 0.733332 209.848 0.706666 210.568 0.68L219.168 22.16L218.288 22.88L226.648 0.799998C227.048 0.799998 227.461 0.799998 227.888 0.799998C228.341 0.799998 228.768 0.799998 229.168 0.799998C230.261 0.799998 231.341 0.786665 232.408 0.759999C233.475 0.733332 234.355 0.706666 235.048 0.68ZM258.895 0.68C258.788 1.77333 258.708 2.84 258.655 3.88C258.628 4.89333 258.615 5.66667 258.615 6.2C258.615 6.70667 258.628 7.2 258.655 7.68C258.682 8.13333 258.708 8.52 258.735 8.84H257.815C257.602 7 257.255 5.56 256.775 4.52C256.295 3.45333 255.642 2.70667 254.815 2.28C254.015 1.82666 252.962 1.6 251.655 1.6H249.455C248.655 1.6 248.042 1.66666 247.615 1.8C247.188 1.93333 246.895 2.21333 246.735 2.64C246.602 3.06667 246.535 3.72 246.535 4.6V25.08C246.535 25.9333 246.602 26.5867 246.735 27.04C246.895 27.4667 247.188 27.7467 247.615 27.88C248.042 28.0133 248.655 28.08 249.455 28.08H251.735C253.095 28.08 254.228 27.8267 255.135 27.32C256.068 26.8133 256.815 25.9867 257.375 24.84C257.935 23.6667 258.348 22.0667 258.615 20.04H259.535C259.455 20.8667 259.415 21.9333 259.415 23.24C259.415 23.8 259.428 24.6133 259.455 25.68C259.508 26.7467 259.588 27.8533 259.695 29C258.335 28.9467 256.802 28.92 255.095 28.92C253.388 28.8933 251.868 28.88 250.535 28.88C249.922 28.88 249.108 28.88 248.095 28.88C247.108 28.88 246.028 28.8933 244.855 28.92C243.708 28.92 242.535 28.9333 241.335 28.96C240.162 28.96 239.042 28.9733 237.975 29V28.2C238.855 28.1467 239.508 28.04 239.935 27.88C240.388 27.72 240.682 27.4 240.815 26.92C240.975 26.44 241.055 25.72 241.055 24.76V4.92C241.055 3.93333 240.975 3.21333 240.815 2.76C240.682 2.28 240.388 1.96 239.935 1.8C239.508 1.61333 238.855 1.50667 237.975 1.48V0.68C239.042 0.706666 240.162 0.733332 241.335 0.759999C242.535 0.759999 243.708 0.773332 244.855 0.799998C246.028 0.799998 247.108 0.799998 248.095 0.799998C249.108 0.799998 249.922 0.799998 250.535 0.799998C251.762 0.799998 253.148 0.799998 254.695 0.799998C256.268 0.773332 257.668 0.733332 258.895 0.68ZM252.455 14.36C252.455 14.36 252.455 14.4933 252.455 14.76C252.455 15.0267 252.455 15.16 252.455 15.16H245.335C245.335 15.16 245.335 15.0267 245.335 14.76C245.335 14.4933 245.335 14.36 245.335 14.36H252.455ZM253.615 9.08C253.508 10.6 253.455 11.76 253.455 12.56C253.482 13.36 253.495 14.0933 253.495 14.76C253.495 15.4267 253.508 16.16 253.535 16.96C253.562 17.76 253.628 18.92 253.735 20.44H252.815C252.682 19.5333 252.468 18.68 252.175 17.88C251.908 17.0533 251.468 16.4 250.855 15.92C250.268 15.4133 249.415 15.16 248.295 15.16V14.36C249.122 14.36 249.788 14.1867 250.295 13.84C250.828 13.4933 251.255 13.0533 251.575 12.52C251.895 11.96 252.135 11.3867 252.295 10.8C252.482 10.1867 252.615 9.61333 252.695 9.08H253.615Z" fill="black"/>
</svg>
