<svg width="481" height="30" viewBox="0 0 481 30" fill="none" xmlns="http://www.w3.org/2000/svg">
<path d="M33.9347 0.68V1.48C33.0814 1.50667 32.428 1.61333 31.9747 1.8C31.5214 1.96 31.2147 2.28 31.0547 2.76C30.9214 3.21333 30.8547 3.93333 30.8547 4.92V24.76C30.8547 25.72 30.9347 26.44 31.0947 26.92C31.2547 27.4 31.548 27.72 31.9747 27.88C32.428 28.04 33.0814 28.1467 33.9347 28.2V29C33.2414 28.9467 32.3614 28.92 31.2947 28.92C30.228 28.8933 29.148 28.88 28.0547 28.88C26.8547 28.88 25.7214 28.8933 24.6547 28.92C23.6147 28.92 22.7747 28.9467 22.1347 29V28.2C23.0414 28.1467 23.7214 28.04 24.1747 27.88C24.6547 27.72 24.9747 27.4 25.1347 26.92C25.2947 26.44 25.3747 25.72 25.3747 24.76V3L25.6547 3.04L15.7347 29.12H15.0947L4.53469 3.24V23.08C4.53469 24.36 4.61469 25.36 4.77469 26.08C4.93469 26.7733 5.28135 27.28 5.81469 27.6C6.37469 27.8933 7.21469 28.0933 8.33469 28.2V29C7.82802 28.9467 7.17469 28.92 6.37469 28.92C5.57469 28.8933 4.81469 28.88 4.09469 28.88C3.45469 28.88 2.80135 28.8933 2.13469 28.92C1.49469 28.92 0.961354 28.9467 0.534688 29V28.2C1.41469 28.0933 2.06802 27.8933 2.49469 27.6C2.94802 27.3067 3.24135 26.8267 3.37469 26.16C3.53469 25.4933 3.61469 24.5733 3.61469 23.4V4.92C3.61469 3.93333 3.53469 3.21333 3.37469 2.76C3.24135 2.28 2.94802 1.96 2.49469 1.8C2.06802 1.61333 1.41469 1.50667 0.534688 1.48V0.68C0.961354 0.706666 1.49469 0.733332 2.13469 0.759999C2.80135 0.786665 3.45469 0.799998 4.09469 0.799998C5.08135 0.799998 6.04135 0.786665 6.97469 0.759999C7.90802 0.733332 8.73469 0.706666 9.45469 0.68L18.0547 22.16L17.1747 22.88L25.5347 0.799998C25.9347 0.799998 26.348 0.799998 26.7747 0.799998C27.228 0.799998 27.6547 0.799998 28.0547 0.799998C29.148 0.799998 30.228 0.786665 31.2947 0.759999C32.3614 0.733332 33.2414 0.706666 33.9347 0.68ZM48.5019 0.68V1.48C47.6485 1.50667 46.9952 1.61333 46.5419 1.8C46.1152 1.96 45.8219 2.28 45.6619 2.76C45.5019 3.21333 45.4219 3.93333 45.4219 4.92V24.76C45.4219 25.72 45.5019 26.44 45.6619 26.92C45.8219 27.4 46.1152 27.72 46.5419 27.88C46.9952 28.04 47.6485 28.1467 48.5019 28.2V29C47.8352 28.9467 46.9819 28.92 45.9419 28.92C44.9019 28.8933 43.8485 28.88 42.7819 28.88C41.5819 28.88 40.4619 28.8933 39.4219 28.92C38.3819 28.92 37.5285 28.9467 36.8619 29V28.2C37.7419 28.1467 38.3952 28.04 38.8219 27.88C39.2752 27.72 39.5685 27.4 39.7019 26.92C39.8619 26.44 39.9419 25.72 39.9419 24.76V4.92C39.9419 3.93333 39.8619 3.21333 39.7019 2.76C39.5685 2.28 39.2752 1.96 38.8219 1.8C38.3952 1.61333 37.7419 1.50667 36.8619 1.48V0.68C37.5285 0.706666 38.3819 0.733332 39.4219 0.759999C40.4619 0.786665 41.5819 0.799998 42.7819 0.799998C43.8485 0.799998 44.9019 0.786665 45.9419 0.759999C46.9819 0.733332 47.8352 0.706666 48.5019 0.68ZM61.2322 0.68V1.52C59.9789 1.52 59.1922 1.64 58.8722 1.88C58.5522 2.12 58.5789 2.53333 58.9522 3.12L74.5122 26.16C75.0189 26.9333 75.4322 27.4533 75.7522 27.72C76.0989 27.96 76.5522 28.1067 77.1122 28.16V29C76.6322 28.9733 75.9389 28.9467 75.0322 28.92C74.1522 28.8667 73.2455 28.84 72.3122 28.84C71.1389 28.84 69.9655 28.8667 68.7922 28.92C67.6189 28.9467 66.7389 28.9733 66.1522 29V28.16C67.3789 28.16 68.1789 28.08 68.5522 27.92C68.9255 27.7333 68.9255 27.36 68.5522 26.8L52.9122 3.52C52.3789 2.74667 51.9522 2.22667 51.6322 1.96C51.3389 1.69333 50.8989 1.54666 50.3122 1.52V0.68C50.7922 0.706666 51.4989 0.746666 52.4322 0.799998C53.3655 0.826665 54.3122 0.839998 55.2722 0.839998C56.4189 0.839998 57.5255 0.826665 58.5922 0.799998C59.6589 0.746666 60.5389 0.706666 61.2322 0.68ZM62.1922 14.64C62.1922 14.64 62.2189 14.7333 62.2722 14.92C62.3255 15.08 62.3789 15.2533 62.4322 15.44C62.5122 15.6 62.5522 15.68 62.5522 15.68L58.1922 21.8C57.1789 23.2133 56.6189 24.3867 56.5122 25.32C56.4055 26.2533 56.6589 26.96 57.2722 27.44C57.9122 27.8933 58.8055 28.1467 59.9522 28.2V29C59.5789 28.9733 59.1122 28.96 58.5522 28.96C58.0189 28.9333 57.4589 28.92 56.8722 28.92C56.3122 28.8933 55.7655 28.88 55.2322 28.88C54.6989 28.88 54.2722 28.88 53.9522 28.88C53.2055 28.88 52.5255 28.8933 51.9122 28.92C51.2989 28.92 50.7789 28.9467 50.3522 29V28.2C51.2589 27.96 52.1522 27.4667 53.0322 26.72C53.9122 25.9733 54.8055 24.9733 55.7122 23.72L62.1922 14.64ZM75.6322 0.68V1.48C74.7789 1.69333 73.9389 2.16 73.1122 2.88C72.2855 3.6 71.4989 4.46667 70.7522 5.48L64.2722 14.44C64.2722 14.44 64.2189 14.28 64.1122 13.96C64.0322 13.6133 63.9922 13.44 63.9922 13.44L68.2722 7.48C69.2589 6.12 69.8455 5.01333 70.0322 4.16C70.2189 3.28 70.0589 2.62667 69.5522 2.2C69.0455 1.77333 68.2455 1.53333 67.1522 1.48V0.68C67.6589 0.706666 68.2055 0.733332 68.7922 0.759999C69.3789 0.759999 69.9522 0.773332 70.5122 0.799998C71.0722 0.799998 71.5789 0.799998 72.0322 0.799998C72.7789 0.799998 73.4589 0.786665 74.0722 0.759999C74.6855 0.733332 75.2055 0.706666 75.6322 0.68ZM98.7325 0.719999C99.7458 0.719999 100.573 0.813332 101.213 0.999998C101.853 1.16 102.413 1.37333 102.893 1.64C103.266 1.85333 103.613 2.12 103.933 2.44C104.253 2.76 104.506 3.10667 104.693 3.48C104.879 3.85333 104.973 4.26667 104.973 4.72C104.973 5.49333 104.693 6.10667 104.133 6.56C103.573 7.01333 102.919 7.24 102.173 7.24C101.479 7.24 100.866 7.04 100.333 6.64C99.8258 6.24 99.5725 5.66667 99.5725 4.92C99.5725 4.25333 99.7858 3.68 100.213 3.2C100.666 2.69333 101.253 2.37333 101.973 2.24C101.786 2 101.439 1.8 100.933 1.64C100.453 1.45333 99.8792 1.36 99.2125 1.36C97.8258 1.36 96.6658 1.78666 95.7325 2.64C94.7992 3.49333 94.3325 4.76 94.3325 6.44C94.3325 7.08 94.4392 7.77333 94.6525 8.52C94.8925 9.24 95.3592 9.96 96.0525 10.68C96.5058 10.5733 96.9325 10.5067 97.3325 10.48C97.7592 10.4267 98.1058 10.4 98.3725 10.4C98.8525 10.4 99.2258 10.4933 99.4925 10.68C99.7592 10.84 99.8925 11.08 99.8925 11.4C99.8925 11.6667 99.7858 11.8667 99.5725 12C99.3592 12.1333 99.0925 12.2 98.7725 12.2C98.2925 12.2 97.7992 12.08 97.2925 11.84C96.7858 11.6 96.3858 11.4 96.0925 11.24C94.7325 11.8 93.6258 12.5867 92.7725 13.6C91.9458 14.6133 91.5325 15.9867 91.5325 17.72C91.5325 19.5067 91.9992 21 92.9325 22.2C93.8925 23.4 95.2258 24.3067 96.9325 24.92C98.6392 25.5067 100.613 25.8 102.853 25.8C104.213 25.8 105.533 25.6533 106.813 25.36C108.119 25.04 109.293 24.5733 110.333 23.96C111.373 23.3467 112.199 22.6133 112.813 21.76C113.426 20.88 113.733 19.8667 113.733 18.72C113.733 18.2667 113.653 17.6933 113.493 17C113.333 16.3067 112.986 15.6133 112.453 14.92C111.919 14.2267 111.093 13.6667 109.973 13.24L110.293 12.88C111.893 13.36 113.079 14.24 113.853 15.52C114.653 16.7733 115.053 18.2133 115.053 19.84C115.053 21.6 114.506 23.2267 113.413 24.72C112.319 26.1867 110.773 27.36 108.773 28.24C106.799 29.12 104.466 29.56 101.773 29.56C99.7192 29.56 97.8258 29.3333 96.0925 28.88C94.3858 28.4267 92.8925 27.7733 91.6125 26.92C90.3592 26.04 89.3858 24.9867 88.6925 23.76C87.9992 22.5333 87.6525 21.1467 87.6525 19.6C87.6525 18.1333 87.9458 16.88 88.5325 15.84C89.1192 14.8 89.8525 13.9467 90.7325 13.28C91.6125 12.5867 92.4925 12.0533 93.3725 11.68C94.2525 11.3067 94.9725 11.0533 95.5325 10.92C94.6792 10.5733 93.9192 10.16 93.2525 9.68C92.5858 9.17333 92.0658 8.6 91.6925 7.96C91.3458 7.29333 91.1725 6.58667 91.1725 5.84C91.1725 5.04 91.3592 4.33333 91.7325 3.72C92.1325 3.08 92.6792 2.53333 93.3725 2.08C94.0658 1.62666 94.8658 1.29333 95.7725 1.08C96.6792 0.839999 97.6658 0.719999 98.7325 0.719999ZM114.053 0.119998C115.839 0.119998 117.319 0.613331 118.493 1.6C119.666 2.56 120.253 3.92 120.253 5.68C120.253 6.90667 119.973 7.94667 119.413 8.8C118.853 9.65333 118.066 10.3733 117.053 10.96C116.066 11.52 114.906 11.9733 113.573 12.32C113.093 12.5067 112.506 12.7067 111.813 12.92C111.119 13.1333 110.373 13.36 109.573 13.6C108.799 13.8133 108.053 14.0267 107.333 14.24C106.639 14.4533 106.053 14.6533 105.573 14.84C103.893 15.2667 102.559 15.76 101.573 16.32C100.586 16.8533 100.093 17.6 100.093 18.56C100.093 19.2267 100.306 19.8133 100.733 20.32C101.159 20.8 101.693 21.16 102.333 21.4C102.973 21.64 103.599 21.76 104.213 21.76C104.399 21.76 104.626 21.7467 104.893 21.72C105.159 21.6667 105.399 21.6 105.613 21.52C105.853 21.44 106.013 21.3333 106.093 21.2C105.506 21.04 105.026 20.76 104.653 20.36C104.279 19.96 104.093 19.44 104.093 18.8C104.093 18.0267 104.373 17.4267 104.933 17C105.493 16.5733 106.173 16.36 106.973 16.36C107.826 16.36 108.493 16.5867 108.973 17.04C109.479 17.4933 109.733 18.1067 109.733 18.88C109.733 19.68 109.479 20.3467 108.973 20.88C108.466 21.4133 107.799 21.8133 106.973 22.08C106.173 22.32 105.306 22.44 104.373 22.44C103.413 22.44 102.506 22.2667 101.653 21.92C100.799 21.5467 100.106 21 99.5725 20.28C99.0392 19.56 98.7725 18.6133 98.7725 17.44C98.7725 16.2133 99.0792 15.16 99.6925 14.28C100.306 13.4 101.186 12.6667 102.333 12.08C103.506 11.4667 104.906 10.9733 106.533 10.6C107.173 10.4133 107.906 10.2133 108.733 10C109.586 9.78667 110.453 9.56 111.333 9.32C112.213 9.05333 113.039 8.77333 113.813 8.48C115.519 7.97333 116.799 7.41333 117.653 6.8C118.506 6.18667 118.933 5.44 118.933 4.56C118.933 3.81333 118.719 3.16 118.293 2.6C117.866 2.04 117.306 1.6 116.613 1.28C115.919 0.959999 115.173 0.799998 114.373 0.799998C114.106 0.799998 113.866 0.826665 113.653 0.88C113.466 0.906666 113.333 0.959999 113.253 1.04C113.786 1.28 114.186 1.61333 114.453 2.04C114.746 2.46666 114.893 2.90666 114.893 3.36C114.893 4.08 114.613 4.65333 114.053 5.08C113.519 5.50667 112.853 5.72 112.053 5.72C111.279 5.72 110.613 5.50667 110.053 5.08C109.519 4.65333 109.253 4.05333 109.253 3.28C109.253 2.58667 109.466 2 109.893 1.52C110.319 1.04 110.893 0.693331 111.613 0.479998C112.359 0.239998 113.173 0.119998 114.053 0.119998ZM165.341 0.68V1.48C164.488 1.50667 163.834 1.61333 163.381 1.8C162.928 1.96 162.621 2.28 162.461 2.76C162.328 3.21333 162.261 3.93333 162.261 4.92V24.76C162.261 25.72 162.341 26.44 162.501 26.92C162.661 27.4 162.954 27.72 163.381 27.88C163.834 28.04 164.488 28.1467 165.341 28.2V29C164.648 28.9467 163.768 28.92 162.701 28.92C161.634 28.8933 160.554 28.88 159.461 28.88C158.261 28.88 157.128 28.8933 156.061 28.92C155.021 28.92 154.181 28.9467 153.541 29V28.2C154.448 28.1467 155.128 28.04 155.581 27.88C156.061 27.72 156.381 27.4 156.541 26.92C156.701 26.44 156.781 25.72 156.781 24.76V3L157.061 3.04L147.141 29.12H146.501L135.941 3.24V23.08C135.941 24.36 136.021 25.36 136.181 26.08C136.341 26.7733 136.688 27.28 137.221 27.6C137.781 27.8933 138.621 28.0933 139.741 28.2V29C139.234 28.9467 138.581 28.92 137.781 28.92C136.981 28.8933 136.221 28.88 135.501 28.88C134.861 28.88 134.208 28.8933 133.541 28.92C132.901 28.92 132.368 28.9467 131.941 29V28.2C132.821 28.0933 133.474 27.8933 133.901 27.6C134.354 27.3067 134.648 26.8267 134.781 26.16C134.941 25.4933 135.021 24.5733 135.021 23.4V4.92C135.021 3.93333 134.941 3.21333 134.781 2.76C134.648 2.28 134.354 1.96 133.901 1.8C133.474 1.61333 132.821 1.50667 131.941 1.48V0.68C132.368 0.706666 132.901 0.733332 133.541 0.759999C134.208 0.786665 134.861 0.799998 135.501 0.799998C136.488 0.799998 137.448 0.786665 138.381 0.759999C139.314 0.733332 140.141 0.706666 140.861 0.68L149.461 22.16L148.581 22.88L156.941 0.799998C157.341 0.799998 157.754 0.799998 158.181 0.799998C158.634 0.799998 159.061 0.799998 159.461 0.799998C160.554 0.799998 161.634 0.786665 162.701 0.759999C163.768 0.733332 164.648 0.706666 165.341 0.68ZM180.948 0.559999L190.668 25.64C191.068 26.6 191.495 27.2667 191.948 27.64C192.428 27.9867 192.868 28.1733 193.268 28.2V29C192.575 28.9467 191.735 28.92 190.748 28.92C189.788 28.8933 188.801 28.88 187.788 28.88C186.615 28.88 185.521 28.8933 184.508 28.92C183.495 28.92 182.668 28.9467 182.028 29V28.2C183.388 28.1467 184.255 27.92 184.628 27.52C185.001 27.0933 184.921 26.2 184.388 24.84L177.348 5.84L178.068 4.96L171.668 21.56C171.161 22.8933 170.855 23.9867 170.748 24.84C170.641 25.6933 170.708 26.36 170.948 26.84C171.188 27.32 171.588 27.6667 172.148 27.88C172.708 28.0667 173.401 28.1733 174.228 28.2V29C173.375 28.9467 172.548 28.92 171.748 28.92C170.948 28.8933 170.148 28.88 169.348 28.88C168.761 28.88 168.201 28.8933 167.668 28.92C167.161 28.92 166.708 28.9467 166.308 29V28.2C166.895 28.0667 167.468 27.72 168.028 27.16C168.615 26.6 169.175 25.6267 169.708 24.24L178.868 0.559999C179.188 0.586665 179.535 0.599998 179.908 0.599998C180.281 0.599998 180.628 0.586665 180.948 0.559999ZM184.428 17.48V18.28H172.508L172.908 17.48H184.428ZM215.618 0.68C215.511 1.90667 215.431 3.10666 215.378 4.28C215.351 5.42666 215.338 6.30666 215.338 6.92C215.338 7.53333 215.351 8.10667 215.378 8.64C215.405 9.17333 215.431 9.64 215.458 10.04H214.538C214.165 7.90667 213.711 6.24 213.178 5.04C212.645 3.81333 211.938 2.93333 211.058 2.4C210.205 1.86666 209.071 1.6 207.658 1.6H206.378V24.4C206.378 25.4933 206.471 26.3067 206.658 26.84C206.871 27.3733 207.285 27.7333 207.898 27.92C208.511 28.08 209.405 28.1733 210.578 28.2V29C209.778 28.9467 208.738 28.92 207.458 28.92C206.178 28.8933 204.871 28.88 203.538 28.88C202.151 28.88 200.845 28.8933 199.618 28.92C198.418 28.92 197.445 28.9467 196.698 29V28.2C197.845 28.1733 198.725 28.08 199.338 27.92C199.951 27.7333 200.365 27.3733 200.578 26.84C200.791 26.3067 200.898 25.4933 200.898 24.4V1.6H199.578C198.191 1.6 197.058 1.86666 196.178 2.4C195.298 2.93333 194.591 3.81333 194.058 5.04C193.525 6.24 193.085 7.90667 192.738 10.04H191.818C191.871 9.64 191.898 9.17333 191.898 8.64C191.925 8.10667 191.938 7.53333 191.938 6.92C191.938 6.30666 191.911 5.42666 191.858 4.28C191.831 3.10666 191.765 1.90667 191.658 0.68C192.831 0.706666 194.125 0.733332 195.538 0.759999C196.951 0.786665 198.365 0.799998 199.778 0.799998C201.191 0.799998 202.485 0.799998 203.658 0.799998C204.805 0.799998 206.085 0.799998 207.498 0.799998C208.911 0.799998 210.325 0.786665 211.738 0.759999C213.151 0.733332 214.445 0.706666 215.618 0.68ZM232.192 0.119998C233.952 0.119998 235.392 0.386665 236.512 0.919999C237.659 1.42667 238.672 2.02667 239.552 2.72C240.085 3.12 240.485 3.17333 240.752 2.88C241.045 2.56 241.245 1.82667 241.352 0.68H242.272C242.219 1.69333 242.179 2.93333 242.152 4.4C242.125 5.86667 242.112 7.8 242.112 10.2H241.192C241.032 9 240.859 8 240.672 7.2C240.485 6.37333 240.219 5.66667 239.872 5.08C239.552 4.49333 239.099 3.93333 238.512 3.4C237.792 2.6 236.925 2.01333 235.912 1.64C234.925 1.24 233.885 1.04 232.792 1.04C231.405 1.04 230.192 1.41333 229.152 2.16C228.139 2.88 227.285 3.88 226.592 5.16C225.925 6.41333 225.419 7.88 225.072 9.56C224.752 11.24 224.592 13.0267 224.592 14.92C224.592 16.8667 224.765 18.68 225.112 20.36C225.485 22.0133 226.019 23.4667 226.712 24.72C227.432 25.9467 228.312 26.9067 229.352 27.6C230.419 28.2933 231.645 28.64 233.032 28.64C234.019 28.64 235.032 28.4533 236.072 28.08C237.112 27.7067 237.965 27.1333 238.632 26.36C239.512 25.56 240.112 24.6133 240.432 23.52C240.752 22.4 241.005 20.92 241.192 19.08H242.112C242.112 21.5867 242.125 23.6133 242.152 25.16C242.179 26.68 242.219 27.96 242.272 29H241.352C241.245 27.8533 241.059 27.1333 240.792 26.84C240.552 26.5467 240.139 26.5867 239.552 26.96C238.565 27.6533 237.512 28.2667 236.392 28.8C235.299 29.3067 233.885 29.56 232.152 29.56C229.432 29.56 227.045 28.9867 224.992 27.84C222.939 26.6933 221.339 25.04 220.192 22.88C219.072 20.72 218.512 18.12 218.512 15.08C218.512 12.0933 219.099 9.48 220.272 7.24C221.445 5 223.059 3.25333 225.112 2C227.165 0.746665 229.525 0.119998 232.192 0.119998ZM263 29V28.2C263.88 28.1467 264.533 28.04 264.96 27.88C265.413 27.72 265.706 27.4 265.84 26.92C266 26.44 266.08 25.72 266.08 24.76V4.92C266.08 3.93333 266 3.21333 265.84 2.76C265.706 2.28 265.413 1.96 264.96 1.8C264.533 1.61333 263.88 1.50667 263 1.48V0.68C263.72 0.706666 264.613 0.733332 265.68 0.759999C266.746 0.786665 267.813 0.799998 268.88 0.799998C270.053 0.799998 271.146 0.786665 272.16 0.759999C273.2 0.733332 274.026 0.706666 274.64 0.68V1.48C273.786 1.50667 273.133 1.61333 272.68 1.8C272.253 1.96 271.96 2.28 271.8 2.76C271.64 3.21333 271.56 3.93333 271.56 4.92V24.76C271.56 25.72 271.64 26.44 271.8 26.92C271.96 27.4 272.253 27.72 272.68 27.88C273.133 28.04 273.786 28.1467 274.64 28.2V29C274.026 28.9467 273.2 28.92 272.16 28.92C271.146 28.8933 270.053 28.88 268.88 28.88C267.813 28.88 266.746 28.8933 265.68 28.92C264.613 28.92 263.72 28.9467 263 29ZM246.12 29V28.2C247 28.1467 247.653 28.04 248.08 27.88C248.533 27.72 248.826 27.4 248.96 26.92C249.12 26.44 249.2 25.72 249.2 24.76V4.92C249.2 3.93333 249.12 3.21333 248.96 2.76C248.826 2.28 248.533 1.96 248.08 1.8C247.653 1.61333 247 1.50667 246.12 1.48V0.68C246.786 0.706666 247.64 0.733332 248.68 0.759999C249.72 0.786665 250.84 0.799998 252.04 0.799998C253.106 0.799998 254.16 0.786665 255.2 0.759999C256.24 0.733332 257.093 0.706666 257.76 0.68V1.48C256.906 1.50667 256.253 1.61333 255.8 1.8C255.373 1.96 255.08 2.28 254.92 2.76C254.76 3.21333 254.68 3.93333 254.68 4.92V24.76C254.68 25.72 254.76 26.44 254.92 26.92C255.08 27.4 255.373 27.72 255.8 27.88C256.253 28.04 256.906 28.1467 257.76 28.2V29C257.093 28.9467 256.24 28.92 255.2 28.92C254.16 28.8933 253.106 28.88 252.04 28.88C250.84 28.88 249.72 28.8933 248.68 28.92C247.64 28.92 246.786 28.9467 246.12 29ZM252.48 15.16V14.36H268.28V15.16H252.48ZM287.135 0.68C287.802 0.706666 288.655 0.733332 289.695 0.759999C290.735 0.786665 291.775 0.799998 292.815 0.799998C294.122 0.799998 295.362 0.786665 296.535 0.759999C297.709 0.733332 298.535 0.719999 299.015 0.719999C302.589 0.719999 305.242 1.45333 306.975 2.92C308.735 4.38667 309.615 6.28 309.615 8.6C309.615 9.56 309.442 10.5733 309.095 11.64C308.749 12.68 308.149 13.6533 307.295 14.56C306.442 15.44 305.269 16.16 303.775 16.72C302.309 17.28 300.429 17.56 298.135 17.56H294.135V16.76H297.735C299.415 16.76 300.695 16.4 301.575 15.68C302.482 14.96 303.082 14.0133 303.375 12.84C303.695 11.6667 303.855 10.4 303.855 9.04C303.855 6.50667 303.442 4.61333 302.615 3.36C301.789 2.10667 300.362 1.48 298.335 1.48C297.242 1.48 296.522 1.70667 296.175 2.16C295.855 2.61333 295.695 3.53333 295.695 4.92V24.6C295.695 25.6133 295.802 26.3733 296.015 26.88C296.229 27.3867 296.642 27.72 297.255 27.88C297.869 28.04 298.749 28.1333 299.895 28.16V29C299.122 28.9467 298.122 28.92 296.895 28.92C295.669 28.8933 294.402 28.88 293.095 28.88C291.975 28.88 290.895 28.8933 289.855 28.92C288.815 28.92 287.909 28.9467 287.135 29V28.2C288.015 28.1467 288.669 28.04 289.095 27.88C289.549 27.72 289.842 27.4 289.975 26.92C290.135 26.44 290.215 25.72 290.215 24.76V4.92C290.215 3.93333 290.135 3.21333 289.975 2.76C289.842 2.28 289.549 1.96 289.095 1.8C288.669 1.61333 288.015 1.50667 287.135 1.48V0.68ZM326.098 0.119998C328.818 0.119998 331.205 0.693331 333.258 1.84C335.311 2.98667 336.898 4.64 338.018 6.8C339.165 8.93333 339.738 11.5333 339.738 14.6C339.738 17.5867 339.151 20.2 337.978 22.44C336.831 24.68 335.218 26.4267 333.138 27.68C331.085 28.9333 328.725 29.56 326.058 29.56C323.338 29.56 320.951 28.9867 318.898 27.84C316.845 26.6933 315.245 25.04 314.098 22.88C312.978 20.72 312.418 18.12 312.418 15.08C312.418 12.0933 313.005 9.48 314.178 7.24C315.351 5 316.965 3.25333 319.018 2C321.071 0.746665 323.431 0.119998 326.098 0.119998ZM325.938 0.839998C324.365 0.839998 322.991 1.44 321.818 2.64C320.671 3.84 319.778 5.49333 319.138 7.6C318.498 9.70667 318.178 12.1467 318.178 14.92C318.178 17.7467 318.538 20.2133 319.258 22.32C319.978 24.4 320.951 26.0133 322.178 27.16C323.405 28.28 324.751 28.84 326.218 28.84C327.791 28.84 329.151 28.24 330.298 27.04C331.471 25.84 332.378 24.1867 333.018 22.08C333.658 19.9467 333.978 17.5067 333.978 14.76C333.978 11.9067 333.618 9.44 332.898 7.36C332.178 5.28 331.205 3.68 329.978 2.56C328.778 1.41333 327.431 0.839998 325.938 0.839998ZM354.521 0.68V1.48C353.615 1.50667 352.921 1.61333 352.441 1.8C351.988 1.96 351.681 2.28 351.521 2.76C351.361 3.21333 351.281 3.93333 351.281 4.92V25.08C351.281 25.9333 351.348 26.5867 351.481 27.04C351.641 27.4667 351.921 27.7467 352.321 27.88C352.721 28.0133 353.295 28.08 354.041 28.08H356.321C357.361 28.08 358.268 27.8933 359.041 27.52C359.841 27.1467 360.535 26.6 361.121 25.88C361.708 25.16 362.188 24.28 362.561 23.24C362.935 22.1733 363.201 20.9733 363.361 19.64H364.281C364.201 20.52 364.161 21.6667 364.161 23.08C364.161 23.6667 364.175 24.5067 364.201 25.6C364.255 26.6933 364.335 27.8267 364.441 29C363.081 28.9467 361.548 28.92 359.841 28.92C358.135 28.8933 356.615 28.88 355.281 28.88C354.641 28.88 353.828 28.88 352.841 28.88C351.855 28.88 350.775 28.8933 349.601 28.92C348.455 28.92 347.281 28.9333 346.081 28.96C344.908 28.96 343.788 28.9733 342.721 29V28.2C343.601 28.1467 344.255 28.04 344.681 27.88C345.135 27.72 345.428 27.4 345.561 26.92C345.721 26.44 345.801 25.72 345.801 24.76V4.92C345.801 3.93333 345.721 3.21333 345.561 2.76C345.428 2.28 345.135 1.96 344.681 1.8C344.255 1.61333 343.601 1.50667 342.721 1.48V0.68C343.388 0.706666 344.241 0.733332 345.281 0.759999C346.321 0.786665 347.441 0.799998 348.641 0.799998C349.735 0.799998 350.815 0.786665 351.881 0.759999C352.948 0.733332 353.828 0.706666 354.521 0.68ZM378.463 0.68V1.48C377.609 1.50667 376.956 1.61333 376.503 1.8C376.076 1.96 375.783 2.28 375.623 2.76C375.463 3.21333 375.383 3.93333 375.383 4.92V24.76C375.383 25.72 375.463 26.44 375.623 26.92C375.783 27.4 376.076 27.72 376.503 27.88C376.956 28.04 377.609 28.1467 378.463 28.2V29C377.796 28.9467 376.943 28.92 375.903 28.92C374.863 28.8933 373.809 28.88 372.743 28.88C371.543 28.88 370.423 28.8933 369.383 28.92C368.343 28.92 367.489 28.9467 366.823 29V28.2C367.703 28.1467 368.356 28.04 368.783 27.88C369.236 27.72 369.529 27.4 369.663 26.92C369.823 26.44 369.903 25.72 369.903 24.76V4.92C369.903 3.93333 369.823 3.21333 369.663 2.76C369.529 2.28 369.236 1.96 368.783 1.8C368.356 1.61333 367.703 1.50667 366.823 1.48V0.68C367.489 0.706666 368.343 0.733332 369.383 0.759999C370.423 0.786665 371.543 0.799998 372.743 0.799998C373.809 0.799998 374.863 0.786665 375.903 0.759999C376.943 0.733332 377.796 0.706666 378.463 0.68ZM390.913 0.199999C392.406 0.199999 393.553 0.359999 394.353 0.68C395.153 0.999999 395.846 1.34667 396.433 1.72C396.753 1.90667 397.006 2.05333 397.193 2.16C397.406 2.24 397.606 2.28 397.793 2.28C398.06 2.28 398.246 2.13333 398.353 1.84C398.486 1.54666 398.593 1.10666 398.673 0.52H399.593C399.566 1.02667 399.526 1.61333 399.473 2.28C399.446 2.94667 399.42 3.84 399.393 4.96C399.393 6.05333 399.393 7.50667 399.393 9.32H398.473C398.393 7.96 398.086 6.65333 397.553 5.4C397.046 4.14667 396.313 3.12 395.353 2.32C394.42 1.49333 393.22 1.08 391.753 1.08C390.446 1.08 389.353 1.46667 388.473 2.24C387.62 3.01333 387.193 4.05333 387.193 5.36C387.193 6.48 387.473 7.42667 388.033 8.2C388.593 8.94667 389.38 9.68 390.393 10.4C391.433 11.0933 392.66 11.8933 394.073 12.8C395.38 13.6533 396.553 14.5067 397.593 15.36C398.633 16.1867 399.446 17.1067 400.033 18.12C400.646 19.1333 400.953 20.3733 400.953 21.84C400.953 23.5733 400.526 25.0133 399.673 26.16C398.82 27.3067 397.673 28.16 396.233 28.72C394.793 29.28 393.22 29.56 391.513 29.56C389.94 29.56 388.686 29.4 387.753 29.08C386.846 28.76 386.06 28.4267 385.393 28.08C384.806 27.7067 384.353 27.52 384.033 27.52C383.766 27.52 383.566 27.6667 383.433 27.96C383.326 28.2533 383.233 28.6933 383.153 29.28H382.233C382.286 28.6667 382.313 27.9467 382.313 27.12C382.34 26.2933 382.353 25.2267 382.353 23.92C382.38 22.5867 382.393 20.9067 382.393 18.88H383.313C383.42 20.5867 383.713 22.1867 384.193 23.68C384.7 25.1467 385.46 26.3333 386.473 27.24C387.513 28.1467 388.886 28.6 390.593 28.6C391.526 28.6 392.366 28.44 393.113 28.12C393.886 27.7733 394.5 27.2533 394.953 26.56C395.406 25.84 395.633 24.9333 395.633 23.84C395.633 22.7467 395.38 21.7867 394.873 20.96C394.366 20.1333 393.66 19.36 392.753 18.64C391.846 17.92 390.78 17.1867 389.553 16.44C388.3 15.64 387.126 14.8267 386.033 14C384.94 13.1733 384.06 12.24 383.393 11.2C382.753 10.1333 382.433 8.85333 382.433 7.36C382.433 5.70667 382.833 4.36 383.633 3.32C384.433 2.25333 385.473 1.46667 386.753 0.959999C388.06 0.453332 389.446 0.199999 390.913 0.199999ZM421.047 29V28.2C421.927 28.1467 422.58 28.04 423.007 27.88C423.46 27.72 423.753 27.4 423.887 26.92C424.047 26.44 424.127 25.72 424.127 24.76V4.92C424.127 3.93333 424.047 3.21333 423.887 2.76C423.753 2.28 423.46 1.96 423.007 1.8C422.58 1.61333 421.927 1.50667 421.047 1.48V0.68C421.767 0.706666 422.66 0.733332 423.727 0.759999C424.793 0.786665 425.86 0.799998 426.927 0.799998C428.1 0.799998 429.193 0.786665 430.207 0.759999C431.247 0.733332 432.073 0.706666 432.687 0.68V1.48C431.833 1.50667 431.18 1.61333 430.727 1.8C430.3 1.96 430.007 2.28 429.847 2.76C429.687 3.21333 429.607 3.93333 429.607 4.92V24.76C429.607 25.72 429.687 26.44 429.847 26.92C430.007 27.4 430.3 27.72 430.727 27.88C431.18 28.04 431.833 28.1467 432.687 28.2V29C432.073 28.9467 431.247 28.92 430.207 28.92C429.193 28.8933 428.1 28.88 426.927 28.88C425.86 28.88 424.793 28.8933 423.727 28.92C422.66 28.92 421.767 28.9467 421.047 29ZM404.167 29V28.2C405.047 28.1467 405.7 28.04 406.127 27.88C406.58 27.72 406.873 27.4 407.007 26.92C407.167 26.44 407.247 25.72 407.247 24.76V4.92C407.247 3.93333 407.167 3.21333 407.007 2.76C406.873 2.28 406.58 1.96 406.127 1.8C405.7 1.61333 405.047 1.50667 404.167 1.48V0.68C404.833 0.706666 405.687 0.733332 406.727 0.759999C407.767 0.786665 408.887 0.799998 410.087 0.799998C411.153 0.799998 412.207 0.786665 413.247 0.759999C414.287 0.733332 415.14 0.706666 415.807 0.68V1.48C414.953 1.50667 414.3 1.61333 413.847 1.8C413.42 1.96 413.127 2.28 412.967 2.76C412.807 3.21333 412.727 3.93333 412.727 4.92V24.76C412.727 25.72 412.807 26.44 412.967 26.92C413.127 27.4 413.42 27.72 413.847 27.88C414.3 28.04 414.953 28.1467 415.807 28.2V29C415.14 28.9467 414.287 28.92 413.247 28.92C412.207 28.8933 411.153 28.88 410.087 28.88C408.887 28.88 407.767 28.8933 406.727 28.92C405.687 28.92 404.833 28.9467 404.167 29ZM410.527 15.16V14.36H426.327V15.16H410.527ZM456.532 0.68C456.425 1.77333 456.345 2.84 456.292 3.88C456.265 4.89333 456.252 5.66667 456.252 6.2C456.252 6.70667 456.265 7.2 456.292 7.68C456.319 8.13333 456.345 8.52 456.372 8.84H455.452C455.239 7 454.892 5.56 454.412 4.52C453.932 3.45333 453.279 2.70667 452.452 2.28C451.652 1.82666 450.599 1.6 449.292 1.6H447.092C446.292 1.6 445.679 1.66666 445.252 1.8C444.825 1.93333 444.532 2.21333 444.372 2.64C444.239 3.06667 444.172 3.72 444.172 4.6V25.08C444.172 25.9333 444.239 26.5867 444.372 27.04C444.532 27.4667 444.825 27.7467 445.252 27.88C445.679 28.0133 446.292 28.08 447.092 28.08H449.372C450.732 28.08 451.865 27.8267 452.772 27.32C453.705 26.8133 454.452 25.9867 455.012 24.84C455.572 23.6667 455.985 22.0667 456.252 20.04H457.172C457.092 20.8667 457.052 21.9333 457.052 23.24C457.052 23.8 457.065 24.6133 457.092 25.68C457.145 26.7467 457.225 27.8533 457.332 29C455.972 28.9467 454.439 28.92 452.732 28.92C451.025 28.8933 449.505 28.88 448.172 28.88C447.559 28.88 446.745 28.88 445.732 28.88C444.745 28.88 443.665 28.8933 442.492 28.92C441.345 28.92 440.172 28.9333 438.972 28.96C437.799 28.96 436.679 28.9733 435.612 29V28.2C436.492 28.1467 437.145 28.04 437.572 27.88C438.025 27.72 438.319 27.4 438.452 26.92C438.612 26.44 438.692 25.72 438.692 24.76V4.92C438.692 3.93333 438.612 3.21333 438.452 2.76C438.319 2.28 438.025 1.96 437.572 1.8C437.145 1.61333 436.492 1.50667 435.612 1.48V0.68C436.679 0.706666 437.799 0.733332 438.972 0.759999C440.172 0.759999 441.345 0.773332 442.492 0.799998C443.665 0.799998 444.745 0.799998 445.732 0.799998C446.745 0.799998 447.559 0.799998 448.172 0.799998C449.399 0.799998 450.785 0.799998 452.332 0.799998C453.905 0.773332 455.305 0.733332 456.532 0.68ZM450.092 14.36C450.092 14.36 450.092 14.4933 450.092 14.76C450.092 15.0267 450.092 15.16 450.092 15.16H442.972C442.972 15.16 442.972 15.0267 442.972 14.76C442.972 14.4933 442.972 14.36 442.972 14.36H450.092ZM451.252 9.08C451.145 10.6 451.092 11.76 451.092 12.56C451.119 13.36 451.132 14.0933 451.132 14.76C451.132 15.4267 451.145 16.16 451.172 16.96C451.199 17.76 451.265 18.92 451.372 20.44H450.452C450.319 19.5333 450.105 18.68 449.812 17.88C449.545 17.0533 449.105 16.4 448.492 15.92C447.905 15.4133 447.052 15.16 445.932 15.16V14.36C446.759 14.36 447.425 14.1867 447.932 13.84C448.465 13.4933 448.892 13.0533 449.212 12.52C449.532 11.96 449.772 11.3867 449.932 10.8C450.119 10.1867 450.252 9.61333 450.332 9.08H451.252ZM470.132 0.199999C471.625 0.199999 472.772 0.359999 473.572 0.68C474.372 0.999999 475.065 1.34667 475.652 1.72C475.972 1.90667 476.225 2.05333 476.412 2.16C476.625 2.24 476.825 2.28 477.012 2.28C477.279 2.28 477.465 2.13333 477.572 1.84C477.705 1.54666 477.812 1.10666 477.892 0.52H478.812C478.785 1.02667 478.745 1.61333 478.692 2.28C478.665 2.94667 478.639 3.84 478.612 4.96C478.612 6.05333 478.612 7.50667 478.612 9.32H477.692C477.612 7.96 477.305 6.65333 476.772 5.4C476.265 4.14667 475.532 3.12 474.572 2.32C473.639 1.49333 472.439 1.08 470.972 1.08C469.665 1.08 468.572 1.46667 467.692 2.24C466.839 3.01333 466.412 4.05333 466.412 5.36C466.412 6.48 466.692 7.42667 467.252 8.2C467.812 8.94667 468.599 9.68 469.612 10.4C470.652 11.0933 471.879 11.8933 473.292 12.8C474.599 13.6533 475.772 14.5067 476.812 15.36C477.852 16.1867 478.665 17.1067 479.252 18.12C479.865 19.1333 480.172 20.3733 480.172 21.84C480.172 23.5733 479.745 25.0133 478.892 26.16C478.039 27.3067 476.892 28.16 475.452 28.72C474.012 29.28 472.439 29.56 470.732 29.56C469.159 29.56 467.905 29.4 466.972 29.08C466.065 28.76 465.279 28.4267 464.612 28.08C464.025 27.7067 463.572 27.52 463.252 27.52C462.985 27.52 462.785 27.6667 462.652 27.96C462.545 28.2533 462.452 28.6933 462.372 29.28H461.452C461.505 28.6667 461.532 27.9467 461.532 27.12C461.559 26.2933 461.572 25.2267 461.572 23.92C461.599 22.5867 461.612 20.9067 461.612 18.88H462.532C462.639 20.5867 462.932 22.1867 463.412 23.68C463.919 25.1467 464.679 26.3333 465.692 27.24C466.732 28.1467 468.105 28.6 469.812 28.6C470.745 28.6 471.585 28.44 472.332 28.12C473.105 27.7733 473.719 27.2533 474.172 26.56C474.625 25.84 474.852 24.9333 474.852 23.84C474.852 22.7467 474.599 21.7867 474.092 20.96C473.585 20.1333 472.879 19.36 471.972 18.64C471.065 17.92 469.999 17.1867 468.772 16.44C467.519 15.64 466.345 14.8267 465.252 14C464.159 13.1733 463.279 12.24 462.612 11.2C461.972 10.1333 461.652 8.85333 461.652 7.36C461.652 5.70667 462.052 4.36 462.852 3.32C463.652 2.25333 464.692 1.46667 465.972 0.959999C467.279 0.453332 468.665 0.199999 470.132 0.199999Z" fill="white"/>
</svg>
