<svg width="409" height="30" viewBox="0 0 409 30" fill="none" xmlns="http://www.w3.org/2000/svg">
<path d="M13.7505 0.119998C16.4705 0.119998 18.8571 0.693331 20.9105 1.84C22.9638 2.98667 24.5505 4.64 25.6705 6.8C26.8171 8.93333 27.3905 11.5333 27.3905 14.6C27.3905 17.5867 26.8038 20.2 25.6305 22.44C24.4838 24.68 22.8705 26.4267 20.7905 27.68C18.7371 28.9333 16.3771 29.56 13.7105 29.56C10.9905 29.56 8.6038 28.9867 6.55047 27.84C4.49714 26.6933 2.89714 25.04 1.75047 22.88C0.630469 20.72 0.0704689 18.12 0.0704689 15.08C0.0704689 12.0933 0.657136 9.48 1.83047 7.24C3.0038 5 4.61714 3.25333 6.67047 2C8.7238 0.746665 11.0838 0.119998 13.7505 0.119998ZM13.5905 0.839998C12.0171 0.839998 10.6438 1.44 9.47047 2.64C8.3238 3.84 7.43047 5.49333 6.79047 7.6C6.15047 9.70667 5.83047 12.1467 5.83047 14.92C5.83047 17.7467 6.19047 20.2133 6.91047 22.32C7.63047 24.4 8.6038 26.0133 9.83047 27.16C11.0571 28.28 12.4038 28.84 13.8705 28.84C15.4438 28.84 16.8038 28.24 17.9505 27.04C19.1238 25.84 20.0305 24.1867 20.6705 22.08C21.3105 19.9467 21.6305 17.5067 21.6305 14.76C21.6305 11.9067 21.2705 9.44 20.5505 7.36C19.8305 5.28 18.8571 3.68 17.6305 2.56C16.4305 1.41333 15.0838 0.839998 13.5905 0.839998ZM55.6117 0.68V1.48C54.7584 1.56 54.1051 1.76 53.6517 2.08C53.2251 2.37333 52.9317 2.85333 52.7717 3.52C52.6117 4.16 52.5317 5.08 52.5317 6.28V17.36C52.5317 19.1467 52.4117 20.7467 52.1717 22.16C51.9584 23.5733 51.5317 24.8 50.8917 25.84C50.2251 26.96 49.2251 27.8667 47.8917 28.56C46.5851 29.2267 44.9851 29.56 43.0917 29.56C41.8117 29.56 40.5451 29.4133 39.2917 29.12C38.0651 28.8267 36.9851 28.28 36.0517 27.48C35.2251 26.7867 34.5717 26 34.0917 25.12C33.6384 24.24 33.3317 23.1867 33.1717 21.96C33.0117 20.7067 32.9317 19.2133 32.9317 17.48V4.92C32.9317 3.93333 32.8517 3.21333 32.6917 2.76C32.5584 2.28 32.2651 1.96 31.8117 1.8C31.3851 1.61333 30.7317 1.50667 29.8517 1.48V0.68C30.5184 0.706666 31.3717 0.733332 32.4117 0.759999C33.4517 0.786665 34.5717 0.799998 35.7717 0.799998C36.8651 0.799998 37.9451 0.786665 39.0117 0.759999C40.0784 0.733332 40.9584 0.706666 41.6517 0.68V1.48C40.7451 1.50667 40.0517 1.61333 39.5717 1.8C39.1184 1.96 38.8117 2.28 38.6517 2.76C38.4917 3.21333 38.4117 3.93333 38.4117 4.92V19.4C38.4117 20.7333 38.4917 21.9467 38.6517 23.04C38.8384 24.1067 39.1317 25.0267 39.5317 25.8C39.9584 26.5733 40.5451 27.16 41.2917 27.56C42.0651 27.96 43.0384 28.16 44.2117 28.16C46.1584 28.16 47.6651 27.72 48.7317 26.84C49.7984 25.96 50.5451 24.7333 50.9717 23.16C51.3984 21.5867 51.6117 19.8 51.6117 17.8V6.6C51.6117 5.29333 51.5184 4.29333 51.3317 3.6C51.1451 2.90667 50.7717 2.4 50.2117 2.08C49.6784 1.76 48.8784 1.56 47.8117 1.48V0.68C48.3184 0.706666 48.9717 0.733332 49.7717 0.759999C50.5984 0.786665 51.3584 0.799998 52.0517 0.799998C52.7184 0.799998 53.3717 0.786665 54.0117 0.759999C54.6784 0.733332 55.2117 0.706666 55.6117 0.68ZM57.8736 0.68C58.5403 0.706666 59.3936 0.733332 60.4336 0.759999C61.4736 0.786665 62.5136 0.799998 63.5536 0.799998C64.8603 0.799998 66.1003 0.786665 67.2736 0.759999C68.4469 0.733332 69.2736 0.719999 69.7536 0.719999C72.1536 0.719999 74.1269 1.01333 75.6736 1.6C77.2469 2.16 78.4203 2.96 79.1936 4C79.9669 5.04 80.3536 6.26667 80.3536 7.68C80.3536 8.56 80.1803 9.46667 79.8336 10.4C79.4869 11.3067 78.8869 12.1467 78.0336 12.92C77.1803 13.6933 76.0069 14.3333 74.5136 14.84C73.0469 15.32 71.1669 15.56 68.8736 15.56H65.0336V14.76H68.4736C70.1536 14.76 71.4336 14.4667 72.3136 13.88C73.2203 13.2667 73.8203 12.4667 74.1136 11.48C74.4336 10.4667 74.5936 9.34667 74.5936 8.12C74.5936 6.01333 74.1803 4.38667 73.3536 3.24C72.5269 2.06667 71.1003 1.48 69.0736 1.48C67.9803 1.48 67.2603 1.70667 66.9136 2.16C66.5936 2.61333 66.4336 3.53333 66.4336 4.92V24.76C66.4336 25.72 66.5136 26.44 66.6736 26.92C66.8336 27.4 67.1269 27.72 67.5536 27.88C68.0069 28.04 68.6603 28.1467 69.5136 28.2V29C68.8469 28.9467 67.9936 28.92 66.9536 28.92C65.9136 28.8933 64.8603 28.88 63.7936 28.88C62.5936 28.88 61.4736 28.8933 60.4336 28.92C59.3936 28.92 58.5403 28.9467 57.8736 29V28.2C58.7536 28.1467 59.4069 28.04 59.8336 27.88C60.2869 27.72 60.5803 27.4 60.7136 26.92C60.8736 26.44 60.9536 25.72 60.9536 24.76V4.92C60.9536 3.93333 60.8736 3.21333 60.7136 2.76C60.5803 2.28 60.2869 1.96 59.8336 1.8C59.4069 1.61333 58.7536 1.50667 57.8736 1.48V0.68ZM65.0336 14.88C66.2869 14.9333 67.3269 15 68.1536 15.08C69.0069 15.1333 69.7269 15.1867 70.3136 15.24C70.9269 15.2933 71.4736 15.36 71.9536 15.44C74.1669 15.6533 75.7936 16.1733 76.8336 17C77.9003 17.8 78.6069 19.0267 78.9536 20.68L79.8736 24.8C80.1136 25.8933 80.3669 26.68 80.6336 27.16C80.9269 27.6133 81.3403 27.8267 81.8736 27.8C82.2469 27.8 82.5669 27.7067 82.8336 27.52C83.1003 27.3067 83.3669 27.0267 83.6336 26.68L84.1936 27.16C83.5269 27.9867 82.8203 28.6 82.0736 29C81.3269 29.3733 80.3803 29.56 79.2336 29.56C77.9536 29.56 76.8736 29.2667 75.9936 28.68C75.1136 28.0667 74.5136 26.92 74.1936 25.24L73.4336 21.24C73.2203 20.12 72.9669 19.1333 72.6736 18.28C72.4069 17.4267 72.0336 16.76 71.5536 16.28C71.0736 15.8 70.3669 15.56 69.4336 15.56H65.1136L65.0336 14.88ZM120.045 0.68V1.48C119.191 1.56 118.538 1.76 118.085 2.08C117.631 2.37333 117.325 2.85333 117.165 3.52C117.031 4.16 116.965 5.08 116.965 6.28V29.12C116.725 29.0933 116.458 29.08 116.165 29.08C115.898 29.08 115.605 29.0933 115.285 29.12L98.1245 5.8V23.08C98.1245 24.36 98.2045 25.36 98.3645 26.08C98.5245 26.7733 98.8712 27.28 99.4045 27.6C99.9645 27.8933 100.805 28.0933 101.925 28.2V29C101.418 28.9467 100.765 28.92 99.9645 28.92C99.1645 28.8933 98.4045 28.88 97.6845 28.88C97.0445 28.88 96.3912 28.8933 95.7245 28.92C95.0845 28.92 94.5512 28.9467 94.1245 29V28.2C95.0045 28.0933 95.6579 27.8933 96.0845 27.6C96.5379 27.3067 96.8312 26.8267 96.9645 26.16C97.1245 25.4933 97.2045 24.5733 97.2045 23.4V4.92C97.2045 3.93333 97.1245 3.21333 96.9645 2.76C96.8312 2.28 96.5379 1.96 96.0845 1.8C95.6579 1.61333 95.0045 1.50667 94.1245 1.48V0.68C94.5512 0.706666 95.0845 0.733332 95.7245 0.759999C96.3912 0.786665 97.0445 0.799998 97.6845 0.799998C98.2979 0.799998 98.8979 0.786665 99.4845 0.759999C100.071 0.733332 100.591 0.706666 101.045 0.68L116.045 20.64V6.6C116.045 5.29333 115.965 4.29333 115.805 3.6C115.645 2.90667 115.298 2.4 114.765 2.08C114.231 1.76 113.391 1.56 112.245 1.48V0.68C112.751 0.706666 113.405 0.733332 114.205 0.759999C115.031 0.786665 115.791 0.799998 116.485 0.799998C117.151 0.799998 117.805 0.786665 118.445 0.759999C119.111 0.733332 119.645 0.706666 120.045 0.68ZM134.968 0.559999L144.688 25.64C145.088 26.6 145.514 27.2667 145.968 27.64C146.448 27.9867 146.888 28.1733 147.288 28.2V29C146.594 28.9467 145.754 28.92 144.768 28.92C143.808 28.8933 142.821 28.88 141.808 28.88C140.634 28.88 139.541 28.8933 138.528 28.92C137.514 28.92 136.688 28.9467 136.048 29V28.2C137.408 28.1467 138.274 27.92 138.648 27.52C139.021 27.0933 138.941 26.2 138.408 24.84L131.368 5.84L132.088 4.96L125.688 21.56C125.181 22.8933 124.874 23.9867 124.768 24.84C124.661 25.6933 124.728 26.36 124.968 26.84C125.208 27.32 125.608 27.6667 126.168 27.88C126.728 28.0667 127.421 28.1733 128.248 28.2V29C127.394 28.9467 126.568 28.92 125.768 28.92C124.968 28.8933 124.168 28.88 123.368 28.88C122.781 28.88 122.221 28.8933 121.688 28.92C121.181 28.92 120.728 28.9467 120.328 29V28.2C120.914 28.0667 121.488 27.72 122.048 27.16C122.634 26.6 123.194 25.6267 123.728 24.24L132.888 0.559999C133.208 0.586665 133.554 0.599998 133.928 0.599998C134.301 0.599998 134.648 0.586665 134.968 0.559999ZM138.448 17.48V18.28H126.528L126.928 17.48H138.448ZM159.357 0.68V1.48C158.504 1.50667 157.851 1.61333 157.397 1.8C156.971 1.96 156.677 2.28 156.517 2.76C156.357 3.21333 156.277 3.93333 156.277 4.92V24.76C156.277 25.72 156.357 26.44 156.517 26.92C156.677 27.4 156.971 27.72 157.397 27.88C157.851 28.04 158.504 28.1467 159.357 28.2V29C158.691 28.9467 157.837 28.92 156.797 28.92C155.757 28.8933 154.704 28.88 153.637 28.88C152.437 28.88 151.317 28.8933 150.277 28.92C149.237 28.92 148.384 28.9467 147.717 29V28.2C148.597 28.1467 149.251 28.04 149.677 27.88C150.131 27.72 150.424 27.4 150.557 26.92C150.717 26.44 150.797 25.72 150.797 24.76V4.92C150.797 3.93333 150.717 3.21333 150.557 2.76C150.424 2.28 150.131 1.96 149.677 1.8C149.251 1.61333 148.597 1.50667 147.717 1.48V0.68C148.384 0.706666 149.237 0.733332 150.277 0.759999C151.317 0.786665 152.437 0.799998 153.637 0.799998C154.704 0.799998 155.757 0.786665 156.797 0.759999C157.837 0.733332 158.691 0.706666 159.357 0.68ZM174.088 0.68V1.48C173.181 1.50667 172.488 1.61333 172.008 1.8C171.554 1.96 171.248 2.28 171.088 2.76C170.928 3.21333 170.848 3.93333 170.848 4.92V25.08C170.848 25.9333 170.914 26.5867 171.048 27.04C171.208 27.4667 171.488 27.7467 171.888 27.88C172.288 28.0133 172.861 28.08 173.608 28.08H175.888C176.928 28.08 177.834 27.8933 178.608 27.52C179.408 27.1467 180.101 26.6 180.688 25.88C181.274 25.16 181.754 24.28 182.128 23.24C182.501 22.1733 182.768 20.9733 182.928 19.64H183.848C183.768 20.52 183.728 21.6667 183.728 23.08C183.728 23.6667 183.741 24.5067 183.768 25.6C183.821 26.6933 183.901 27.8267 184.008 29C182.648 28.9467 181.114 28.92 179.408 28.92C177.701 28.8933 176.181 28.88 174.848 28.88C174.208 28.88 173.394 28.88 172.408 28.88C171.421 28.88 170.341 28.8933 169.168 28.92C168.021 28.92 166.848 28.9333 165.648 28.96C164.474 28.96 163.354 28.9733 162.288 29V28.2C163.168 28.1467 163.821 28.04 164.248 27.88C164.701 27.72 164.994 27.4 165.128 26.92C165.288 26.44 165.368 25.72 165.368 24.76V4.92C165.368 3.93333 165.288 3.21333 165.128 2.76C164.994 2.28 164.701 1.96 164.248 1.8C163.821 1.61333 163.168 1.50667 162.288 1.48V0.68C162.954 0.706666 163.808 0.733332 164.848 0.759999C165.888 0.786665 167.008 0.799998 168.208 0.799998C169.301 0.799998 170.381 0.786665 171.448 0.759999C172.514 0.733332 173.394 0.706666 174.088 0.68ZM195.569 0.68C196.236 0.706666 197.089 0.733332 198.129 0.759999C199.169 0.786665 200.209 0.799998 201.249 0.799998C202.556 0.799998 203.796 0.786665 204.969 0.759999C206.142 0.733332 206.969 0.719999 207.449 0.719999C211.022 0.719999 213.676 1.45333 215.409 2.92C217.169 4.38667 218.049 6.28 218.049 8.6C218.049 9.56 217.876 10.5733 217.529 11.64C217.182 12.68 216.582 13.6533 215.729 14.56C214.876 15.44 213.702 16.16 212.209 16.72C210.742 17.28 208.862 17.56 206.569 17.56H202.569V16.76H206.169C207.849 16.76 209.129 16.4 210.009 15.68C210.916 14.96 211.516 14.0133 211.809 12.84C212.129 11.6667 212.289 10.4 212.289 9.04C212.289 6.50667 211.876 4.61333 211.049 3.36C210.222 2.10667 208.796 1.48 206.769 1.48C205.676 1.48 204.956 1.70667 204.609 2.16C204.289 2.61333 204.129 3.53333 204.129 4.92V24.6C204.129 25.6133 204.236 26.3733 204.449 26.88C204.662 27.3867 205.076 27.72 205.689 27.88C206.302 28.04 207.182 28.1333 208.329 28.16V29C207.556 28.9467 206.556 28.92 205.329 28.92C204.102 28.8933 202.836 28.88 201.529 28.88C200.409 28.88 199.329 28.8933 198.289 28.92C197.249 28.92 196.342 28.9467 195.569 29V28.2C196.449 28.1467 197.102 28.04 197.529 27.88C197.982 27.72 198.276 27.4 198.409 26.92C198.569 26.44 198.649 25.72 198.649 24.76V4.92C198.649 3.93333 198.569 3.21333 198.409 2.76C198.276 2.28 197.982 1.96 197.529 1.8C197.102 1.61333 196.449 1.50667 195.569 1.48V0.68ZM220.335 0.68C221.001 0.706666 221.855 0.733332 222.895 0.759999C223.935 0.786665 224.975 0.799998 226.015 0.799998C227.321 0.799998 228.561 0.786665 229.735 0.759999C230.908 0.733332 231.735 0.719999 232.215 0.719999C234.615 0.719999 236.588 1.01333 238.135 1.6C239.708 2.16 240.881 2.96 241.655 4C242.428 5.04 242.815 6.26667 242.815 7.68C242.815 8.56 242.641 9.46667 242.295 10.4C241.948 11.3067 241.348 12.1467 240.495 12.92C239.641 13.6933 238.468 14.3333 236.975 14.84C235.508 15.32 233.628 15.56 231.335 15.56H227.495V14.76H230.935C232.615 14.76 233.895 14.4667 234.775 13.88C235.681 13.2667 236.281 12.4667 236.575 11.48C236.895 10.4667 237.055 9.34667 237.055 8.12C237.055 6.01333 236.641 4.38667 235.815 3.24C234.988 2.06667 233.561 1.48 231.535 1.48C230.441 1.48 229.721 1.70667 229.375 2.16C229.055 2.61333 228.895 3.53333 228.895 4.92V24.76C228.895 25.72 228.975 26.44 229.135 26.92C229.295 27.4 229.588 27.72 230.015 27.88C230.468 28.04 231.121 28.1467 231.975 28.2V29C231.308 28.9467 230.455 28.92 229.415 28.92C228.375 28.8933 227.321 28.88 226.255 28.88C225.055 28.88 223.935 28.8933 222.895 28.92C221.855 28.92 221.001 28.9467 220.335 29V28.2C221.215 28.1467 221.868 28.04 222.295 27.88C222.748 27.72 223.041 27.4 223.175 26.92C223.335 26.44 223.415 25.72 223.415 24.76V4.92C223.415 3.93333 223.335 3.21333 223.175 2.76C223.041 2.28 222.748 1.96 222.295 1.8C221.868 1.61333 221.215 1.50667 220.335 1.48V0.68ZM227.495 14.88C228.748 14.9333 229.788 15 230.615 15.08C231.468 15.1333 232.188 15.1867 232.775 15.24C233.388 15.2933 233.935 15.36 234.415 15.44C236.628 15.6533 238.255 16.1733 239.295 17C240.361 17.8 241.068 19.0267 241.415 20.68L242.335 24.8C242.575 25.8933 242.828 26.68 243.095 27.16C243.388 27.6133 243.801 27.8267 244.335 27.8C244.708 27.8 245.028 27.7067 245.295 27.52C245.561 27.3067 245.828 27.0267 246.095 26.68L246.655 27.16C245.988 27.9867 245.281 28.6 244.535 29C243.788 29.3733 242.841 29.56 241.695 29.56C240.415 29.56 239.335 29.2667 238.455 28.68C237.575 28.0667 236.975 26.92 236.655 25.24L235.895 21.24C235.681 20.12 235.428 19.1333 235.135 18.28C234.868 17.4267 234.495 16.76 234.015 16.28C233.535 15.8 232.828 15.56 231.895 15.56H227.575L227.495 14.88ZM261.485 0.119998C264.205 0.119998 266.592 0.693331 268.645 1.84C270.698 2.98667 272.285 4.64 273.405 6.8C274.552 8.93333 275.125 11.5333 275.125 14.6C275.125 17.5867 274.538 20.2 273.365 22.44C272.218 24.68 270.605 26.4267 268.525 27.68C266.472 28.9333 264.112 29.56 261.445 29.56C258.725 29.56 256.338 28.9867 254.285 27.84C252.232 26.6933 250.632 25.04 249.485 22.88C248.365 20.72 247.805 18.12 247.805 15.08C247.805 12.0933 248.392 9.48 249.565 7.24C250.738 5 252.352 3.25333 254.405 2C256.458 0.746665 258.818 0.119998 261.485 0.119998ZM261.325 0.839998C259.752 0.839998 258.378 1.44 257.205 2.64C256.058 3.84 255.165 5.49333 254.525 7.6C253.885 9.70667 253.565 12.1467 253.565 14.92C253.565 17.7467 253.925 20.2133 254.645 22.32C255.365 24.4 256.338 26.0133 257.565 27.16C258.792 28.28 260.138 28.84 261.605 28.84C263.178 28.84 264.538 28.24 265.685 27.04C266.858 25.84 267.765 24.1867 268.405 22.08C269.045 19.9467 269.365 17.5067 269.365 14.76C269.365 11.9067 269.005 9.44 268.285 7.36C267.565 5.28 266.592 3.68 265.365 2.56C264.165 1.41333 262.818 0.839998 261.325 0.839998ZM289.988 0.68C295.108 0.68 298.895 1.88 301.348 4.28C303.828 6.65333 305.068 10.0667 305.068 14.52C305.068 17.4267 304.455 19.9733 303.228 22.16C302.028 24.32 300.281 26 297.988 27.2C295.695 28.4 292.908 29 289.628 29C289.228 29 288.681 28.9867 287.988 28.96C287.321 28.9333 286.615 28.92 285.868 28.92C285.148 28.8933 284.481 28.88 283.868 28.88C282.775 28.88 281.708 28.8933 280.668 28.92C279.628 28.92 278.775 28.9467 278.108 29V28.2C278.988 28.1467 279.641 28.04 280.068 27.88C280.521 27.72 280.815 27.4 280.948 26.92C281.108 26.44 281.188 25.72 281.188 24.76V4.92C281.188 3.93333 281.108 3.21333 280.948 2.76C280.815 2.28 280.521 1.96 280.068 1.8C279.641 1.61333 278.988 1.50667 278.108 1.48V0.68C278.775 0.706666 279.628 0.746666 280.668 0.799998C281.708 0.826665 282.748 0.826665 283.788 0.799998C284.748 0.773332 285.828 0.746666 287.028 0.719999C288.228 0.693333 289.215 0.68 289.988 0.68ZM289.628 1.4C288.401 1.4 287.601 1.62666 287.228 2.08C286.855 2.53333 286.668 3.45333 286.668 4.84V24.84C286.668 26.2267 286.855 27.1467 287.228 27.6C287.628 28.0533 288.441 28.28 289.668 28.28C292.148 28.28 294.081 27.76 295.468 26.72C296.881 25.6533 297.868 24.1067 298.428 22.08C299.015 20.0533 299.308 17.5867 299.308 14.68C299.308 11.6933 298.988 9.22667 298.348 7.28C297.735 5.30666 296.721 3.84 295.308 2.88C293.895 1.89333 292.001 1.4 289.628 1.4ZM333.307 0.68V1.48C332.454 1.56 331.8 1.76 331.347 2.08C330.92 2.37333 330.627 2.85333 330.467 3.52C330.307 4.16 330.227 5.08 330.227 6.28V17.36C330.227 19.1467 330.107 20.7467 329.867 22.16C329.654 23.5733 329.227 24.8 328.587 25.84C327.92 26.96 326.92 27.8667 325.587 28.56C324.28 29.2267 322.68 29.56 320.787 29.56C319.507 29.56 318.24 29.4133 316.987 29.12C315.76 28.8267 314.68 28.28 313.747 27.48C312.92 26.7867 312.267 26 311.787 25.12C311.334 24.24 311.027 23.1867 310.867 21.96C310.707 20.7067 310.627 19.2133 310.627 17.48V4.92C310.627 3.93333 310.547 3.21333 310.387 2.76C310.254 2.28 309.96 1.96 309.507 1.8C309.08 1.61333 308.427 1.50667 307.547 1.48V0.68C308.214 0.706666 309.067 0.733332 310.107 0.759999C311.147 0.786665 312.267 0.799998 313.467 0.799998C314.56 0.799998 315.64 0.786665 316.707 0.759999C317.774 0.733332 318.654 0.706666 319.347 0.68V1.48C318.44 1.50667 317.747 1.61333 317.267 1.8C316.814 1.96 316.507 2.28 316.347 2.76C316.187 3.21333 316.107 3.93333 316.107 4.92V19.4C316.107 20.7333 316.187 21.9467 316.347 23.04C316.534 24.1067 316.827 25.0267 317.227 25.8C317.654 26.5733 318.24 27.16 318.987 27.56C319.76 27.96 320.734 28.16 321.907 28.16C323.854 28.16 325.36 27.72 326.427 26.84C327.494 25.96 328.24 24.7333 328.667 23.16C329.094 21.5867 329.307 19.8 329.307 17.8V6.6C329.307 5.29333 329.214 4.29333 329.027 3.6C328.84 2.90667 328.467 2.4 327.907 2.08C327.374 1.76 326.574 1.56 325.507 1.48V0.68C326.014 0.706666 326.667 0.733332 327.467 0.759999C328.294 0.786665 329.054 0.799998 329.747 0.799998C330.414 0.799998 331.067 0.786665 331.707 0.759999C332.374 0.733332 332.907 0.706666 333.307 0.68ZM349.415 0.119998C351.175 0.119998 352.615 0.386665 353.735 0.919999C354.881 1.42667 355.895 2.02667 356.775 2.72C357.308 3.12 357.708 3.17333 357.975 2.88C358.268 2.56 358.468 1.82667 358.575 0.68H359.495C359.441 1.69333 359.401 2.93333 359.375 4.4C359.348 5.86667 359.335 7.8 359.335 10.2H358.415C358.255 9 358.081 8 357.895 7.2C357.708 6.37333 357.441 5.66667 357.095 5.08C356.775 4.49333 356.321 3.93333 355.735 3.4C355.015 2.6 354.148 2.01333 353.135 1.64C352.148 1.24 351.108 1.04 350.015 1.04C348.628 1.04 347.415 1.41333 346.375 2.16C345.361 2.88 344.508 3.88 343.815 5.16C343.148 6.41333 342.641 7.88 342.295 9.56C341.975 11.24 341.815 13.0267 341.815 14.92C341.815 16.8667 341.988 18.68 342.335 20.36C342.708 22.0133 343.241 23.4667 343.935 24.72C344.655 25.9467 345.535 26.9067 346.575 27.6C347.641 28.2933 348.868 28.64 350.255 28.64C351.241 28.64 352.255 28.4533 353.295 28.08C354.335 27.7067 355.188 27.1333 355.855 26.36C356.735 25.56 357.335 24.6133 357.655 23.52C357.975 22.4 358.228 20.92 358.415 19.08H359.335C359.335 21.5867 359.348 23.6133 359.375 25.16C359.401 26.68 359.441 27.96 359.495 29H358.575C358.468 27.8533 358.281 27.1333 358.015 26.84C357.775 26.5467 357.361 26.5867 356.775 26.96C355.788 27.6533 354.735 28.2667 353.615 28.8C352.521 29.3067 351.108 29.56 349.375 29.56C346.655 29.56 344.268 28.9867 342.215 27.84C340.161 26.6933 338.561 25.04 337.415 22.88C336.295 20.72 335.735 18.12 335.735 15.08C335.735 12.0933 336.321 9.48 337.495 7.24C338.668 5 340.281 3.25333 342.335 2C344.388 0.746665 346.748 0.119998 349.415 0.119998ZM386.942 0.68C386.836 1.90667 386.756 3.10666 386.702 4.28C386.676 5.42666 386.662 6.30666 386.662 6.92C386.662 7.53333 386.676 8.10667 386.702 8.64C386.729 9.17333 386.756 9.64 386.782 10.04H385.862C385.489 7.90667 385.036 6.24 384.502 5.04C383.969 3.81333 383.262 2.93333 382.382 2.4C381.529 1.86666 380.396 1.6 378.982 1.6H377.702V24.4C377.702 25.4933 377.796 26.3067 377.982 26.84C378.196 27.3733 378.609 27.7333 379.222 27.92C379.836 28.08 380.729 28.1733 381.902 28.2V29C381.102 28.9467 380.062 28.92 378.782 28.92C377.502 28.8933 376.196 28.88 374.862 28.88C373.476 28.88 372.169 28.8933 370.942 28.92C369.742 28.92 368.769 28.9467 368.022 29V28.2C369.169 28.1733 370.049 28.08 370.662 27.92C371.276 27.7333 371.689 27.3733 371.902 26.84C372.116 26.3067 372.222 25.4933 372.222 24.4V1.6H370.902C369.516 1.6 368.382 1.86666 367.502 2.4C366.622 2.93333 365.916 3.81333 365.382 5.04C364.849 6.24 364.409 7.90667 364.062 10.04H363.142C363.196 9.64 363.222 9.17333 363.222 8.64C363.249 8.10667 363.262 7.53333 363.262 6.92C363.262 6.30666 363.236 5.42666 363.182 4.28C363.156 3.10666 363.089 1.90667 362.982 0.68C364.156 0.706666 365.449 0.733332 366.862 0.759999C368.276 0.786665 369.689 0.799998 371.102 0.799998C372.516 0.799998 373.809 0.799998 374.982 0.799998C376.129 0.799998 377.409 0.799998 378.822 0.799998C380.236 0.799998 381.649 0.786665 383.062 0.759999C384.476 0.733332 385.769 0.706666 386.942 0.68ZM398.956 0.199999C400.449 0.199999 401.596 0.359999 402.396 0.68C403.196 0.999999 403.889 1.34667 404.476 1.72C404.796 1.90667 405.049 2.05333 405.236 2.16C405.449 2.24 405.649 2.28 405.836 2.28C406.103 2.28 406.289 2.13333 406.396 1.84C406.529 1.54666 406.636 1.10666 406.716 0.52H407.636C407.609 1.02667 407.569 1.61333 407.516 2.28C407.489 2.94667 407.463 3.84 407.436 4.96C407.436 6.05333 407.436 7.50667 407.436 9.32H406.516C406.436 7.96 406.129 6.65333 405.596 5.4C405.089 4.14667 404.356 3.12 403.396 2.32C402.463 1.49333 401.263 1.08 399.796 1.08C398.489 1.08 397.396 1.46667 396.516 2.24C395.663 3.01333 395.236 4.05333 395.236 5.36C395.236 6.48 395.516 7.42667 396.076 8.2C396.636 8.94667 397.423 9.68 398.436 10.4C399.476 11.0933 400.703 11.8933 402.116 12.8C403.423 13.6533 404.596 14.5067 405.636 15.36C406.676 16.1867 407.489 17.1067 408.076 18.12C408.689 19.1333 408.996 20.3733 408.996 21.84C408.996 23.5733 408.569 25.0133 407.716 26.16C406.863 27.3067 405.716 28.16 404.276 28.72C402.836 29.28 401.263 29.56 399.556 29.56C397.983 29.56 396.729 29.4 395.796 29.08C394.889 28.76 394.103 28.4267 393.436 28.08C392.849 27.7067 392.396 27.52 392.076 27.52C391.809 27.52 391.609 27.6667 391.476 27.96C391.369 28.2533 391.276 28.6933 391.196 29.28H390.276C390.329 28.6667 390.356 27.9467 390.356 27.12C390.383 26.2933 390.396 25.2267 390.396 23.92C390.423 22.5867 390.436 20.9067 390.436 18.88H391.356C391.463 20.5867 391.756 22.1867 392.236 23.68C392.743 25.1467 393.503 26.3333 394.516 27.24C395.556 28.1467 396.929 28.6 398.636 28.6C399.569 28.6 400.409 28.44 401.156 28.12C401.929 27.7733 402.543 27.2533 402.996 26.56C403.449 25.84 403.676 24.9333 403.676 23.84C403.676 22.7467 403.423 21.7867 402.916 20.96C402.409 20.1333 401.703 19.36 400.796 18.64C399.889 17.92 398.823 17.1867 397.596 16.44C396.343 15.64 395.169 14.8267 394.076 14C392.983 13.1733 392.103 12.24 391.436 11.2C390.796 10.1333 390.476 8.85333 390.476 7.36C390.476 5.70667 390.876 4.36 391.676 3.32C392.476 2.25333 393.516 1.46667 394.796 0.959999C396.103 0.453332 397.489 0.199999 398.956 0.199999Z" fill="#D8B192"/>
</svg>
