<svg width="383" height="30" viewBox="0 0 383 30" fill="none" xmlns="http://www.w3.org/2000/svg">
<path d="M8.96 0.199999C10.4533 0.199999 11.6 0.359999 12.4 0.68C13.2 0.999999 13.8933 1.34667 14.48 1.72C14.8 1.90667 15.0533 2.05333 15.24 2.16C15.4533 2.24 15.6533 2.28 15.84 2.28C16.1067 2.28 16.2933 2.13333 16.4 1.84C16.5333 1.54666 16.64 1.10666 16.72 0.52H17.64C17.6133 1.02667 17.5733 1.61333 17.52 2.28C17.4933 2.94667 17.4667 3.84 17.44 4.96C17.44 6.05333 17.44 7.50667 17.44 9.32H16.52C16.44 7.96 16.1333 6.65333 15.6 5.4C15.0933 4.14667 14.36 3.12 13.4 2.32C12.4667 1.49333 11.2667 1.08 9.8 1.08C8.49333 1.08 7.4 1.46667 6.52 2.24C5.66667 3.01333 5.24 4.05333 5.24 5.36C5.24 6.48 5.52 7.42667 6.08 8.2C6.64 8.94667 7.42667 9.68 8.44 10.4C9.48 11.0933 10.7067 11.8933 12.12 12.8C13.4267 13.6533 14.6 14.5067 15.64 15.36C16.68 16.1867 17.4933 17.1067 18.08 18.12C18.6933 19.1333 19 20.3733 19 21.84C19 23.5733 18.5733 25.0133 17.72 26.16C16.8667 27.3067 15.72 28.16 14.28 28.72C12.84 29.28 11.2667 29.56 9.56 29.56C7.98667 29.56 6.73333 29.4 5.8 29.08C4.89333 28.76 4.10667 28.4267 3.44 28.08C2.85333 27.7067 2.4 27.52 2.08 27.52C1.81333 27.52 1.61333 27.6667 1.48 27.96C1.37333 28.2533 1.28 28.6933 1.2 29.28H0.28C0.333333 28.6667 0.36 27.9467 0.36 27.12C0.386667 26.2933 0.4 25.2267 0.4 23.92C0.426667 22.5867 0.44 20.9067 0.44 18.88H1.36C1.46667 20.5867 1.76 22.1867 2.24 23.68C2.74667 25.1467 3.50667 26.3333 4.52 27.24C5.56 28.1467 6.93333 28.6 8.64 28.6C9.57333 28.6 10.4133 28.44 11.16 28.12C11.9333 27.7733 12.5467 27.2533 13 26.56C13.4533 25.84 13.68 24.9333 13.68 23.84C13.68 22.7467 13.4267 21.7867 12.92 20.96C12.4133 20.1333 11.7067 19.36 10.8 18.64C9.89333 17.92 8.82667 17.1867 7.6 16.44C6.34667 15.64 5.17333 14.8267 4.08 14C2.98667 13.1733 2.10667 12.24 1.44 11.2C0.8 10.1333 0.48 8.85333 0.48 7.36C0.48 5.70667 0.88 4.36 1.68 3.32C2.48 2.25333 3.52 1.46667 4.8 0.959999C6.10667 0.453332 7.49333 0.199999 8.96 0.199999ZM43.1334 0.68C43.0268 1.77333 42.9468 2.84 42.8934 3.88C42.8668 4.89333 42.8534 5.66667 42.8534 6.2C42.8534 6.70667 42.8668 7.2 42.8934 7.68C42.9201 8.13333 42.9468 8.52 42.9734 8.84H42.0534C41.8401 7 41.4934 5.56 41.0134 4.52C40.5334 3.45333 39.8801 2.70667 39.0534 2.28C38.2534 1.82666 37.2001 1.6 35.8934 1.6H33.6934C32.8934 1.6 32.2801 1.66666 31.8534 1.8C31.4268 1.93333 31.1334 2.21333 30.9734 2.64C30.8401 3.06667 30.7734 3.72 30.7734 4.6V25.08C30.7734 25.9333 30.8401 26.5867 30.9734 27.04C31.1334 27.4667 31.4268 27.7467 31.8534 27.88C32.2801 28.0133 32.8934 28.08 33.6934 28.08H35.9734C37.3334 28.08 38.4668 27.8267 39.3734 27.32C40.3068 26.8133 41.0534 25.9867 41.6134 24.84C42.1734 23.6667 42.5868 22.0667 42.8534 20.04H43.7734C43.6934 20.8667 43.6534 21.9333 43.6534 23.24C43.6534 23.8 43.6668 24.6133 43.6934 25.68C43.7468 26.7467 43.8268 27.8533 43.9334 29C42.5734 28.9467 41.0401 28.92 39.3334 28.92C37.6268 28.8933 36.1068 28.88 34.7734 28.88C34.1601 28.88 33.3468 28.88 32.3334 28.88C31.3468 28.88 30.2668 28.8933 29.0934 28.92C27.9468 28.92 26.7734 28.9333 25.5734 28.96C24.4001 28.96 23.2801 28.9733 22.2134 29V28.2C23.0934 28.1467 23.7468 28.04 24.1734 27.88C24.6268 27.72 24.9201 27.4 25.0534 26.92C25.2134 26.44 25.2934 25.72 25.2934 24.76V4.92C25.2934 3.93333 25.2134 3.21333 25.0534 2.76C24.9201 2.28 24.6268 1.96 24.1734 1.8C23.7468 1.61333 23.0934 1.50667 22.2134 1.48V0.68C23.2801 0.706666 24.4001 0.733332 25.5734 0.759999C26.7734 0.759999 27.9468 0.773332 29.0934 0.799998C30.2668 0.799998 31.3468 0.799998 32.3334 0.799998C33.3468 0.799998 34.1601 0.799998 34.7734 0.799998C36.0001 0.799998 37.3868 0.799998 38.9334 0.799998C40.5068 0.773332 41.9068 0.733332 43.1334 0.68ZM36.6934 14.36C36.6934 14.36 36.6934 14.4933 36.6934 14.76C36.6934 15.0267 36.6934 15.16 36.6934 15.16H29.5734C29.5734 15.16 29.5734 15.0267 29.5734 14.76C29.5734 14.4933 29.5734 14.36 29.5734 14.36H36.6934ZM37.8534 9.08C37.7468 10.6 37.6934 11.76 37.6934 12.56C37.7201 13.36 37.7334 14.0933 37.7334 14.76C37.7334 15.4267 37.7468 16.16 37.7734 16.96C37.8001 17.76 37.8668 18.92 37.9734 20.44H37.0534C36.9201 19.5333 36.7068 18.68 36.4134 17.88C36.1468 17.0533 35.7068 16.4 35.0934 15.92C34.5068 15.4133 33.6534 15.16 32.5334 15.16V14.36C33.3601 14.36 34.0268 14.1867 34.5334 13.84C35.0668 13.4933 35.4934 13.0533 35.8134 12.52C36.1334 11.96 36.3734 11.3867 36.5334 10.8C36.7201 10.1867 36.8534 9.61333 36.9334 9.08H37.8534ZM47.2134 0.68C47.8801 0.706666 48.7334 0.733332 49.7734 0.759999C50.8134 0.786665 51.8534 0.799998 52.8934 0.799998C54.2001 0.799998 55.4401 0.786665 56.6134 0.759999C57.7868 0.733332 58.6134 0.719999 59.0934 0.719999C61.4934 0.719999 63.4668 1.01333 65.0134 1.6C66.5868 2.16 67.7601 2.96 68.5334 4C69.3068 5.04 69.6934 6.26667 69.6934 7.68C69.6934 8.56 69.5201 9.46667 69.1734 10.4C68.8268 11.3067 68.2268 12.1467 67.3734 12.92C66.5201 13.6933 65.3468 14.3333 63.8534 14.84C62.3868 15.32 60.5068 15.56 58.2134 15.56H54.3734V14.76H57.8134C59.4934 14.76 60.7734 14.4667 61.6534 13.88C62.5601 13.2667 63.1601 12.4667 63.4534 11.48C63.7734 10.4667 63.9334 9.34667 63.9334 8.12C63.9334 6.01333 63.5201 4.38667 62.6934 3.24C61.8668 2.06667 60.4401 1.48 58.4134 1.48C57.3201 1.48 56.6001 1.70667 56.2534 2.16C55.9334 2.61333 55.7734 3.53333 55.7734 4.92V24.76C55.7734 25.72 55.8534 26.44 56.0134 26.92C56.1734 27.4 56.4668 27.72 56.8934 27.88C57.3468 28.04 58.0001 28.1467 58.8534 28.2V29C58.1868 28.9467 57.3334 28.92 56.2934 28.92C55.2534 28.8933 54.2001 28.88 53.1334 28.88C51.9334 28.88 50.8134 28.8933 49.7734 28.92C48.7334 28.92 47.8801 28.9467 47.2134 29V28.2C48.0934 28.1467 48.7468 28.04 49.1734 27.88C49.6268 27.72 49.9201 27.4 50.0534 26.92C50.2134 26.44 50.2934 25.72 50.2934 24.76V4.92C50.2934 3.93333 50.2134 3.21333 50.0534 2.76C49.9201 2.28 49.6268 1.96 49.1734 1.8C48.7468 1.61333 48.0934 1.50667 47.2134 1.48V0.68ZM54.3734 14.88C55.6268 14.9333 56.6668 15 57.4934 15.08C58.3468 15.1333 59.0668 15.1867 59.6534 15.24C60.2668 15.2933 60.8134 15.36 61.2934 15.44C63.5068 15.6533 65.1334 16.1733 66.1734 17C67.2401 17.8 67.9468 19.0267 68.2934 20.68L69.2134 24.8C69.4534 25.8933 69.7068 26.68 69.9734 27.16C70.2668 27.6133 70.6801 27.8267 71.2134 27.8C71.5868 27.8 71.9068 27.7067 72.1734 27.52C72.4401 27.3067 72.7068 27.0267 72.9734 26.68L73.5334 27.16C72.8668 27.9867 72.1601 28.6 71.4134 29C70.6668 29.3733 69.7201 29.56 68.5734 29.56C67.2934 29.56 66.2134 29.2667 65.3334 28.68C64.4534 28.0667 63.8534 26.92 63.5334 25.24L62.7734 21.24C62.5601 20.12 62.3068 19.1333 62.0134 18.28C61.7468 17.4267 61.3734 16.76 60.8934 16.28C60.4134 15.8 59.7068 15.56 58.7734 15.56H54.4534L54.3734 14.88ZM98.5053 0.68V1.48C97.972 1.66666 97.3853 2.09333 96.7453 2.76C96.1053 3.4 95.532 4.41333 95.0253 5.8L86.2653 29.12C86.1053 29.12 85.932 29.1067 85.7453 29.08C85.5853 29.08 85.412 29.08 85.2253 29.08C85.0386 29.08 84.852 29.08 84.6653 29.08C84.5053 29.1067 84.3453 29.12 84.1853 29.12L74.1453 4.04C73.7453 3.05333 73.3053 2.38667 72.8253 2.04C72.372 1.69333 71.9453 1.50667 71.5453 1.48V0.68C72.2386 0.706666 73.0786 0.733332 74.0653 0.759999C75.0786 0.786665 76.0653 0.799998 77.0253 0.799998C78.1986 0.799998 79.292 0.786665 80.3053 0.759999C81.3453 0.733332 82.172 0.706666 82.7853 0.68V1.48C81.9053 1.50667 81.2253 1.61333 80.7453 1.8C80.292 1.96 80.0386 2.28 79.9853 2.76C79.932 3.21333 80.0786 3.90666 80.4253 4.84L87.7853 23.76L87.0253 24.68L93.0253 8.68C93.692 6.89333 94.0253 5.48 94.0253 4.44C94.0253 3.4 93.732 2.65333 93.1453 2.2C92.5586 1.74667 91.7186 1.50667 90.6253 1.48V0.68C91.5053 0.706666 92.332 0.733332 93.1053 0.759999C93.9053 0.786665 94.692 0.799998 95.4653 0.799998C96.1053 0.799998 96.6653 0.786665 97.1453 0.759999C97.652 0.733332 98.1053 0.706666 98.5053 0.68ZM111.236 0.68V1.48C110.383 1.50667 109.73 1.61333 109.276 1.8C108.85 1.96 108.556 2.28 108.396 2.76C108.236 3.21333 108.156 3.93333 108.156 4.92V24.76C108.156 25.72 108.236 26.44 108.396 26.92C108.556 27.4 108.85 27.72 109.276 27.88C109.73 28.04 110.383 28.1467 111.236 28.2V29C110.57 28.9467 109.716 28.92 108.676 28.92C107.636 28.8933 106.583 28.88 105.516 28.88C104.316 28.88 103.196 28.8933 102.156 28.92C101.116 28.92 100.263 28.9467 99.5963 29V28.2C100.476 28.1467 101.13 28.04 101.556 27.88C102.01 27.72 102.303 27.4 102.436 26.92C102.596 26.44 102.676 25.72 102.676 24.76V4.92C102.676 3.93333 102.596 3.21333 102.436 2.76C102.303 2.28 102.01 1.96 101.556 1.8C101.13 1.61333 100.476 1.50667 99.5963 1.48V0.68C100.263 0.706666 101.116 0.733332 102.156 0.759999C103.196 0.786665 104.316 0.799998 105.516 0.799998C106.583 0.799998 107.636 0.786665 108.676 0.759999C109.716 0.733332 110.57 0.706666 111.236 0.68ZM127.934 0.119998C129.694 0.119998 131.134 0.386665 132.254 0.919999C133.401 1.42667 134.414 2.02667 135.294 2.72C135.827 3.12 136.227 3.17333 136.494 2.88C136.787 2.56 136.987 1.82667 137.094 0.68H138.014C137.961 1.69333 137.921 2.93333 137.894 4.4C137.867 5.86667 137.854 7.8 137.854 10.2H136.934C136.774 9 136.601 8 136.414 7.2C136.227 6.37333 135.961 5.66667 135.614 5.08C135.294 4.49333 134.841 3.93333 134.254 3.4C133.534 2.6 132.667 2.01333 131.654 1.64C130.667 1.24 129.627 1.04 128.534 1.04C127.147 1.04 125.934 1.41333 124.894 2.16C123.881 2.88 123.027 3.88 122.334 5.16C121.667 6.41333 121.161 7.88 120.814 9.56C120.494 11.24 120.334 13.0267 120.334 14.92C120.334 16.8667 120.507 18.68 120.854 20.36C121.227 22.0133 121.761 23.4667 122.454 24.72C123.174 25.9467 124.054 26.9067 125.094 27.6C126.161 28.2933 127.387 28.64 128.774 28.64C129.761 28.64 130.774 28.4533 131.814 28.08C132.854 27.7067 133.707 27.1333 134.374 26.36C135.254 25.56 135.854 24.6133 136.174 23.52C136.494 22.4 136.747 20.92 136.934 19.08H137.854C137.854 21.5867 137.867 23.6133 137.894 25.16C137.921 26.68 137.961 27.96 138.014 29H137.094C136.987 27.8533 136.801 27.1333 136.534 26.84C136.294 26.5467 135.881 26.5867 135.294 26.96C134.307 27.6533 133.254 28.2667 132.134 28.8C131.041 29.3067 129.627 29.56 127.894 29.56C125.174 29.56 122.787 28.9867 120.734 27.84C118.681 26.6933 117.081 25.04 115.934 22.88C114.814 20.72 114.254 18.12 114.254 15.08C114.254 12.0933 114.841 9.48 116.014 7.24C117.187 5 118.801 3.25333 120.854 2C122.907 0.746665 125.267 0.119998 127.934 0.119998ZM162.782 0.68C162.675 1.77333 162.595 2.84 162.542 3.88C162.515 4.89333 162.502 5.66667 162.502 6.2C162.502 6.70667 162.515 7.2 162.542 7.68C162.569 8.13333 162.595 8.52 162.622 8.84H161.702C161.489 7 161.142 5.56 160.662 4.52C160.182 3.45333 159.529 2.70667 158.702 2.28C157.902 1.82666 156.849 1.6 155.542 1.6H153.342C152.542 1.6 151.929 1.66666 151.502 1.8C151.075 1.93333 150.782 2.21333 150.622 2.64C150.489 3.06667 150.422 3.72 150.422 4.6V25.08C150.422 25.9333 150.489 26.5867 150.622 27.04C150.782 27.4667 151.075 27.7467 151.502 27.88C151.929 28.0133 152.542 28.08 153.342 28.08H155.622C156.982 28.08 158.115 27.8267 159.022 27.32C159.955 26.8133 160.702 25.9867 161.262 24.84C161.822 23.6667 162.235 22.0667 162.502 20.04H163.422C163.342 20.8667 163.302 21.9333 163.302 23.24C163.302 23.8 163.315 24.6133 163.342 25.68C163.395 26.7467 163.475 27.8533 163.582 29C162.222 28.9467 160.689 28.92 158.982 28.92C157.275 28.8933 155.755 28.88 154.422 28.88C153.809 28.88 152.995 28.88 151.982 28.88C150.995 28.88 149.915 28.8933 148.742 28.92C147.595 28.92 146.422 28.9333 145.222 28.96C144.049 28.96 142.929 28.9733 141.862 29V28.2C142.742 28.1467 143.395 28.04 143.822 27.88C144.275 27.72 144.569 27.4 144.702 26.92C144.862 26.44 144.942 25.72 144.942 24.76V4.92C144.942 3.93333 144.862 3.21333 144.702 2.76C144.569 2.28 144.275 1.96 143.822 1.8C143.395 1.61333 142.742 1.50667 141.862 1.48V0.68C142.929 0.706666 144.049 0.733332 145.222 0.759999C146.422 0.759999 147.595 0.773332 148.742 0.799998C149.915 0.799998 150.995 0.799998 151.982 0.799998C152.995 0.799998 153.809 0.799998 154.422 0.799998C155.649 0.799998 157.035 0.799998 158.582 0.799998C160.155 0.773332 161.555 0.733332 162.782 0.68ZM156.342 14.36C156.342 14.36 156.342 14.4933 156.342 14.76C156.342 15.0267 156.342 15.16 156.342 15.16H149.222C149.222 15.16 149.222 15.0267 149.222 14.76C149.222 14.4933 149.222 14.36 149.222 14.36H156.342ZM157.502 9.08C157.395 10.6 157.342 11.76 157.342 12.56C157.369 13.36 157.382 14.0933 157.382 14.76C157.382 15.4267 157.395 16.16 157.422 16.96C157.449 17.76 157.515 18.92 157.622 20.44H156.702C156.569 19.5333 156.355 18.68 156.062 17.88C155.795 17.0533 155.355 16.4 154.742 15.92C154.155 15.4133 153.302 15.16 152.182 15.16V14.36C153.009 14.36 153.675 14.1867 154.182 13.84C154.715 13.4933 155.142 13.0533 155.462 12.52C155.782 11.96 156.022 11.3867 156.182 10.8C156.369 10.1867 156.502 9.61333 156.582 9.08H157.502ZM176.382 0.199999C177.875 0.199999 179.022 0.359999 179.822 0.68C180.622 0.999999 181.315 1.34667 181.902 1.72C182.222 1.90667 182.475 2.05333 182.662 2.16C182.875 2.24 183.075 2.28 183.262 2.28C183.529 2.28 183.715 2.13333 183.822 1.84C183.955 1.54666 184.062 1.10666 184.142 0.52H185.062C185.035 1.02667 184.995 1.61333 184.942 2.28C184.915 2.94667 184.889 3.84 184.862 4.96C184.862 6.05333 184.862 7.50667 184.862 9.32H183.942C183.862 7.96 183.555 6.65333 183.022 5.4C182.515 4.14667 181.782 3.12 180.822 2.32C179.889 1.49333 178.689 1.08 177.222 1.08C175.915 1.08 174.822 1.46667 173.942 2.24C173.089 3.01333 172.662 4.05333 172.662 5.36C172.662 6.48 172.942 7.42667 173.502 8.2C174.062 8.94667 174.849 9.68 175.862 10.4C176.902 11.0933 178.129 11.8933 179.542 12.8C180.849 13.6533 182.022 14.5067 183.062 15.36C184.102 16.1867 184.915 17.1067 185.502 18.12C186.115 19.1333 186.422 20.3733 186.422 21.84C186.422 23.5733 185.995 25.0133 185.142 26.16C184.289 27.3067 183.142 28.16 181.702 28.72C180.262 29.28 178.689 29.56 176.982 29.56C175.409 29.56 174.155 29.4 173.222 29.08C172.315 28.76 171.529 28.4267 170.862 28.08C170.275 27.7067 169.822 27.52 169.502 27.52C169.235 27.52 169.035 27.6667 168.902 27.96C168.795 28.2533 168.702 28.6933 168.622 29.28H167.702C167.755 28.6667 167.782 27.9467 167.782 27.12C167.809 26.2933 167.822 25.2267 167.822 23.92C167.849 22.5867 167.862 20.9067 167.862 18.88H168.782C168.889 20.5867 169.182 22.1867 169.662 23.68C170.169 25.1467 170.929 26.3333 171.942 27.24C172.982 28.1467 174.355 28.6 176.062 28.6C176.995 28.6 177.835 28.44 178.582 28.12C179.355 27.7733 179.969 27.2533 180.422 26.56C180.875 25.84 181.102 24.9333 181.102 23.84C181.102 22.7467 180.849 21.7867 180.342 20.96C179.835 20.1333 179.129 19.36 178.222 18.64C177.315 17.92 176.249 17.1867 175.022 16.44C173.769 15.64 172.595 14.8267 171.502 14C170.409 13.1733 169.529 12.24 168.862 11.2C168.222 10.1333 167.902 8.85333 167.902 7.36C167.902 5.70667 168.302 4.36 169.102 3.32C169.902 2.25333 170.942 1.46667 172.222 0.959999C173.529 0.453332 174.915 0.199999 176.382 0.199999ZM210.686 0.719999C211.699 0.719999 212.526 0.813332 213.166 0.999998C213.806 1.16 214.366 1.37333 214.846 1.64C215.219 1.85333 215.566 2.12 215.886 2.44C216.206 2.76 216.459 3.10667 216.646 3.48C216.832 3.85333 216.926 4.26667 216.926 4.72C216.926 5.49333 216.646 6.10667 216.086 6.56C215.526 7.01333 214.872 7.24 214.126 7.24C213.432 7.24 212.819 7.04 212.286 6.64C211.779 6.24 211.526 5.66667 211.526 4.92C211.526 4.25333 211.739 3.68 212.166 3.2C212.619 2.69333 213.206 2.37333 213.926 2.24C213.739 2 213.392 1.8 212.886 1.64C212.406 1.45333 211.832 1.36 211.166 1.36C209.779 1.36 208.619 1.78666 207.686 2.64C206.752 3.49333 206.286 4.76 206.286 6.44C206.286 7.08 206.392 7.77333 206.606 8.52C206.846 9.24 207.312 9.96 208.006 10.68C208.459 10.5733 208.886 10.5067 209.286 10.48C209.712 10.4267 210.059 10.4 210.326 10.4C210.806 10.4 211.179 10.4933 211.446 10.68C211.712 10.84 211.846 11.08 211.846 11.4C211.846 11.6667 211.739 11.8667 211.526 12C211.312 12.1333 211.046 12.2 210.726 12.2C210.246 12.2 209.752 12.08 209.246 11.84C208.739 11.6 208.339 11.4 208.046 11.24C206.686 11.8 205.579 12.5867 204.726 13.6C203.899 14.6133 203.486 15.9867 203.486 17.72C203.486 19.5067 203.952 21 204.886 22.2C205.846 23.4 207.179 24.3067 208.886 24.92C210.592 25.5067 212.566 25.8 214.806 25.8C216.166 25.8 217.486 25.6533 218.766 25.36C220.072 25.04 221.246 24.5733 222.286 23.96C223.326 23.3467 224.152 22.6133 224.766 21.76C225.379 20.88 225.686 19.8667 225.686 18.72C225.686 18.2667 225.606 17.6933 225.446 17C225.286 16.3067 224.939 15.6133 224.406 14.92C223.872 14.2267 223.046 13.6667 221.926 13.24L222.246 12.88C223.846 13.36 225.032 14.24 225.806 15.52C226.606 16.7733 227.006 18.2133 227.006 19.84C227.006 21.6 226.459 23.2267 225.366 24.72C224.272 26.1867 222.726 27.36 220.726 28.24C218.752 29.12 216.419 29.56 213.726 29.56C211.672 29.56 209.779 29.3333 208.046 28.88C206.339 28.4267 204.846 27.7733 203.566 26.92C202.312 26.04 201.339 24.9867 200.646 23.76C199.952 22.5333 199.606 21.1467 199.606 19.6C199.606 18.1333 199.899 16.88 200.486 15.84C201.072 14.8 201.806 13.9467 202.686 13.28C203.566 12.5867 204.446 12.0533 205.326 11.68C206.206 11.3067 206.926 11.0533 207.486 10.92C206.632 10.5733 205.872 10.16 205.206 9.68C204.539 9.17333 204.019 8.6 203.646 7.96C203.299 7.29333 203.126 6.58667 203.126 5.84C203.126 5.04 203.312 4.33333 203.686 3.72C204.086 3.08 204.632 2.53333 205.326 2.08C206.019 1.62666 206.819 1.29333 207.726 1.08C208.632 0.839999 209.619 0.719999 210.686 0.719999ZM226.006 0.119998C227.792 0.119998 229.272 0.613331 230.446 1.6C231.619 2.56 232.206 3.92 232.206 5.68C232.206 6.90667 231.926 7.94667 231.366 8.8C230.806 9.65333 230.019 10.3733 229.006 10.96C228.019 11.52 226.859 11.9733 225.526 12.32C225.046 12.5067 224.459 12.7067 223.766 12.92C223.072 13.1333 222.326 13.36 221.526 13.6C220.752 13.8133 220.006 14.0267 219.286 14.24C218.592 14.4533 218.006 14.6533 217.526 14.84C215.846 15.2667 214.512 15.76 213.526 16.32C212.539 16.8533 212.046 17.6 212.046 18.56C212.046 19.2267 212.259 19.8133 212.686 20.32C213.112 20.8 213.646 21.16 214.286 21.4C214.926 21.64 215.552 21.76 216.166 21.76C216.352 21.76 216.579 21.7467 216.846 21.72C217.112 21.6667 217.352 21.6 217.566 21.52C217.806 21.44 217.966 21.3333 218.046 21.2C217.459 21.04 216.979 20.76 216.606 20.36C216.232 19.96 216.046 19.44 216.046 18.8C216.046 18.0267 216.326 17.4267 216.886 17C217.446 16.5733 218.126 16.36 218.926 16.36C219.779 16.36 220.446 16.5867 220.926 17.04C221.432 17.4933 221.686 18.1067 221.686 18.88C221.686 19.68 221.432 20.3467 220.926 20.88C220.419 21.4133 219.752 21.8133 218.926 22.08C218.126 22.32 217.259 22.44 216.326 22.44C215.366 22.44 214.459 22.2667 213.606 21.92C212.752 21.5467 212.059 21 211.526 20.28C210.992 19.56 210.726 18.6133 210.726 17.44C210.726 16.2133 211.032 15.16 211.646 14.28C212.259 13.4 213.139 12.6667 214.286 12.08C215.459 11.4667 216.859 10.9733 218.486 10.6C219.126 10.4133 219.859 10.2133 220.686 10C221.539 9.78667 222.406 9.56 223.286 9.32C224.166 9.05333 224.992 8.77333 225.766 8.48C227.472 7.97333 228.752 7.41333 229.606 6.8C230.459 6.18667 230.886 5.44 230.886 4.56C230.886 3.81333 230.672 3.16 230.246 2.6C229.819 2.04 229.259 1.6 228.566 1.28C227.872 0.959999 227.126 0.799998 226.326 0.799998C226.059 0.799998 225.819 0.826665 225.606 0.88C225.419 0.906666 225.286 0.959999 225.206 1.04C225.739 1.28 226.139 1.61333 226.406 2.04C226.699 2.46666 226.846 2.90666 226.846 3.36C226.846 4.08 226.566 4.65333 226.006 5.08C225.472 5.50667 224.806 5.72 224.006 5.72C223.232 5.72 222.566 5.50667 222.006 5.08C221.472 4.65333 221.206 4.05333 221.206 3.28C221.206 2.58667 221.419 2 221.846 1.52C222.272 1.04 222.846 0.693331 223.566 0.479998C224.312 0.239998 225.126 0.119998 226.006 0.119998ZM243.854 0.68C244.521 0.706666 245.374 0.733332 246.414 0.759999C247.454 0.786665 248.494 0.799998 249.534 0.799998C250.841 0.799998 252.081 0.786665 253.254 0.759999C254.427 0.733332 255.254 0.719999 255.734 0.719999C259.307 0.719999 261.961 1.45333 263.694 2.92C265.454 4.38667 266.334 6.28 266.334 8.6C266.334 9.56 266.161 10.5733 265.814 11.64C265.467 12.68 264.867 13.6533 264.014 14.56C263.161 15.44 261.987 16.16 260.494 16.72C259.027 17.28 257.147 17.56 254.854 17.56H250.854V16.76H254.454C256.134 16.76 257.414 16.4 258.294 15.68C259.201 14.96 259.801 14.0133 260.094 12.84C260.414 11.6667 260.574 10.4 260.574 9.04C260.574 6.50667 260.161 4.61333 259.334 3.36C258.507 2.10667 257.081 1.48 255.054 1.48C253.961 1.48 253.241 1.70667 252.894 2.16C252.574 2.61333 252.414 3.53333 252.414 4.92V24.6C252.414 25.6133 252.521 26.3733 252.734 26.88C252.947 27.3867 253.361 27.72 253.974 27.88C254.587 28.04 255.467 28.1333 256.614 28.16V29C255.841 28.9467 254.841 28.92 253.614 28.92C252.387 28.8933 251.121 28.88 249.814 28.88C248.694 28.88 247.614 28.8933 246.574 28.92C245.534 28.92 244.627 28.9467 243.854 29V28.2C244.734 28.1467 245.387 28.04 245.814 27.88C246.267 27.72 246.561 27.4 246.694 26.92C246.854 26.44 246.934 25.72 246.934 24.76V4.92C246.934 3.93333 246.854 3.21333 246.694 2.76C246.561 2.28 246.267 1.96 245.814 1.8C245.387 1.61333 244.734 1.50667 243.854 1.48V0.68ZM268.62 0.68C269.286 0.706666 270.14 0.733332 271.18 0.759999C272.22 0.786665 273.26 0.799998 274.3 0.799998C275.606 0.799998 276.846 0.786665 278.02 0.759999C279.193 0.733332 280.02 0.719999 280.5 0.719999C282.9 0.719999 284.873 1.01333 286.42 1.6C287.993 2.16 289.166 2.96 289.94 4C290.713 5.04 291.1 6.26667 291.1 7.68C291.1 8.56 290.926 9.46667 290.58 10.4C290.233 11.3067 289.633 12.1467 288.78 12.92C287.926 13.6933 286.753 14.3333 285.26 14.84C283.793 15.32 281.913 15.56 279.62 15.56H275.78V14.76H279.22C280.9 14.76 282.18 14.4667 283.06 13.88C283.966 13.2667 284.566 12.4667 284.86 11.48C285.18 10.4667 285.34 9.34667 285.34 8.12C285.34 6.01333 284.926 4.38667 284.1 3.24C283.273 2.06667 281.846 1.48 279.82 1.48C278.726 1.48 278.006 1.70667 277.66 2.16C277.34 2.61333 277.18 3.53333 277.18 4.92V24.76C277.18 25.72 277.26 26.44 277.42 26.92C277.58 27.4 277.873 27.72 278.3 27.88C278.753 28.04 279.406 28.1467 280.26 28.2V29C279.593 28.9467 278.74 28.92 277.7 28.92C276.66 28.8933 275.606 28.88 274.54 28.88C273.34 28.88 272.22 28.8933 271.18 28.92C270.14 28.92 269.286 28.9467 268.62 29V28.2C269.5 28.1467 270.153 28.04 270.58 27.88C271.033 27.72 271.326 27.4 271.46 26.92C271.62 26.44 271.7 25.72 271.7 24.76V4.92C271.7 3.93333 271.62 3.21333 271.46 2.76C271.326 2.28 271.033 1.96 270.58 1.8C270.153 1.61333 269.5 1.50667 268.62 1.48V0.68ZM275.78 14.88C277.033 14.9333 278.073 15 278.9 15.08C279.753 15.1333 280.473 15.1867 281.06 15.24C281.673 15.2933 282.22 15.36 282.7 15.44C284.913 15.6533 286.54 16.1733 287.58 17C288.646 17.8 289.353 19.0267 289.7 20.68L290.62 24.8C290.86 25.8933 291.113 26.68 291.38 27.16C291.673 27.6133 292.086 27.8267 292.62 27.8C292.993 27.8 293.313 27.7067 293.58 27.52C293.846 27.3067 294.113 27.0267 294.38 26.68L294.94 27.16C294.273 27.9867 293.566 28.6 292.82 29C292.073 29.3733 291.126 29.56 289.98 29.56C288.7 29.56 287.62 29.2667 286.74 28.68C285.86 28.0667 285.26 26.92 284.94 25.24L284.18 21.24C283.966 20.12 283.713 19.1333 283.42 18.28C283.153 17.4267 282.78 16.76 282.3 16.28C281.82 15.8 281.113 15.56 280.18 15.56H275.86L275.78 14.88ZM307.33 0.68V1.48C306.477 1.50667 305.823 1.61333 305.37 1.8C304.943 1.96 304.65 2.28 304.49 2.76C304.33 3.21333 304.25 3.93333 304.25 4.92V24.76C304.25 25.72 304.33 26.44 304.49 26.92C304.65 27.4 304.943 27.72 305.37 27.88C305.823 28.04 306.477 28.1467 307.33 28.2V29C306.663 28.9467 305.81 28.92 304.77 28.92C303.73 28.8933 302.677 28.88 301.61 28.88C300.41 28.88 299.29 28.8933 298.25 28.92C297.21 28.92 296.357 28.9467 295.69 29V28.2C296.57 28.1467 297.223 28.04 297.65 27.88C298.103 27.72 298.397 27.4 298.53 26.92C298.69 26.44 298.77 25.72 298.77 24.76V4.92C298.77 3.93333 298.69 3.21333 298.53 2.76C298.397 2.28 298.103 1.96 297.65 1.8C297.223 1.61333 296.57 1.50667 295.69 1.48V0.68C296.357 0.706666 297.21 0.733332 298.25 0.759999C299.29 0.786665 300.41 0.799998 301.61 0.799998C302.677 0.799998 303.73 0.786665 304.77 0.759999C305.81 0.733332 306.663 0.706666 307.33 0.68ZM324.028 0.119998C325.788 0.119998 327.228 0.386665 328.348 0.919999C329.494 1.42667 330.508 2.02667 331.388 2.72C331.921 3.12 332.321 3.17333 332.588 2.88C332.881 2.56 333.081 1.82667 333.188 0.68H334.108C334.054 1.69333 334.014 2.93333 333.988 4.4C333.961 5.86667 333.948 7.8 333.948 10.2H333.028C332.868 9 332.694 8 332.508 7.2C332.321 6.37333 332.054 5.66667 331.708 5.08C331.388 4.49333 330.934 3.93333 330.348 3.4C329.628 2.6 328.761 2.01333 327.748 1.64C326.761 1.24 325.721 1.04 324.628 1.04C323.241 1.04 322.028 1.41333 320.988 2.16C319.974 2.88 319.121 3.88 318.428 5.16C317.761 6.41333 317.254 7.88 316.908 9.56C316.588 11.24 316.428 13.0267 316.428 14.92C316.428 16.8667 316.601 18.68 316.948 20.36C317.321 22.0133 317.854 23.4667 318.548 24.72C319.268 25.9467 320.148 26.9067 321.188 27.6C322.254 28.2933 323.481 28.64 324.868 28.64C325.854 28.64 326.868 28.4533 327.908 28.08C328.948 27.7067 329.801 27.1333 330.468 26.36C331.348 25.56 331.948 24.6133 332.268 23.52C332.588 22.4 332.841 20.92 333.028 19.08H333.948C333.948 21.5867 333.961 23.6133 333.988 25.16C334.014 26.68 334.054 27.96 334.108 29H333.188C333.081 27.8533 332.894 27.1333 332.628 26.84C332.388 26.5467 331.974 26.5867 331.388 26.96C330.401 27.6533 329.348 28.2667 328.228 28.8C327.134 29.3067 325.721 29.56 323.988 29.56C321.268 29.56 318.881 28.9867 316.828 27.84C314.774 26.6933 313.174 25.04 312.028 22.88C310.908 20.72 310.348 18.12 310.348 15.08C310.348 12.0933 310.934 9.48 312.108 7.24C313.281 5 314.894 3.25333 316.948 2C319.001 0.746665 321.361 0.119998 324.028 0.119998ZM358.876 0.68C358.769 1.77333 358.689 2.84 358.636 3.88C358.609 4.89333 358.596 5.66667 358.596 6.2C358.596 6.70667 358.609 7.2 358.636 7.68C358.662 8.13333 358.689 8.52 358.716 8.84H357.796C357.582 7 357.236 5.56 356.756 4.52C356.276 3.45333 355.622 2.70667 354.796 2.28C353.996 1.82666 352.942 1.6 351.636 1.6H349.436C348.636 1.6 348.022 1.66666 347.596 1.8C347.169 1.93333 346.876 2.21333 346.716 2.64C346.582 3.06667 346.516 3.72 346.516 4.6V25.08C346.516 25.9333 346.582 26.5867 346.716 27.04C346.876 27.4667 347.169 27.7467 347.596 27.88C348.022 28.0133 348.636 28.08 349.436 28.08H351.716C353.076 28.08 354.209 27.8267 355.116 27.32C356.049 26.8133 356.796 25.9867 357.356 24.84C357.916 23.6667 358.329 22.0667 358.596 20.04H359.516C359.436 20.8667 359.396 21.9333 359.396 23.24C359.396 23.8 359.409 24.6133 359.436 25.68C359.489 26.7467 359.569 27.8533 359.676 29C358.316 28.9467 356.782 28.92 355.076 28.92C353.369 28.8933 351.849 28.88 350.516 28.88C349.902 28.88 349.089 28.88 348.076 28.88C347.089 28.88 346.009 28.8933 344.836 28.92C343.689 28.92 342.516 28.9333 341.316 28.96C340.142 28.96 339.022 28.9733 337.956 29V28.2C338.836 28.1467 339.489 28.04 339.916 27.88C340.369 27.72 340.662 27.4 340.796 26.92C340.956 26.44 341.036 25.72 341.036 24.76V4.92C341.036 3.93333 340.956 3.21333 340.796 2.76C340.662 2.28 340.369 1.96 339.916 1.8C339.489 1.61333 338.836 1.50667 337.956 1.48V0.68C339.022 0.706666 340.142 0.733332 341.316 0.759999C342.516 0.759999 343.689 0.773332 344.836 0.799998C346.009 0.799998 347.089 0.799998 348.076 0.799998C349.089 0.799998 349.902 0.799998 350.516 0.799998C351.742 0.799998 353.129 0.799998 354.676 0.799998C356.249 0.773332 357.649 0.733332 358.876 0.68ZM352.436 14.36C352.436 14.36 352.436 14.4933 352.436 14.76C352.436 15.0267 352.436 15.16 352.436 15.16H345.316C345.316 15.16 345.316 15.0267 345.316 14.76C345.316 14.4933 345.316 14.36 345.316 14.36H352.436ZM353.596 9.08C353.489 10.6 353.436 11.76 353.436 12.56C353.462 13.36 353.476 14.0933 353.476 14.76C353.476 15.4267 353.489 16.16 353.516 16.96C353.542 17.76 353.609 18.92 353.716 20.44H352.796C352.662 19.5333 352.449 18.68 352.156 17.88C351.889 17.0533 351.449 16.4 350.836 15.92C350.249 15.4133 349.396 15.16 348.276 15.16V14.36C349.102 14.36 349.769 14.1867 350.276 13.84C350.809 13.4933 351.236 13.0533 351.556 12.52C351.876 11.96 352.116 11.3867 352.276 10.8C352.462 10.1867 352.596 9.61333 352.676 9.08H353.596ZM372.476 0.199999C373.969 0.199999 375.116 0.359999 375.916 0.68C376.716 0.999999 377.409 1.34667 377.996 1.72C378.316 1.90667 378.569 2.05333 378.756 2.16C378.969 2.24 379.169 2.28 379.356 2.28C379.622 2.28 379.809 2.13333 379.916 1.84C380.049 1.54666 380.156 1.10666 380.236 0.52H381.156C381.129 1.02667 381.089 1.61333 381.036 2.28C381.009 2.94667 380.982 3.84 380.956 4.96C380.956 6.05333 380.956 7.50667 380.956 9.32H380.036C379.956 7.96 379.649 6.65333 379.116 5.4C378.609 4.14667 377.876 3.12 376.916 2.32C375.982 1.49333 374.782 1.08 373.316 1.08C372.009 1.08 370.916 1.46667 370.036 2.24C369.182 3.01333 368.756 4.05333 368.756 5.36C368.756 6.48 369.036 7.42667 369.596 8.2C370.156 8.94667 370.942 9.68 371.956 10.4C372.996 11.0933 374.222 11.8933 375.636 12.8C376.942 13.6533 378.116 14.5067 379.156 15.36C380.196 16.1867 381.009 17.1067 381.596 18.12C382.209 19.1333 382.516 20.3733 382.516 21.84C382.516 23.5733 382.089 25.0133 381.236 26.16C380.382 27.3067 379.236 28.16 377.796 28.72C376.356 29.28 374.782 29.56 373.076 29.56C371.502 29.56 370.249 29.4 369.316 29.08C368.409 28.76 367.622 28.4267 366.956 28.08C366.369 27.7067 365.916 27.52 365.596 27.52C365.329 27.52 365.129 27.6667 364.996 27.96C364.889 28.2533 364.796 28.6933 364.716 29.28H363.796C363.849 28.6667 363.876 27.9467 363.876 27.12C363.902 26.2933 363.916 25.2267 363.916 23.92C363.942 22.5867 363.956 20.9067 363.956 18.88H364.876C364.982 20.5867 365.276 22.1867 365.756 23.68C366.262 25.1467 367.022 26.3333 368.036 27.24C369.076 28.1467 370.449 28.6 372.156 28.6C373.089 28.6 373.929 28.44 374.676 28.12C375.449 27.7733 376.062 27.2533 376.516 26.56C376.969 25.84 377.196 24.9333 377.196 23.84C377.196 22.7467 376.942 21.7867 376.436 20.96C375.929 20.1333 375.222 19.36 374.316 18.64C373.409 17.92 372.342 17.1867 371.116 16.44C369.862 15.64 368.689 14.8267 367.596 14C366.502 13.1733 365.622 12.24 364.956 11.2C364.316 10.1333 363.996 8.85333 363.996 7.36C363.996 5.70667 364.396 4.36 365.196 3.32C365.996 2.25333 367.036 1.46667 368.316 0.959999C369.622 0.453332 371.009 0.199999 372.476 0.199999Z" fill="#D8B192"/>
</svg>
