<svg width="56" height="39" viewBox="0 0 56 39" fill="none" xmlns="http://www.w3.org/2000/svg">
<path d="M38.047 10.1209C37.6637 9.75335 37.249 9.42471 36.8082 9.13922C36.1121 8.6721 35.3811 8.26648 34.6225 7.92642C33.7178 7.51383 32.784 7.17729 31.8298 6.9199C30.83 6.64522 29.8014 6.50659 28.7687 6.50734C27.3191 6.39479 25.8732 6.77438 24.6396 7.5914C24.1954 7.94179 23.8391 8.40283 23.602 8.93396C23.3649 9.46509 23.2542 10.05 23.2797 10.6373C23.2557 11.3073 23.4347 11.9678 23.7903 12.5216C24.1863 13.0715 24.6921 13.5212 25.2713 13.8383C26.0522 14.2738 26.8744 14.62 27.724 14.8711C28.7114 15.1813 29.8529 15.5085 31.1485 15.8528C32.8341 16.3316 34.3651 16.8481 35.7415 17.402C37.0045 17.8855 38.1856 18.5831 39.2389 19.4677C40.1757 20.2687 40.9311 21.2831 41.4494 22.4361C42.0036 23.777 42.2692 25.2324 42.2271 26.6962C42.2727 28.4403 41.9129 30.1694 41.1796 31.7303C40.5139 33.0868 39.5444 34.2484 38.3566 35.1127C37.1159 36.0003 35.7328 36.6389 34.2757 36.997C32.6923 37.3985 31.0696 37.5979 29.4418 37.5909C26.8396 37.589 24.2524 37.1713 21.767 36.3518C19.3399 35.5752 17.0456 34.3898 14.9718 32.8407L17.9352 26.6962C18.4203 27.1578 18.9494 27.5642 19.5139 27.909C20.3821 28.4682 21.2827 28.9685 22.2102 29.4071C23.3232 29.9346 24.4773 30.358 25.6595 30.6726C26.93 31.0174 28.2364 31.1904 29.5478 31.1875C33.2402 31.1875 35.0863 29.9313 35.0863 27.4189C35.1058 26.6897 34.8821 25.9767 34.4546 25.4059C33.9586 24.794 33.3459 24.3013 32.657 23.9605C31.7509 23.4952 30.8081 23.1153 29.8396 22.8252C28.7384 22.4809 27.508 22.1025 26.1481 21.69C24.678 21.2759 23.2382 20.7489 21.84 20.1129C20.7365 19.6163 19.7144 18.9363 18.8119 18.0984C18.025 17.358 17.4026 16.441 16.9896 15.4139C16.5602 14.256 16.3537 13.0182 16.3826 11.774C16.3528 10.0653 16.6849 8.37133 17.3543 6.8175C17.9763 5.40596 18.8996 4.16816 20.0507 3.20251C21.247 2.21301 22.6062 1.46885 24.0587 1.00807C25.6497 0.498137 27.3038 0.245628 28.9655 0.25903C31.2507 0.232383 33.5217 0.6432 35.6699 1.47183C37.5527 2.19595 39.3466 3.15817 41.0131 4.33777L38.047 10.1209Z" fill="#354052"/>
<path d="M5.25584 38.1234C7.93844 38.1234 10.1131 35.812 10.1131 32.9606C10.1131 30.1093 7.93844 27.7979 5.25584 27.7979C2.57324 27.7979 0.39856 30.1093 0.39856 32.9606C0.39856 35.812 2.57324 38.1234 5.25584 38.1234Z" fill="#FFA101"/>
<path d="M50.5954 38.1234C53.278 38.1234 55.4527 35.812 55.4527 32.9606C55.4527 30.1093 53.278 27.7979 50.5954 27.7979C47.9128 27.7979 45.7382 30.1093 45.7382 32.9606C45.7382 35.812 47.9128 38.1234 50.5954 38.1234Z" fill="#FFA101"/>
</svg>
