<svg
    width="149"
    height="32"
    viewBox="0 0 149 32"
    fill="none"
    xmlns="http://www.w3.org/2000/svg"
>
    <path
        d="M9.10063 2.2C10.594 2.2 11.7406 2.36 12.5406 2.68C13.3406 3 14.034 3.34667 14.6206 3.72C14.9406 3.90667 15.194 4.05333 15.3806 4.16C15.594 4.24 15.794 4.28 15.9806 4.28C16.2473 4.28 16.434 4.13333 16.5406 3.84C16.674 3.54666 16.7806 3.10666 16.8606 2.52H17.7806C17.754 3.02667 17.714 3.61333 17.6606 4.28C17.634 4.94667 17.6073 5.84 17.5806 6.96C17.5806 8.05333 17.5806 9.50667 17.5806 11.32H16.6606C16.5806 9.96 16.274 8.65333 15.7406 7.4C15.234 6.14667 14.5006 5.12 13.5406 4.32C12.6073 3.49333 11.4073 3.08 9.94063 3.08C8.63396 3.08 7.54063 3.46667 6.66063 4.24C5.80729 5.01333 5.38063 6.05333 5.38063 7.36C5.38063 8.48 5.66063 9.42667 6.22063 10.2C6.78063 10.9467 7.56729 11.68 8.58063 12.4C9.62063 13.0933 10.8473 13.8933 12.2606 14.8C13.5673 15.6533 14.7406 16.5067 15.7806 17.36C16.8206 18.1867 17.634 19.1067 18.2206 20.12C18.834 21.1333 19.1406 22.3733 19.1406 23.84C19.1406 25.5733 18.714 27.0133 17.8606 28.16C17.0073 29.3067 15.8606 30.16 14.4206 30.72C12.9806 31.28 11.4073 31.56 9.70063 31.56C8.12729 31.56 6.87396 31.4 5.94063 31.08C5.03396 30.76 4.24729 30.4267 3.58063 30.08C2.99396 29.7067 2.54063 29.52 2.22063 29.52C1.95396 29.52 1.75396 29.6667 1.62063 29.96C1.51396 30.2533 1.42063 30.6933 1.34063 31.28H0.420625C0.473958 30.6667 0.500625 29.9467 0.500625 29.12C0.527292 28.2933 0.540625 27.2267 0.540625 25.92C0.567292 24.5867 0.580625 22.9067 0.580625 20.88H1.50063C1.60729 22.5867 1.90063 24.1867 2.38063 25.68C2.88729 27.1467 3.64729 28.3333 4.66063 29.24C5.70063 30.1467 7.07396 30.6 8.78063 30.6C9.71396 30.6 10.554 30.44 11.3006 30.12C12.074 29.7733 12.6873 29.2533 13.1406 28.56C13.594 27.84 13.8206 26.9333 13.8206 25.84C13.8206 24.7467 13.5673 23.7867 13.0606 22.96C12.554 22.1333 11.8473 21.36 10.9406 20.64C10.034 19.92 8.96729 19.1867 7.74063 18.44C6.48729 17.64 5.31396 16.8267 4.22063 16C3.12729 15.1733 2.24729 14.24 1.58063 13.2C0.940625 12.1333 0.620625 10.8533 0.620625 9.36C0.620625 7.70667 1.02063 6.36 1.82063 5.32C2.62063 4.25333 3.66063 3.46667 4.94063 2.96C6.24729 2.45333 7.63396 2.2 9.10063 2.2ZM32.0341 9.76C34.3807 9.76 36.2207 10.4667 37.5541 11.88C38.8874 13.2933 39.5541 15.5467 39.5541 18.64H26.0741L26.0341 17.88H34.9141C34.9674 16.5733 34.8874 15.3733 34.6741 14.28C34.4607 13.16 34.1141 12.2667 33.6341 11.6C33.1807 10.9333 32.5807 10.6 31.8341 10.6C30.8207 10.6 29.9407 11.2 29.1941 12.4C28.4474 13.5733 27.9807 15.5067 27.7941 18.2L27.9541 18.44C27.9007 18.7867 27.8607 19.16 27.8341 19.56C27.8341 19.96 27.8341 20.36 27.8341 20.76C27.8341 22.6 28.1007 24.12 28.6341 25.32C29.1674 26.52 29.8607 27.4 30.7141 27.96C31.5674 28.52 32.4474 28.8 33.3541 28.8C33.9674 28.8 34.5941 28.7067 35.2341 28.52C35.8741 28.3333 36.5007 27.9867 37.1141 27.48C37.7274 26.9733 38.2874 26.2533 38.7941 25.32L39.5541 25.64C39.2607 26.5733 38.7674 27.5067 38.0741 28.44C37.4074 29.3467 36.5407 30.0933 35.4741 30.68C34.4074 31.2667 33.1541 31.56 31.7141 31.56C29.9007 31.56 28.3007 31.16 26.9141 30.36C25.5274 29.56 24.4474 28.3733 23.6741 26.8C22.9007 25.2 22.5141 23.2533 22.5141 20.96C22.5141 18.5333 22.9141 16.4933 23.7141 14.84C24.5407 13.1867 25.6741 11.9333 27.1141 11.08C28.5541 10.2 30.1941 9.76 32.0341 9.76ZM55.2731 9.76C56.0998 9.76 56.7798 9.93333 57.3131 10.28C57.8731 10.6267 58.2865 11.0667 58.5531 11.6C58.8198 12.1333 58.9531 12.6933 58.9531 13.28C58.9531 14.16 58.6865 14.8933 58.1531 15.48C57.6465 16.0667 56.9665 16.36 56.1131 16.36C55.3131 16.36 54.6598 16.1467 54.1531 15.72C53.6465 15.2933 53.3931 14.7067 53.3931 13.96C53.3931 13.2933 53.5531 12.7333 53.8731 12.28C54.2198 11.8267 54.6065 11.4667 55.0331 11.2C54.7398 11.04 54.4065 10.9867 54.0331 11.04C53.3931 11.0933 52.8065 11.32 52.2731 11.72C51.7398 12.12 51.2865 12.6133 50.9131 13.2C50.5398 13.7867 50.2465 14.4133 50.0331 15.08C49.8465 15.7467 49.7531 16.3867 49.7531 17V26.88C49.7531 28.1867 50.0865 29.0667 50.7531 29.52C51.4198 29.9467 52.3931 30.16 53.6731 30.16V31C53.0598 30.9733 52.1665 30.9467 50.9931 30.92C49.8465 30.8667 48.6465 30.84 47.3931 30.84C46.3531 30.84 45.3131 30.8667 44.2731 30.92C43.2598 30.9467 42.4998 30.9733 41.9931 31V30.16C42.9798 30.16 43.6731 29.96 44.0731 29.56C44.4998 29.16 44.7131 28.4 44.7131 27.28V14.68C44.7131 13.48 44.5131 12.6 44.1131 12.04C43.7398 11.4533 43.0331 11.16 41.9931 11.16V10.32C42.8465 10.4 43.6731 10.44 44.4731 10.44C45.4598 10.44 46.3931 10.4 47.2731 10.32C48.1798 10.2133 49.0065 10.0667 49.7531 9.88V14.04C50.0731 13.2933 50.4865 12.6 50.9931 11.96C51.5265 11.32 52.1531 10.8 52.8731 10.4C53.6198 9.97333 54.4198 9.76 55.2731 9.76ZM79.3125 10.32V11.16C78.8058 11.2667 78.3258 11.5467 77.8725 12C77.4458 12.4533 77.0325 13.2533 76.6325 14.4L70.5125 31.12C70.1925 31.0933 69.8725 31.08 69.5525 31.08C69.2325 31.08 68.8992 31.0933 68.5525 31.12L61.3525 13.4C60.9525 12.3867 60.5392 11.76 60.1125 11.52C59.6858 11.28 59.3258 11.16 59.0325 11.16V10.32C59.7792 10.3733 60.5525 10.4267 61.3525 10.48C62.1525 10.5067 63.0325 10.52 63.9925 10.52C64.8192 10.52 65.6858 10.5067 66.5925 10.48C67.5258 10.4267 68.3925 10.3733 69.1925 10.32V11.16C68.6058 11.16 68.0725 11.2 67.5925 11.28C67.1392 11.36 66.8325 11.5733 66.6725 11.92C66.5125 12.24 66.5792 12.8133 66.8725 13.64L71.6725 26.08L71.3125 26.52L74.9525 16.64C75.4058 15.3867 75.5925 14.3733 75.5125 13.6C75.4325 12.8267 75.1392 12.24 74.6325 11.84C74.1525 11.44 73.4592 11.2133 72.5525 11.16V10.32C73.0058 10.3467 73.4325 10.3733 73.8325 10.4C74.2592 10.4267 74.6725 10.4533 75.0725 10.48C75.4992 10.48 75.8992 10.48 76.2725 10.48C76.8325 10.48 77.3792 10.4667 77.9125 10.44C78.4725 10.4133 78.9392 10.3733 79.3125 10.32ZM85.3516 0.119999C86.3116 0.119999 87.0982 0.386666 87.7116 0.919999C88.3249 1.45333 88.6316 2.16 88.6316 3.04C88.6316 3.92 88.3249 4.62667 87.7116 5.16C87.0982 5.69333 86.3116 5.96 85.3516 5.96C84.3916 5.96 83.6049 5.69333 82.9916 5.16C82.3782 4.62667 82.0716 3.92 82.0716 3.04C82.0716 2.16 82.3782 1.45333 82.9916 0.919999C83.6049 0.386666 84.3916 0.119999 85.3516 0.119999ZM88.1516 9.88V27.28C88.1516 28.4 88.3516 29.16 88.7516 29.56C89.1782 29.96 89.8849 30.16 90.8716 30.16V31C90.3916 30.9733 89.6582 30.9467 88.6716 30.92C87.6849 30.8667 86.6849 30.84 85.6716 30.84C84.6849 30.84 83.6849 30.8667 82.6716 30.92C81.6582 30.9467 80.8982 30.9733 80.3916 31V30.16C81.3782 30.16 82.0716 29.96 82.4716 29.56C82.8982 29.16 83.1116 28.4 83.1116 27.28V14.72C83.1116 13.4933 82.9116 12.6 82.5116 12.04C82.1382 11.4533 81.4316 11.16 80.3916 11.16V10.32C81.2449 10.4 82.0716 10.44 82.8716 10.44C83.8582 10.44 84.7916 10.4 85.6716 10.32C86.5782 10.2133 87.4049 10.0667 88.1516 9.88ZM102.936 9.76C103.923 9.76 104.83 9.88 105.656 10.12C106.51 10.3333 107.243 10.64 107.856 11.04C108.496 11.44 109.003 11.9467 109.376 12.56C109.75 13.1467 109.936 13.8 109.936 14.52C109.936 15.4 109.67 16.1067 109.136 16.64C108.603 17.1733 107.936 17.44 107.136 17.44C106.31 17.44 105.63 17.2 105.096 16.72C104.59 16.24 104.336 15.6 104.336 14.8C104.336 14.0267 104.563 13.3867 105.016 12.88C105.47 12.3733 106.016 12.04 106.656 11.88C106.416 11.5333 106.043 11.2533 105.536 11.04C105.03 10.8 104.47 10.68 103.856 10.68C103.056 10.68 102.336 10.8933 101.696 11.32C101.056 11.72 100.496 12.3333 100.016 13.16C99.5629 13.96 99.2029 14.96 98.9363 16.16C98.6963 17.3333 98.5763 18.6933 98.5763 20.24C98.5763 22.4 98.8296 24.1067 99.3363 25.36C99.8696 26.6133 100.55 27.5067 101.376 28.04C102.203 28.5467 103.083 28.8 104.016 28.8C104.576 28.8 105.176 28.6933 105.816 28.48C106.456 28.2667 107.083 27.9067 107.696 27.4C108.336 26.8933 108.91 26.1733 109.416 25.24L110.176 25.52C109.883 26.4533 109.403 27.3867 108.736 28.32C108.096 29.2533 107.256 30.0267 106.216 30.64C105.176 31.2533 103.91 31.56 102.416 31.56C100.71 31.56 99.1629 31.1733 97.7763 30.4C96.3896 29.6 95.2829 28.4 94.4563 26.8C93.6563 25.2 93.2563 23.2133 93.2563 20.84C93.2563 18.4933 93.6696 16.5067 94.4963 14.88C95.3229 13.2267 96.4696 11.96 97.9363 11.08C99.4296 10.2 101.096 9.76 102.936 9.76ZM122.503 9.76C124.849 9.76 126.689 10.4667 128.023 11.88C129.356 13.2933 130.023 15.5467 130.023 18.64H116.543L116.503 17.88H125.383C125.436 16.5733 125.356 15.3733 125.143 14.28C124.929 13.16 124.583 12.2667 124.103 11.6C123.649 10.9333 123.049 10.6 122.303 10.6C121.289 10.6 120.409 11.2 119.663 12.4C118.916 13.5733 118.449 15.5067 118.263 18.2L118.423 18.44C118.369 18.7867 118.329 19.16 118.303 19.56C118.303 19.96 118.303 20.36 118.303 20.76C118.303 22.6 118.569 24.12 119.103 25.32C119.636 26.52 120.329 27.4 121.183 27.96C122.036 28.52 122.916 28.8 123.823 28.8C124.436 28.8 125.063 28.7067 125.703 28.52C126.343 28.3333 126.969 27.9867 127.583 27.48C128.196 26.9733 128.756 26.2533 129.263 25.32L130.023 25.64C129.729 26.5733 129.236 27.5067 128.543 28.44C127.876 29.3467 127.009 30.0933 125.943 30.68C124.876 31.2667 123.623 31.56 122.183 31.56C120.369 31.56 118.769 31.16 117.383 30.36C115.996 29.56 114.916 28.3733 114.143 26.8C113.369 25.2 112.983 23.2533 112.983 20.96C112.983 18.5333 113.383 16.4933 114.183 14.84C115.009 13.1867 116.143 11.9333 117.583 11.08C119.023 10.2 120.663 9.76 122.503 9.76ZM140.258 9.76C141.378 9.76 142.338 9.92 143.138 10.24C143.938 10.56 144.525 10.84 144.898 11.08C145.805 11.7467 146.351 11.32 146.538 9.8H147.418C147.365 10.5733 147.325 11.4933 147.298 12.56C147.271 13.6 147.258 15 147.258 16.76H146.378C146.245 15.7733 145.991 14.8133 145.618 13.88C145.245 12.9467 144.698 12.1733 143.978 11.56C143.258 10.92 142.311 10.6 141.138 10.6C140.311 10.6 139.618 10.84 139.058 11.32C138.525 11.8 138.258 12.48 138.258 13.36C138.258 14.16 138.498 14.8667 138.978 15.48C139.458 16.0667 140.071 16.6267 140.818 17.16C141.591 17.6667 142.391 18.2267 143.218 18.84C144.178 19.48 145.031 20.1333 145.778 20.8C146.525 21.44 147.125 22.16 147.578 22.96C148.031 23.7333 148.258 24.6533 148.258 25.72C148.258 26.9467 147.911 28 147.218 28.88C146.551 29.7333 145.658 30.4 144.538 30.88C143.445 31.3333 142.231 31.56 140.898 31.56C140.178 31.56 139.525 31.4933 138.938 31.36C138.351 31.2267 137.831 31.0533 137.378 30.84C137.031 30.6533 136.711 30.48 136.418 30.32C136.151 30.16 135.871 30.0267 135.578 29.92C135.311 29.7867 135.071 29.84 134.858 30.08C134.671 30.32 134.525 30.72 134.418 31.28H133.538C133.591 30.4267 133.631 29.3867 133.658 28.16C133.685 26.9333 133.698 25.3067 133.698 23.28H134.578C134.765 24.7467 135.045 26.04 135.418 27.16C135.818 28.2533 136.391 29.12 137.138 29.76C137.885 30.3733 138.845 30.68 140.018 30.68C140.525 30.68 141.005 30.5733 141.458 30.36C141.938 30.1467 142.325 29.8133 142.618 29.36C142.938 28.9067 143.098 28.2933 143.098 27.52C143.098 26.3467 142.698 25.3733 141.898 24.6C141.098 23.8267 140.098 23 138.898 22.12C137.991 21.4533 137.138 20.8 136.338 20.16C135.565 19.52 134.925 18.8 134.418 18C133.938 17.2 133.698 16.2533 133.698 15.16C133.698 13.96 134.005 12.9733 134.618 12.2C135.231 11.4 136.031 10.8 137.018 10.4C138.031 9.97333 139.111 9.76 140.258 9.76Z"
        fill="#D8B192"
    />
</svg>