<svg
    width="393"
    height="41"
    viewBox="0 0 393 41"
    fill="none"
    xmlns="http://www.w3.org/2000/svg"
>
    <path
        d="M9.6475 4.2C11.1408 4.2 12.2875 4.36 13.0875 4.68C13.8875 5 14.5808 5.34667 15.1675 5.72C15.4875 5.90667 15.7408 6.05333 15.9275 6.16C16.1408 6.24 16.3408 6.28 16.5275 6.28C16.7942 6.28 16.9808 6.13333 17.0875 5.84C17.2208 5.54666 17.3275 5.10666 17.4075 4.52H18.3275C18.3008 5.02667 18.2608 5.61333 18.2075 6.28C18.1808 6.94667 18.1542 7.84 18.1275 8.96C18.1275 10.0533 18.1275 11.5067 18.1275 13.32H17.2075C17.1275 11.96 16.8208 10.6533 16.2875 9.4C15.7808 8.14667 15.0475 7.12 14.0875 6.32C13.1542 5.49333 11.9542 5.08 10.4875 5.08C9.18083 5.08 8.0875 5.46667 7.2075 6.24C6.35417 7.01333 5.9275 8.05333 5.9275 9.36C5.9275 10.48 6.2075 11.4267 6.7675 12.2C7.3275 12.9467 8.11417 13.68 9.1275 14.4C10.1675 15.0933 11.3942 15.8933 12.8075 16.8C14.1142 17.6533 15.2875 18.5067 16.3275 19.36C17.3675 20.1867 18.1808 21.1067 18.7675 22.12C19.3808 23.1333 19.6875 24.3733 19.6875 25.84C19.6875 27.5733 19.2608 29.0133 18.4075 30.16C17.5542 31.3067 16.4075 32.16 14.9675 32.72C13.5275 33.28 11.9542 33.56 10.2475 33.56C8.67417 33.56 7.42083 33.4 6.4875 33.08C5.58083 32.76 4.79417 32.4267 4.1275 32.08C3.54083 31.7067 3.0875 31.52 2.7675 31.52C2.50083 31.52 2.30083 31.6667 2.1675 31.96C2.06083 32.2533 1.9675 32.6933 1.8875 33.28H0.9675C1.02083 32.6667 1.0475 31.9467 1.0475 31.12C1.07417 30.2933 1.0875 29.2267 1.0875 27.92C1.11417 26.5867 1.1275 24.9067 1.1275 22.88H2.0475C2.15417 24.5867 2.4475 26.1867 2.9275 27.68C3.43417 29.1467 4.19417 30.3333 5.2075 31.24C6.2475 32.1467 7.62083 32.6 9.3275 32.6C10.2608 32.6 11.1008 32.44 11.8475 32.12C12.6208 31.7733 13.2342 31.2533 13.6875 30.56C14.1408 29.84 14.3675 28.9333 14.3675 27.84C14.3675 26.7467 14.1142 25.7867 13.6075 24.96C13.1008 24.1333 12.3942 23.36 11.4875 22.64C10.5808 21.92 9.51417 21.1867 8.2875 20.44C7.03417 19.64 5.86083 18.8267 4.7675 18C3.67417 17.1733 2.79417 16.24 2.1275 15.2C1.4875 14.1333 1.1675 12.8533 1.1675 11.36C1.1675 9.70667 1.5675 8.36 2.3675 7.32C3.1675 6.25333 4.2075 5.46667 5.4875 4.96C6.79417 4.45333 8.18083 4.2 9.6475 4.2ZM32.5809 11.76C34.9276 11.76 36.7676 12.4667 38.1009 13.88C39.4343 15.2933 40.1009 17.5467 40.1009 20.64H26.6209L26.5809 19.88H35.4609C35.5143 18.5733 35.4343 17.3733 35.2209 16.28C35.0076 15.16 34.6609 14.2667 34.1809 13.6C33.7276 12.9333 33.1276 12.6 32.3809 12.6C31.3676 12.6 30.4876 13.2 29.7409 14.4C28.9943 15.5733 28.5276 17.5067 28.3409 20.2L28.5009 20.44C28.4476 20.7867 28.4076 21.16 28.3809 21.56C28.3809 21.96 28.3809 22.36 28.3809 22.76C28.3809 24.6 28.6476 26.12 29.1809 27.32C29.7143 28.52 30.4076 29.4 31.2609 29.96C32.1143 30.52 32.9943 30.8 33.9009 30.8C34.5143 30.8 35.1409 30.7067 35.7809 30.52C36.4209 30.3333 37.0476 29.9867 37.6609 29.48C38.2743 28.9733 38.8343 28.2533 39.3409 27.32L40.1009 27.64C39.8076 28.5733 39.3143 29.5067 38.6209 30.44C37.9543 31.3467 37.0876 32.0933 36.0209 32.68C34.9543 33.2667 33.7009 33.56 32.2609 33.56C30.4476 33.56 28.8476 33.16 27.4609 32.36C26.0743 31.56 24.9943 30.3733 24.2209 28.8C23.4476 27.2 23.0609 25.2533 23.0609 22.96C23.0609 20.5333 23.4609 18.4933 24.2609 16.84C25.0876 15.1867 26.2209 13.9333 27.6609 13.08C29.1009 12.2 30.7409 11.76 32.5809 11.76ZM50.2163 1.68V29.28C50.2163 30.4 50.4163 31.16 50.8163 31.56C51.2429 31.96 51.9496 32.16 52.9363 32.16V33C52.4563 32.9733 51.7229 32.9467 50.7363 32.92C49.7763 32.8667 48.7896 32.84 47.7763 32.84C46.7896 32.84 45.7763 32.8667 44.7363 32.92C43.7229 32.9467 42.9629 32.9733 42.4563 33V32.16C43.4429 32.16 44.1363 31.96 44.5363 31.56C44.9629 31.16 45.1763 30.4 45.1763 29.28V6.48C45.1763 5.28 44.9896 4.4 44.6163 3.84C44.2429 3.25333 43.5229 2.96 42.4563 2.96V2.12C43.3096 2.2 44.1363 2.24 44.9363 2.24C45.9496 2.24 46.8963 2.2 47.7763 2.12C48.6563 2.01333 49.4696 1.86667 50.2163 1.68ZM64.495 11.76C66.8417 11.76 68.6817 12.4667 70.015 13.88C71.3483 15.2933 72.015 17.5467 72.015 20.64H58.535L58.495 19.88H67.375C67.4283 18.5733 67.3483 17.3733 67.135 16.28C66.9217 15.16 66.575 14.2667 66.095 13.6C65.6417 12.9333 65.0417 12.6 64.295 12.6C63.2817 12.6 62.4017 13.2 61.655 14.4C60.9083 15.5733 60.4417 17.5067 60.255 20.2L60.415 20.44C60.3617 20.7867 60.3217 21.16 60.295 21.56C60.295 21.96 60.295 22.36 60.295 22.76C60.295 24.6 60.5617 26.12 61.095 27.32C61.6283 28.52 62.3217 29.4 63.175 29.96C64.0283 30.52 64.9083 30.8 65.815 30.8C66.4283 30.8 67.055 30.7067 67.695 30.52C68.335 30.3333 68.9617 29.9867 69.575 29.48C70.1883 28.9733 70.7483 28.2533 71.255 27.32L72.015 27.64C71.7217 28.5733 71.2283 29.5067 70.535 30.44C69.8683 31.3467 69.0017 32.0933 67.935 32.68C66.8683 33.2667 65.615 33.56 64.175 33.56C62.3617 33.56 60.7617 33.16 59.375 32.36C57.9883 31.56 56.9083 30.3733 56.135 28.8C55.3617 27.2 54.975 25.2533 54.975 22.96C54.975 20.5333 55.375 18.4933 56.175 16.84C57.0017 15.1867 58.135 13.9333 59.575 13.08C61.015 12.2 62.655 11.76 64.495 11.76ZM84.8503 11.76C85.837 11.76 86.7436 11.88 87.5703 12.12C88.4236 12.3333 89.157 12.64 89.7703 13.04C90.4103 13.44 90.917 13.9467 91.2903 14.56C91.6636 15.1467 91.8503 15.8 91.8503 16.52C91.8503 17.4 91.5836 18.1067 91.0503 18.64C90.517 19.1733 89.8503 19.44 89.0503 19.44C88.2236 19.44 87.5436 19.2 87.0103 18.72C86.5036 18.24 86.2503 17.6 86.2503 16.8C86.2503 16.0267 86.477 15.3867 86.9303 14.88C87.3836 14.3733 87.9303 14.04 88.5703 13.88C88.3303 13.5333 87.957 13.2533 87.4503 13.04C86.9436 12.8 86.3836 12.68 85.7703 12.68C84.9703 12.68 84.2503 12.8933 83.6103 13.32C82.9703 13.72 82.4103 14.3333 81.9303 15.16C81.477 15.96 81.117 16.96 80.8503 18.16C80.6103 19.3333 80.4903 20.6933 80.4903 22.24C80.4903 24.4 80.7436 26.1067 81.2503 27.36C81.7836 28.6133 82.4636 29.5067 83.2903 30.04C84.117 30.5467 84.997 30.8 85.9303 30.8C86.4903 30.8 87.0903 30.6933 87.7303 30.48C88.3703 30.2667 88.997 29.9067 89.6103 29.4C90.2503 28.8933 90.8236 28.1733 91.3303 27.24L92.0903 27.52C91.797 28.4533 91.317 29.3867 90.6503 30.32C90.0103 31.2533 89.1703 32.0267 88.1303 32.64C87.0903 33.2533 85.8236 33.56 84.3303 33.56C82.6236 33.56 81.077 33.1733 79.6903 32.4C78.3036 31.6 77.197 30.4 76.3703 28.8C75.5703 27.2 75.1703 25.2133 75.1703 22.84C75.1703 20.4933 75.5836 18.5067 76.4103 16.88C77.237 15.2267 78.3836 13.96 79.8503 13.08C81.3436 12.2 83.0103 11.76 84.8503 11.76ZM101.897 5.76V12.36H107.017V13.16H101.897V29.08C101.897 30.04 102.07 30.72 102.417 31.12C102.764 31.52 103.257 31.72 103.897 31.72C104.51 31.72 105.07 31.4933 105.577 31.04C106.084 30.56 106.537 29.7733 106.937 28.68L107.657 29C107.257 30.3067 106.63 31.4 105.777 32.28C104.95 33.1333 103.777 33.56 102.257 33.56C101.35 33.56 100.577 33.44 99.9369 33.2C99.3235 32.9867 98.7902 32.6667 98.3369 32.24C97.7502 31.6267 97.3502 30.8933 97.1369 30.04C96.9502 29.1867 96.8569 28.0533 96.8569 26.64V13.16H93.3369V12.36H96.8569V6.8C97.8169 6.77333 98.7102 6.68 99.5369 6.52C100.364 6.36 101.15 6.10666 101.897 5.76ZM127.499 4.2C128.992 4.2 130.139 4.36 130.939 4.68C131.739 5 132.432 5.34667 133.019 5.72C133.339 5.90667 133.592 6.05333 133.779 6.16C133.992 6.24 134.192 6.28 134.379 6.28C134.646 6.28 134.832 6.13333 134.939 5.84C135.072 5.54666 135.179 5.10666 135.259 4.52H136.179C136.152 5.02667 136.112 5.61333 136.059 6.28C136.032 6.94667 136.006 7.84 135.979 8.96C135.979 10.0533 135.979 11.5067 135.979 13.32H135.059C134.979 11.96 134.672 10.6533 134.139 9.4C133.632 8.14667 132.899 7.12 131.939 6.32C131.006 5.49333 129.806 5.08 128.339 5.08C127.032 5.08 125.939 5.46667 125.059 6.24C124.206 7.01333 123.779 8.05333 123.779 9.36C123.779 10.48 124.059 11.4267 124.619 12.2C125.179 12.9467 125.966 13.68 126.979 14.4C128.019 15.0933 129.246 15.8933 130.659 16.8C131.966 17.6533 133.139 18.5067 134.179 19.36C135.219 20.1867 136.032 21.1067 136.619 22.12C137.232 23.1333 137.539 24.3733 137.539 25.84C137.539 27.5733 137.112 29.0133 136.259 30.16C135.406 31.3067 134.259 32.16 132.819 32.72C131.379 33.28 129.806 33.56 128.099 33.56C126.526 33.56 125.272 33.4 124.339 33.08C123.432 32.76 122.646 32.4267 121.979 32.08C121.392 31.7067 120.939 31.52 120.619 31.52C120.352 31.52 120.152 31.6667 120.019 31.96C119.912 32.2533 119.819 32.6933 119.739 33.28H118.819C118.872 32.6667 118.899 31.9467 118.899 31.12C118.926 30.2933 118.939 29.2267 118.939 27.92C118.966 26.5867 118.979 24.9067 118.979 22.88H119.899C120.006 24.5867 120.299 26.1867 120.779 27.68C121.286 29.1467 122.046 30.3333 123.059 31.24C124.099 32.1467 125.472 32.6 127.179 32.6C128.112 32.6 128.952 32.44 129.699 32.12C130.472 31.7733 131.086 31.2533 131.539 30.56C131.992 29.84 132.219 28.9333 132.219 27.84C132.219 26.7467 131.966 25.7867 131.459 24.96C130.952 24.1333 130.246 23.36 129.339 22.64C128.432 21.92 127.366 21.1867 126.139 20.44C124.886 19.64 123.712 18.8267 122.619 18C121.526 17.1733 120.646 16.24 119.979 15.2C119.339 14.1333 119.019 12.8533 119.019 11.36C119.019 9.70667 119.419 8.36 120.219 7.32C121.019 6.25333 122.059 5.46667 123.339 4.96C124.646 4.45333 126.032 4.2 127.499 4.2ZM147.913 5.76V12.36H153.033V13.16H147.913V29.08C147.913 30.04 148.086 30.72 148.433 31.12C148.779 31.52 149.273 31.72 149.913 31.72C150.526 31.72 151.086 31.4933 151.593 31.04C152.099 30.56 152.553 29.7733 152.953 28.68L153.673 29C153.273 30.3067 152.646 31.4 151.793 32.28C150.966 33.1333 149.793 33.56 148.273 33.56C147.366 33.56 146.593 33.44 145.953 33.2C145.339 32.9867 144.806 32.6667 144.353 32.24C143.766 31.6267 143.366 30.8933 143.153 30.04C142.966 29.1867 142.873 28.0533 142.873 26.64V13.16H139.353V12.36H142.873V6.8C143.833 6.77333 144.726 6.68 145.553 6.52C146.379 6.36 147.166 6.10666 147.913 5.76ZM159.975 33.28C158.828 33.28 157.855 33.0667 157.055 32.64C156.255 32.1867 155.655 31.5867 155.255 30.84C154.855 30.0667 154.655 29.2133 154.655 28.28C154.655 27.1333 154.922 26.2 155.455 25.48C155.988 24.7333 156.668 24.1467 157.495 23.72C158.348 23.2667 159.242 22.8933 160.175 22.6C161.108 22.28 161.988 21.9867 162.815 21.72C163.642 21.4267 164.322 21.0933 164.855 20.72C165.388 20.3467 165.655 19.8533 165.655 19.24V16.32C165.655 15.4667 165.522 14.7733 165.255 14.24C165.015 13.68 164.642 13.2667 164.135 13C163.655 12.7067 163.042 12.56 162.295 12.56C161.735 12.56 161.148 12.64 160.535 12.8C159.922 12.96 159.415 13.2667 159.015 13.72C159.708 13.9067 160.242 14.2533 160.615 14.76C161.015 15.2667 161.215 15.88 161.215 16.6C161.215 17.4267 160.935 18.08 160.375 18.56C159.842 19.0133 159.162 19.24 158.335 19.24C157.455 19.24 156.788 18.96 156.335 18.4C155.882 17.84 155.655 17.1867 155.655 16.44C155.655 15.6933 155.842 15.08 156.215 14.6C156.588 14.0933 157.108 13.64 157.775 13.24C158.442 12.7867 159.295 12.4267 160.335 12.16C161.375 11.8933 162.508 11.76 163.735 11.76C164.908 11.76 165.948 11.8933 166.855 12.16C167.762 12.4 168.535 12.84 169.175 13.48C169.815 14.0933 170.228 14.8533 170.415 15.76C170.602 16.6667 170.695 17.7733 170.695 19.08V30.04C170.695 30.7067 170.775 31.1867 170.935 31.48C171.095 31.7467 171.348 31.88 171.695 31.88C171.962 31.88 172.215 31.8133 172.455 31.68C172.695 31.5467 172.962 31.36 173.255 31.12L173.695 31.8C173.108 32.2533 172.495 32.6133 171.855 32.88C171.215 33.1467 170.442 33.28 169.535 33.28C168.602 33.28 167.855 33.1467 167.295 32.88C166.762 32.6133 166.362 32.2267 166.095 31.72C165.855 31.2133 165.722 30.6133 165.695 29.92C165.055 30.9867 164.268 31.8133 163.335 32.4C162.402 32.9867 161.282 33.28 159.975 33.28ZM162.375 31.04C163.015 31.04 163.602 30.8667 164.135 30.52C164.695 30.1733 165.202 29.6533 165.655 28.96V20.88C165.388 21.28 165.002 21.64 164.495 21.96C164.015 22.28 163.495 22.6 162.935 22.92C162.375 23.24 161.842 23.6133 161.335 24.04C160.855 24.44 160.442 24.9467 160.095 25.56C159.775 26.1467 159.615 26.9067 159.615 27.84C159.615 28.88 159.868 29.68 160.375 30.24C160.882 30.7733 161.548 31.04 162.375 31.04ZM186.405 3.32C187.845 3.32 189.138 3.65333 190.285 4.32C191.431 4.98667 192.191 5.96 192.565 7.24L191.885 7.6C191.591 6.61333 191.005 5.8 190.125 5.16C189.271 4.49333 188.191 4.16 186.885 4.16C185.471 4.16 184.431 4.6 183.765 5.48C183.098 6.36 182.765 7.78667 182.765 9.76V12.36H188.325V13.16H182.765V29.28C182.765 30.4 182.965 31.16 183.365 31.56C183.791 31.96 184.498 32.16 185.485 32.16V33C184.978 32.9733 184.245 32.9467 183.285 32.92C182.325 32.8667 181.351 32.84 180.365 32.84C179.325 32.84 178.271 32.8667 177.205 32.92C176.138 32.9467 175.351 32.9733 174.845 33V32.16C175.885 32.16 176.618 31.96 177.045 31.56C177.498 31.16 177.725 30.4 177.725 29.28V13.16H174.685V12.36H177.725C177.725 10.92 177.911 9.64 178.285 8.52C178.685 7.37333 179.271 6.42667 180.045 5.68C180.738 4.96 181.631 4.38667 182.725 3.96C183.845 3.53333 185.071 3.32 186.405 3.32ZM198.245 1.72C199.125 1.72 199.885 1.84 200.525 2.08C201.191 2.29333 201.778 2.58666 202.285 2.96C202.658 3.28 202.965 3.68 203.205 4.16C203.471 4.64 203.605 5.17333 203.605 5.76C203.605 6.48 203.365 7.09333 202.885 7.6C202.405 8.10666 201.778 8.36 201.005 8.36C200.205 8.36 199.538 8.13333 199.005 7.68C198.498 7.2 198.245 6.54667 198.245 5.72C198.245 5.08 198.418 4.53333 198.765 4.08C199.138 3.6 199.671 3.26666 200.365 3.08C200.285 2.89333 200.111 2.73333 199.845 2.6C199.578 2.46666 199.218 2.4 198.765 2.4C198.205 2.4 197.725 2.50667 197.325 2.72C196.951 2.93333 196.658 3.22667 196.445 3.6C196.151 4.05333 195.951 4.72 195.845 5.6C195.738 6.48 195.685 7.81333 195.685 9.6V12.36H199.965V13.16H195.685V28.88C195.685 30.1867 196.031 31.0667 196.725 31.52C197.445 31.9467 198.405 32.16 199.605 32.16V33C198.938 32.9733 198.005 32.9467 196.805 32.92C195.605 32.8667 194.325 32.84 192.965 32.84C192.005 32.84 191.045 32.8667 190.085 32.92C189.151 32.9467 188.431 32.9733 187.925 33V32.16C188.911 32.16 189.605 31.96 190.005 31.56C190.431 31.16 190.645 30.4 190.645 29.28V13.16H187.765V12.36H190.645C190.645 10.7867 190.725 9.48 190.885 8.44C191.045 7.37333 191.298 6.46666 191.645 5.72C191.991 4.97333 192.445 4.30666 193.005 3.72C193.591 3.13333 194.338 2.65333 195.245 2.28C196.178 1.90666 197.178 1.72 198.245 1.72ZM221.409 0.759998L221.969 1.28C220.049 4 218.676 6.90666 217.849 10C217.022 13.0933 216.609 16.6 216.609 20.52C216.609 24.44 217.022 27.9467 217.849 31.04C218.676 34.1067 220.049 37.0133 221.969 39.76L221.409 40.28C218.396 37.9067 216.036 35.0933 214.329 31.84C212.649 28.5867 211.809 24.8133 211.809 20.52C211.809 16.2267 212.649 12.4533 214.329 9.2C216.036 5.94667 218.396 3.13333 221.409 0.759998ZM237.137 4.12C239.857 4.12 242.244 4.69333 244.297 5.84C246.351 6.98667 247.937 8.64 249.057 10.8C250.204 12.9333 250.777 15.5333 250.777 18.6C250.777 21.5867 250.191 24.2 249.017 26.44C247.871 28.68 246.257 30.4267 244.177 31.68C242.124 32.9333 239.764 33.56 237.097 33.56C234.377 33.56 231.991 32.9867 229.937 31.84C227.884 30.6933 226.284 29.04 225.137 26.88C224.017 24.72 223.457 22.12 223.457 19.08C223.457 16.0933 224.044 13.48 225.217 11.24C226.391 9 228.004 7.25333 230.057 6C232.111 4.74666 234.471 4.12 237.137 4.12ZM236.977 4.84C235.404 4.84 234.031 5.44 232.857 6.64C231.711 7.84 230.817 9.49333 230.177 11.6C229.537 13.7067 229.217 16.1467 229.217 18.92C229.217 21.7467 229.577 24.2133 230.297 26.32C231.017 28.4 231.991 30.0133 233.217 31.16C234.444 32.28 235.791 32.84 237.257 32.84C238.831 32.84 240.191 32.24 241.337 31.04C242.511 29.84 243.417 28.1867 244.057 26.08C244.697 23.9467 245.017 21.5067 245.017 18.76C245.017 15.9067 244.657 13.44 243.937 11.36C243.217 9.28 242.244 7.68 241.017 6.56C239.817 5.41333 238.471 4.84 236.977 4.84ZM261.193 11.92V36.36C261.193 37.56 261.513 38.36 262.153 38.76C262.819 39.1867 263.726 39.4 264.873 39.4V40.24C264.233 40.2133 263.326 40.1733 262.153 40.12C261.006 40.0933 259.779 40.08 258.473 40.08C257.566 40.08 256.659 40.0933 255.753 40.12C254.846 40.1733 254.153 40.2133 253.673 40.24V39.4C254.579 39.4 255.219 39.2133 255.593 38.84C255.966 38.4667 256.153 37.7733 256.153 36.76V16.72C256.153 15.52 255.966 14.64 255.593 14.08C255.219 13.4933 254.499 13.2 253.433 13.2V12.36C254.286 12.44 255.113 12.48 255.913 12.48C256.926 12.48 257.873 12.44 258.753 12.36C259.633 12.2533 260.446 12.1067 261.193 11.92ZM267.473 11.76C268.859 11.76 270.099 12.1467 271.193 12.92C272.286 13.6667 273.139 14.7733 273.753 16.24C274.393 17.7067 274.713 19.5467 274.713 21.76C274.713 23.52 274.513 25.1333 274.113 26.6C273.713 28.04 273.113 29.28 272.313 30.32C271.539 31.36 270.579 32.16 269.433 32.72C268.286 33.28 266.979 33.56 265.513 33.56C264.393 33.56 263.393 33.3467 262.513 32.92C261.633 32.4933 260.993 31.92 260.593 31.2L260.993 30.64C261.313 31.2 261.753 31.6533 262.313 32C262.873 32.3467 263.539 32.52 264.313 32.52C265.593 32.52 266.606 32.1067 267.353 31.28C268.099 30.4267 268.619 29.24 268.913 27.72C269.233 26.2 269.393 24.44 269.393 22.44C269.393 20.2267 269.246 18.4533 268.953 17.12C268.659 15.7867 268.219 14.8267 267.633 14.24C267.046 13.6267 266.353 13.32 265.553 13.32C264.459 13.32 263.473 13.76 262.593 14.64C261.739 15.4933 261.219 16.7467 261.033 18.4L260.753 17.28C261.179 15.52 261.993 14.16 263.193 13.2C264.393 12.24 265.819 11.76 267.473 11.76ZM284.944 5.76V12.36H290.064V13.16H284.944V29.08C284.944 30.04 285.117 30.72 285.464 31.12C285.81 31.52 286.304 31.72 286.944 31.72C287.557 31.72 288.117 31.4933 288.624 31.04C289.13 30.56 289.584 29.7733 289.984 28.68L290.704 29C290.304 30.3067 289.677 31.4 288.824 32.28C287.997 33.1333 286.824 33.56 285.304 33.56C284.397 33.56 283.624 33.44 282.984 33.2C282.37 32.9867 281.837 32.6667 281.384 32.24C280.797 31.6267 280.397 30.8933 280.184 30.04C279.997 29.1867 279.904 28.0533 279.904 26.64V13.16H276.384V12.36H279.904V6.8C280.864 6.77333 281.757 6.68 282.584 6.52C283.41 6.36 284.197 6.10666 284.944 5.76ZM296.406 2.12C297.366 2.12 298.153 2.38667 298.766 2.92C299.38 3.45333 299.686 4.16 299.686 5.04C299.686 5.92 299.38 6.62667 298.766 7.16C298.153 7.69333 297.366 7.96 296.406 7.96C295.446 7.96 294.66 7.69333 294.046 7.16C293.433 6.62667 293.126 5.92 293.126 5.04C293.126 4.16 293.433 3.45333 294.046 2.92C294.66 2.38667 295.446 2.12 296.406 2.12ZM299.206 11.88V29.28C299.206 30.4 299.406 31.16 299.806 31.56C300.233 31.96 300.94 32.16 301.926 32.16V33C301.446 32.9733 300.713 32.9467 299.726 32.92C298.74 32.8667 297.74 32.84 296.726 32.84C295.74 32.84 294.74 32.8667 293.726 32.92C292.713 32.9467 291.953 32.9733 291.446 33V32.16C292.433 32.16 293.126 31.96 293.526 31.56C293.953 31.16 294.166 30.4 294.166 29.28V16.72C294.166 15.4933 293.966 14.6 293.566 14.04C293.193 13.4533 292.486 13.16 291.446 13.16V12.32C292.3 12.4 293.126 12.44 293.926 12.44C294.913 12.44 295.846 12.4 296.726 12.32C297.633 12.2133 298.46 12.0667 299.206 11.88ZM313.911 11.76C315.751 11.76 317.378 12.1333 318.791 12.88C320.231 13.6 321.364 14.76 322.191 16.36C323.044 17.96 323.471 20.0667 323.471 22.68C323.471 25.2933 323.044 27.4 322.191 29C321.364 30.6 320.231 31.76 318.791 32.48C317.378 33.2 315.751 33.56 313.911 33.56C312.071 33.56 310.431 33.2 308.991 32.48C307.551 31.76 306.418 30.6 305.591 29C304.764 27.4 304.351 25.2933 304.351 22.68C304.351 20.0667 304.764 17.96 305.591 16.36C306.418 14.76 307.551 13.6 308.991 12.88C310.431 12.1333 312.071 11.76 313.911 11.76ZM313.911 12.56C312.658 12.56 311.631 13.36 310.831 14.96C310.058 16.5333 309.671 19.1067 309.671 22.68C309.671 26.2533 310.058 28.8267 310.831 30.4C311.631 31.9733 312.658 32.76 313.911 32.76C315.138 32.76 316.151 31.9733 316.951 30.4C317.751 28.8267 318.151 26.2533 318.151 22.68C318.151 19.1067 317.751 16.5333 316.951 14.96C316.151 13.36 315.138 12.56 313.911 12.56ZM340.455 11.76C341.575 11.76 342.468 11.9067 343.135 12.2C343.828 12.4933 344.388 12.8667 344.815 13.32C345.295 13.8267 345.628 14.48 345.815 15.28C346.028 16.08 346.135 17.16 346.135 18.52V29.28C346.135 30.4 346.335 31.16 346.735 31.56C347.161 31.96 347.868 32.16 348.855 32.16V33C348.375 32.9733 347.628 32.9467 346.615 32.92C345.628 32.8667 344.668 32.84 343.735 32.84C342.748 32.84 341.788 32.8667 340.855 32.92C339.921 32.9467 339.228 32.9733 338.775 33V32.16C339.628 32.16 340.228 31.96 340.575 31.56C340.921 31.16 341.095 30.4 341.095 29.28V17.16C341.095 16.44 341.028 15.8 340.895 15.24C340.761 14.6533 340.495 14.2 340.095 13.88C339.695 13.5333 339.121 13.36 338.375 13.36C337.495 13.36 336.708 13.6 336.015 14.08C335.348 14.56 334.815 15.2267 334.415 16.08C334.041 16.9067 333.855 17.84 333.855 18.88V29.28C333.855 30.4 334.028 31.16 334.375 31.56C334.721 31.96 335.321 32.16 336.175 32.16V33C335.721 32.9733 335.041 32.9467 334.135 32.92C333.228 32.8667 332.308 32.84 331.375 32.84C330.388 32.84 329.388 32.8667 328.375 32.92C327.361 32.9467 326.601 32.9733 326.095 33V32.16C327.081 32.16 327.775 31.96 328.175 31.56C328.601 31.16 328.815 30.4 328.815 29.28V16.68C328.815 15.48 328.615 14.6 328.215 14.04C327.841 13.4533 327.135 13.16 326.095 13.16V12.32C326.948 12.4 327.775 12.44 328.575 12.44C329.561 12.44 330.495 12.4 331.375 12.32C332.281 12.2133 333.108 12.0667 333.855 11.88V15.88C334.521 14.36 335.441 13.2933 336.615 12.68C337.788 12.0667 339.068 11.76 340.455 11.76ZM355.991 33.28C354.844 33.28 353.871 33.0667 353.071 32.64C352.271 32.1867 351.671 31.5867 351.271 30.84C350.871 30.0667 350.671 29.2133 350.671 28.28C350.671 27.1333 350.937 26.2 351.471 25.48C352.004 24.7333 352.684 24.1467 353.511 23.72C354.364 23.2667 355.257 22.8933 356.191 22.6C357.124 22.28 358.004 21.9867 358.831 21.72C359.657 21.4267 360.337 21.0933 360.871 20.72C361.404 20.3467 361.671 19.8533 361.671 19.24V16.32C361.671 15.4667 361.537 14.7733 361.271 14.24C361.031 13.68 360.657 13.2667 360.151 13C359.671 12.7067 359.057 12.56 358.311 12.56C357.751 12.56 357.164 12.64 356.551 12.8C355.937 12.96 355.431 13.2667 355.031 13.72C355.724 13.9067 356.257 14.2533 356.631 14.76C357.031 15.2667 357.231 15.88 357.231 16.6C357.231 17.4267 356.951 18.08 356.391 18.56C355.857 19.0133 355.177 19.24 354.351 19.24C353.471 19.24 352.804 18.96 352.351 18.4C351.897 17.84 351.671 17.1867 351.671 16.44C351.671 15.6933 351.857 15.08 352.231 14.6C352.604 14.0933 353.124 13.64 353.791 13.24C354.457 12.7867 355.311 12.4267 356.351 12.16C357.391 11.8933 358.524 11.76 359.751 11.76C360.924 11.76 361.964 11.8933 362.871 12.16C363.777 12.4 364.551 12.84 365.191 13.48C365.831 14.0933 366.244 14.8533 366.431 15.76C366.617 16.6667 366.711 17.7733 366.711 19.08V30.04C366.711 30.7067 366.791 31.1867 366.951 31.48C367.111 31.7467 367.364 31.88 367.711 31.88C367.977 31.88 368.231 31.8133 368.471 31.68C368.711 31.5467 368.977 31.36 369.271 31.12L369.711 31.8C369.124 32.2533 368.511 32.6133 367.871 32.88C367.231 33.1467 366.457 33.28 365.551 33.28C364.617 33.28 363.871 33.1467 363.311 32.88C362.777 32.6133 362.377 32.2267 362.111 31.72C361.871 31.2133 361.737 30.6133 361.711 29.92C361.071 30.9867 360.284 31.8133 359.351 32.4C358.417 32.9867 357.297 33.28 355.991 33.28ZM358.391 31.04C359.031 31.04 359.617 30.8667 360.151 30.52C360.711 30.1733 361.217 29.6533 361.671 28.96V20.88C361.404 21.28 361.017 21.64 360.511 21.96C360.031 22.28 359.511 22.6 358.951 22.92C358.391 23.24 357.857 23.6133 357.351 24.04C356.871 24.44 356.457 24.9467 356.111 25.56C355.791 26.1467 355.631 26.9067 355.631 27.84C355.631 28.88 355.884 29.68 356.391 30.24C356.897 30.7733 357.564 31.04 358.391 31.04ZM378.38 1.68V29.28C378.38 30.4 378.58 31.16 378.98 31.56C379.407 31.96 380.114 32.16 381.1 32.16V33C380.62 32.9733 379.887 32.9467 378.9 32.92C377.94 32.8667 376.954 32.84 375.94 32.84C374.954 32.84 373.94 32.8667 372.9 32.92C371.887 32.9467 371.127 32.9733 370.62 33V32.16C371.607 32.16 372.3 31.96 372.7 31.56C373.127 31.16 373.34 30.4 373.34 29.28V6.48C373.34 5.28 373.154 4.4 372.78 3.84C372.407 3.25333 371.687 2.96 370.62 2.96V2.12C371.474 2.2 372.3 2.24 373.1 2.24C374.114 2.24 375.06 2.2 375.94 2.12C376.82 2.01333 377.634 1.86667 378.38 1.68ZM383.21 0.759998C386.223 3.13333 388.57 5.94667 390.25 9.2C391.956 12.4533 392.81 16.2267 392.81 20.52C392.81 24.8133 391.956 28.5867 390.25 31.84C388.57 35.0933 386.223 37.9067 383.21 40.28L382.65 39.76C384.57 37.0133 385.943 34.1067 386.77 31.04C387.596 27.9467 388.01 24.44 388.01 20.52C388.01 16.6 387.596 13.0933 386.77 10C385.943 6.90666 384.57 4 382.65 1.28L383.21 0.759998Z"
        fill="#D8B192"
    />
</svg>