<svg
    width="145"
    height="128"
    viewBox="0 0 145 128"
    fill="none"
    xmlns="http://www.w3.org/2000/svg"
>
    <path
        d="M35.816 29.4886C51.8358 32.6033 62.9078 27.3583 69.9647 21.3191C73.4869 18.3049 76.0048 15.0972 77.6426 12.6432C78.4619 11.4157 79.0619 10.3752 79.4581 9.63949C79.6562 9.27157 79.8035 8.97971 79.9017 8.7786C79.9508 8.67805 79.9877 8.60016 80.0126 8.54678C80.0239 8.5226 80.0327 8.50345 80.0391 8.4895C83.1029 3.30812 87.1476 1.24056 91.401 1.2565C95.7006 1.27261 100.301 3.4189 104.402 6.85226C108.497 10.2803 112.046 14.9526 114.246 19.9282C116.448 24.9079 117.278 30.1446 116.01 34.725C114.689 39.4993 114.494 43.0702 115.271 46.1983C116.046 49.3234 117.777 51.9461 120.184 54.8422C121.309 56.1967 122.587 57.6163 123.997 59.1828C128.62 64.3204 134.666 71.0382 141.441 82.224C143.907 86.2951 144.326 90.035 143.095 93.2525C141.858 96.4861 138.917 99.2938 134.454 101.401C125.524 105.617 110.7 106.923 92.2859 103.321C87.9015 102.463 84.0888 104.144 80.5328 106.865C77.8738 108.9 75.3021 111.562 72.7056 114.25C71.847 115.139 70.9857 116.03 70.1177 116.903C66.597 120.443 62.9452 123.695 58.7939 125.425C54.6743 127.142 50.0318 127.372 44.4793 124.795C39.5846 122.523 37.2329 119.737 35.9539 116.612C34.9134 114.069 34.574 111.299 34.2064 108.298C34.1146 107.549 34.0211 106.785 33.9145 106.007C33.385 102.144 32.5347 98.0177 29.898 93.8566C27.2609 89.6949 22.8655 85.542 15.3169 81.5597C7.935 77.6654 3.60226 72.0932 1.71543 66.0352C-0.173963 59.969 0.378756 53.3804 2.83517 47.4518C7.74993 35.5897 20.2372 26.4597 35.816 29.4886Z"
        fill="#D7FFD0"
        stroke="#1F8206"
    />
    <path
        d="M73.8091 69.6587C71.024 74.9963 70.3213 77.833 61.8729 83.1294C61.8073 83.1722 61.7581 83.2359 61.7334 83.3103C60.3837 87.4946 58.0989 91.3167 55.0523 94.4868C55.0113 94.529 54.9824 94.5815 54.9688 94.6388C54.9551 94.6961 54.9572 94.7561 54.9748 94.8123C55.9204 97.9591 56.9438 103.633 54.0964 108.283C49.911 115.13 46.8111 110.996 47.4566 109.446C48.0095 108.118 52.7323 105.265 51.642 98.14C51.6328 98.083 51.6092 98.0293 51.5732 97.9841C51.5373 97.9389 51.4903 97.9037 51.4369 97.8819C51.3834 97.8601 51.3252 97.8524 51.2679 97.8596C51.2106 97.8668 51.1562 97.8886 51.1098 97.9229C47.6865 100.407 43.7575 102.107 39.6026 102.899C39.5564 102.907 39.5124 102.924 39.4735 102.95C39.4345 102.976 39.4015 103.01 39.3766 103.049C39.3517 103.089 39.3354 103.133 39.3289 103.179C39.3225 103.226 39.3259 103.273 39.339 103.318C40.3983 107.11 40.8995 113.037 36.4764 118.489C34.115 121.33 30.9837 117.176 34.115 114.345C36.0578 112.593 35.908 107.555 34.9986 103.674C34.9812 103.599 34.9382 103.532 34.877 103.485C34.8157 103.438 34.7399 103.414 34.6627 103.416C34.4819 103.421 34.2957 103.421 34.115 103.421C27.7238 103.431 21.5102 101.319 16.4486 97.4165C16.4022 97.3804 16.3473 97.3568 16.2892 97.3483C16.231 97.3398 16.1717 97.3466 16.1169 97.3679C16.0622 97.3893 16.014 97.4246 15.977 97.4702C15.94 97.5159 15.9155 97.5704 15.906 97.6284C14.6917 105.648 19.5129 108.423 20.1999 110.479C20.9646 112.778 19.2077 114.825 17.0427 114.246C16.9958 114.232 16.952 114.209 16.9136 114.179C9.85527 108.877 10.4701 97.7679 11.2452 92.4199C11.2523 92.3762 11.25 92.3314 11.2384 92.2887C11.2268 92.2459 11.2062 92.2061 11.178 92.1719C7.23083 87.0925 5.09391 80.84 5.10658 74.4072C5.10658 62.6106 12.1494 52.4571 22.2616 47.9255C22.2623 47.9256 22.2629 47.9254 22.2636 47.9252C22.2642 47.925 22.2648 47.9246 22.2653 47.9241C22.2658 47.9236 22.2661 47.9231 22.2664 47.9224C22.2667 47.9218 22.2668 47.9211 22.2668 47.9204C23.822 45.9514 25.7184 43.1666 26.0079 41.2135C26.0174 41.1473 26.0465 41.0855 26.0913 41.0359C26.1362 40.9863 26.1948 40.9513 26.2597 40.9352C26.3246 40.9191 26.3928 40.9227 26.4556 40.9456C26.5184 40.9684 26.573 41.0095 26.6124 41.0636C27.3565 42.066 28.5088 43.9779 28.2556 45.9931C28.2452 46.0602 28.2401 46.1273 28.2297 46.1945C28.209 46.3083 28.1833 46.4167 28.1574 46.5304C28.1315 46.6183 28.1109 46.7061 28.0799 46.794C28.4412 46.4924 28.7861 46.1716 29.1128 45.8328C29.8723 45.0527 30.8334 43.8797 31.2468 42.6241C31.2664 42.5571 31.3062 42.4978 31.3609 42.4544C31.4155 42.411 31.4822 42.3856 31.5519 42.3816C31.6216 42.3777 31.6908 42.3955 31.7499 42.4325C31.8091 42.4695 31.8553 42.5239 31.8823 42.5883C32.1508 43.2497 32.4662 44.1746 32.5747 45.1202C32.584 45.205 32.6247 45.2832 32.6887 45.3396C32.7528 45.396 32.8355 45.4265 32.9208 45.425C33.3188 45.4095 33.7166 45.3992 34.1145 45.3992C50.1378 45.3992 63.1281 58.3894 63.1281 74.4076C63.1281 74.7746 63.1229 75.1361 63.1073 75.4978C63.105 75.553 63.1163 75.608 63.14 75.6579C63.1637 75.7078 63.1993 75.7512 63.2436 75.7842C63.2878 75.8173 63.3395 75.8391 63.3941 75.8477C63.4487 75.8563 63.5046 75.8515 63.5569 75.8337C65.2827 75.2291 67.4581 73.772 68.7705 70.3048C71.225 63.8459 71.4834 62.0375 70.7083 56.9994C69.9332 51.9614 73.6797 52.2201 74.4544 53.8991C75.2291 55.5781 76.9091 63.7164 73.8091 69.6587Z"
        fill="#39E50E"
    />
    <path
        d="M22.7827 76.952C22.6839 76.9519 22.5879 76.9191 22.5097 76.8587C22.4315 76.7983 22.3754 76.7137 22.3503 76.6182C22.1555 75.7672 22.1136 74.8883 22.2267 74.0227C22.4812 72.1412 23.5051 70.7582 25.1878 70.0233C26.2874 69.5429 27.3268 69.5152 28.2771 69.9412C30.2249 70.8142 31.0541 73.2895 31.0885 73.3944C31.1218 73.5061 31.1102 73.6265 31.0561 73.7298C31.002 73.8331 30.9097 73.9112 30.7989 73.9475C30.6881 73.9838 30.5675 73.9754 30.4628 73.9241C30.358 73.8728 30.2775 73.7826 30.2382 73.6728C30.2312 73.6513 29.4936 71.4646 27.9084 70.7565C27.1986 70.4396 26.404 70.4688 25.5463 70.8434C24.1539 71.452 23.3368 72.5529 23.1177 74.1159C23.0176 74.8746 23.0511 75.6449 23.2167 76.392C23.2465 76.5069 23.2295 76.6289 23.1694 76.7312C23.1093 76.8336 23.0111 76.9079 22.8963 76.9379C22.8592 76.9474 22.821 76.9521 22.7827 76.952Z"
        fill="black"
    />
    <path
        d="M36.2727 72.854C36.179 72.8539 36.0876 72.8244 36.0115 72.7696C35.9354 72.7148 35.8784 72.6375 35.8487 72.5486C35.5989 71.7157 35.5001 70.8448 35.5569 69.9771C35.6889 68.0909 36.6211 66.65 38.2528 65.8104C39.3211 65.2608 40.358 65.166 41.3355 65.5303C43.3313 66.2732 44.3178 68.6736 44.3588 68.7754C44.4018 68.8852 44.3997 69.0076 44.353 69.1159C44.3063 69.2242 44.2188 69.3096 44.1094 69.3537C44 69.3978 43.8776 69.3969 43.7689 69.3512C43.6601 69.3056 43.5738 69.2188 43.5287 69.1099C43.5197 69.089 42.6445 66.9701 41.0199 66.3679C40.2892 66.0968 39.4962 66.177 38.6625 66.6063C37.3127 67.3008 36.569 68.4468 36.4518 70.0127C36.4012 70.7723 36.4845 71.5348 36.6978 72.2655C36.72 72.3327 36.726 72.4043 36.7152 72.4743C36.7043 72.5443 36.6771 72.6108 36.6356 72.6682C36.5941 72.7256 36.5397 72.7724 36.4766 72.8047C36.4136 72.837 36.3437 72.8539 36.2729 72.854H36.2727Z"
        fill="black"
    />
    <path
        d="M35.134 82.216C32.0882 82.216 29.7659 80.1889 29.6496 80.0859C29.6057 80.0469 29.5698 79.9996 29.5442 79.9468C29.5185 79.8939 29.5035 79.8365 29.5 79.7778C29.4965 79.7192 29.5046 79.6604 29.5239 79.6048C29.5431 79.5493 29.5731 79.4981 29.6121 79.4542C29.6511 79.4102 29.6984 79.3744 29.7513 79.3487C29.8042 79.3231 29.8616 79.3081 29.9202 79.3046C29.9789 79.3011 30.0377 79.3092 30.0932 79.3284C30.1488 79.3477 30.2 79.3776 30.2439 79.4167C30.2744 79.4435 33.3412 82.1091 36.7941 81.0798C40.2309 80.0558 41.1735 75.6919 41.1827 75.6481C41.2078 75.533 41.2772 75.4324 41.376 75.3682C41.4747 75.304 41.5948 75.2813 41.7102 75.305C41.8255 75.3288 41.9269 75.3971 41.9922 75.4951C42.0576 75.5931 42.0817 75.7129 42.0593 75.8285C41.8465 76.7324 41.5132 77.6036 41.0684 78.4187C40.0859 80.2301 38.6966 81.447 37.0498 81.9376C36.4281 82.1229 35.7828 82.2167 35.134 82.216V82.216Z"
        fill="black"
    />
    <path
        d="M131.599 62.2978C131.561 63.2694 131.462 64.2378 131.303 65.1971C129.146 78.3945 116.704 87.3402 103.507 85.1825C90.3147 83.026 81.364 70.5835 83.5216 57.386C83.6592 56.5447 83.841 55.7213 84.056 54.9183C74.268 48.2712 74.8397 35.4532 76.716 34.0321C78.611 32.5932 80.6798 33.8057 80.4637 37.7862C80.2413 43.5668 83.8002 48.3472 85.7741 50.4294C90.3954 41.216 100.609 35.6499 111.318 37.4005C121.711 39.0993 129.464 47.1784 131.239 56.9766C133.176 56.2724 136.597 54.2399 139.369 48.4625C139.756 47.3111 139.863 46.4647 139.884 45.9549C139.898 45.4787 140.084 45.0236 140.407 44.674C141.014 44.04 142.087 43.3673 143.473 44.4003C143.788 44.636 144.043 44.9438 144.214 45.298C144.386 45.6523 144.47 46.0425 144.46 46.436C144.373 49.5583 141.874 57.1553 131.599 62.2978Z"
        fill="#93DF86"
    />
    <path
        d="M117.202 66.5781C116.591 70.3161 111.45 72.5857 105.723 71.6496C99.9916 70.7127 95.8412 66.924 96.4522 63.1863C96.5685 62.4902 96.8405 61.8294 97.2479 61.2531C97.3592 61.0971 97.5262 60.9897 97.7143 60.953C97.9024 60.9164 98.0975 60.9533 98.2592 61.0562C100.311 62.3408 103.559 63.4736 107.306 64.0861C110.754 64.6499 113.945 64.6584 116.268 64.2178C116.457 64.1815 116.652 64.2194 116.814 64.3236C116.976 64.4277 117.092 64.5902 117.137 64.7773C117.277 65.3675 117.299 65.9795 117.202 66.5781Z"
        fill="black"
    />
    <path
        d="M106.335 59.1615C106.27 59.1616 106.206 59.1476 106.147 59.1204C106.088 59.0932 106.036 59.0535 105.994 59.004C105.952 58.9546 105.921 58.8966 105.904 58.834C105.886 58.7715 105.883 58.7059 105.893 58.6418C106.043 57.723 105.822 56.7821 105.279 56.0261C104.735 55.2702 103.914 54.7611 102.995 54.6109C102.076 54.4607 101.135 54.6817 100.379 55.2252C99.6233 55.7688 99.1142 56.5903 98.964 57.5092C98.9449 57.6263 98.88 57.731 98.7836 57.8003C98.6872 57.8696 98.5673 57.8978 98.4501 57.8786C98.333 57.8595 98.2283 57.7946 98.159 57.6982C98.0897 57.6018 98.0616 57.4819 98.0807 57.3647C98.2692 56.2116 98.9081 55.1806 99.8568 54.4985C100.805 53.8164 101.986 53.5391 103.139 53.7276C104.292 53.9161 105.323 54.5549 106.006 55.5036C106.688 56.4523 106.965 57.6331 106.776 58.7862C106.759 58.8909 106.706 58.9861 106.625 59.0548C106.544 59.1236 106.441 59.1614 106.335 59.1615V59.1615Z"
        fill="black"
    />
    <path
        d="M117.07 60.9164C117.005 60.9164 116.941 60.9022 116.882 60.875C116.823 60.8477 116.771 60.808 116.729 60.7586C116.687 60.7092 116.656 60.6512 116.639 60.5887C116.621 60.5262 116.618 60.4607 116.628 60.3966C116.774 59.4794 116.552 58.5416 116.008 57.7884C115.464 57.0353 114.644 56.5283 113.728 56.3785C112.811 56.2287 111.872 56.4482 111.117 56.989C110.362 57.5299 109.852 58.3479 109.699 59.264C109.69 59.3222 109.669 59.3779 109.638 59.428C109.607 59.4782 109.567 59.5217 109.519 59.5562C109.471 59.5906 109.417 59.6153 109.36 59.6288C109.302 59.6423 109.243 59.6444 109.185 59.6349C109.127 59.6254 109.071 59.6045 109.021 59.5735C108.971 59.5424 108.928 59.5018 108.893 59.4539C108.859 59.4061 108.834 59.3519 108.821 59.2945C108.808 59.2372 108.806 59.1777 108.816 59.1196C109.007 57.9695 109.647 56.9422 110.595 56.2629C111.543 55.5837 112.721 55.3079 113.872 55.496C115.023 55.6842 116.052 56.3208 116.734 57.2665C117.416 58.2122 117.696 59.3897 117.511 60.5411C117.494 60.6458 117.44 60.741 117.36 60.8098C117.279 60.8785 117.176 60.9163 117.07 60.9164Z"
        fill="black"
    />
</svg>