<svg width="177" height="37" viewBox="0 0 177 37" fill="none" xmlns="http://www.w3.org/2000/svg">
<path d="M12.2714 0.68V1.48C11.4181 1.50667 10.7647 1.61333 10.3114 1.8C9.88474 1.96 9.59141 2.28 9.43141 2.76C9.27141 3.21333 9.19141 3.93333 9.19141 4.92V24.76C9.19141 25.72 9.27141 26.44 9.43141 26.92C9.59141 27.4 9.88474 27.72 10.3114 27.88C10.7647 28.04 11.4181 28.1467 12.2714 28.2V29C11.6047 28.9467 10.7514 28.92 9.71141 28.92C8.67141 28.8933 7.61807 28.88 6.55141 28.88C5.35141 28.88 4.23141 28.8933 3.19141 28.92C2.15141 28.92 1.29807 28.9467 0.631406 29V28.2C1.51141 28.1467 2.16474 28.04 2.59141 27.88C3.04474 27.72 3.33807 27.4 3.47141 26.92C3.63141 26.44 3.71141 25.72 3.71141 24.76V4.92C3.71141 3.93333 3.63141 3.21333 3.47141 2.76C3.33807 2.28 3.04474 1.96 2.59141 1.8C2.16474 1.61333 1.51141 1.50667 0.631406 1.48V0.68C1.29807 0.706666 2.15141 0.733332 3.19141 0.759999C4.23141 0.786665 5.35141 0.799998 6.55141 0.799998C7.61807 0.799998 8.67141 0.786665 9.71141 0.759999C10.7514 0.733332 11.6047 0.706666 12.2714 0.68ZM29.1617 7.76C30.2817 7.76 31.1751 7.90667 31.8417 8.2C32.5351 8.49333 33.0951 8.86667 33.5217 9.32C34.0017 9.82667 34.3351 10.48 34.5217 11.28C34.7351 12.08 34.8417 13.16 34.8417 14.52V25.28C34.8417 26.4 35.0417 27.16 35.4417 27.56C35.8684 27.96 36.5751 28.16 37.5617 28.16V29C37.0817 28.9733 36.3351 28.9467 35.3217 28.92C34.3351 28.8667 33.3751 28.84 32.4417 28.84C31.4551 28.84 30.4951 28.8667 29.5617 28.92C28.6284 28.9467 27.9351 28.9733 27.4817 29V28.16C28.3351 28.16 28.9351 27.96 29.2817 27.56C29.6284 27.16 29.8017 26.4 29.8017 25.28V13.16C29.8017 12.44 29.7351 11.8 29.6017 11.24C29.4684 10.6533 29.2017 10.2 28.8017 9.88C28.4017 9.53333 27.8284 9.36 27.0817 9.36C26.2017 9.36 25.4151 9.6 24.7217 10.08C24.0551 10.56 23.5217 11.2267 23.1217 12.08C22.7484 12.9067 22.5617 13.84 22.5617 14.88V25.28C22.5617 26.4 22.7351 27.16 23.0817 27.56C23.4284 27.96 24.0284 28.16 24.8817 28.16V29C24.4284 28.9733 23.7484 28.9467 22.8417 28.92C21.9351 28.8667 21.0151 28.84 20.0817 28.84C19.0951 28.84 18.0951 28.8667 17.0817 28.92C16.0684 28.9467 15.3084 28.9733 14.8017 29V28.16C15.7884 28.16 16.4817 27.96 16.8817 27.56C17.3084 27.16 17.5217 26.4 17.5217 25.28V12.68C17.5217 11.48 17.3217 10.6 16.9217 10.04C16.5484 9.45333 15.8417 9.16 14.8017 9.16V8.32C15.6551 8.4 16.4817 8.44 17.2817 8.44C18.2684 8.44 19.2017 8.4 20.0817 8.32C20.9884 8.21333 21.8151 8.06667 22.5617 7.88V11.88C23.2284 10.36 24.1484 9.29333 25.3217 8.68C26.4951 8.06667 27.7751 7.76 29.1617 7.76ZM57.668 8.32V9.16C57.1613 9.26667 56.6813 9.54667 56.228 10C55.8013 10.4533 55.388 11.2533 54.988 12.4L48.868 29.12C48.548 29.0933 48.228 29.08 47.908 29.08C47.588 29.08 47.2546 29.0933 46.908 29.12L39.708 11.4C39.308 10.3867 38.8946 9.76 38.468 9.52C38.0413 9.28 37.6813 9.16 37.388 9.16V8.32C38.1346 8.37333 38.908 8.42667 39.708 8.48C40.508 8.50667 41.388 8.52 42.348 8.52C43.1746 8.52 44.0413 8.50667 44.948 8.48C45.8813 8.42667 46.748 8.37333 47.548 8.32V9.16C46.9613 9.16 46.428 9.2 45.948 9.28C45.4946 9.36 45.188 9.57333 45.028 9.92C44.868 10.24 44.9346 10.8133 45.228 11.64L50.028 24.08L49.668 24.52L53.308 14.64C53.7613 13.3867 53.948 12.3733 53.868 11.6C53.788 10.8267 53.4946 10.24 52.988 9.84C52.508 9.44 51.8146 9.21333 50.908 9.16V8.32C51.3613 8.34667 51.788 8.37333 52.188 8.4C52.6146 8.42667 53.028 8.45333 53.428 8.48C53.8546 8.48 54.2546 8.48 54.628 8.48C55.188 8.48 55.7346 8.46667 56.268 8.44C56.828 8.41333 57.2946 8.37333 57.668 8.32ZM68.3192 7.76C70.6659 7.76 72.5059 8.46667 73.8392 9.88C75.1726 11.2933 75.8392 13.5467 75.8392 16.64H62.3592L62.3192 15.88H71.1992C71.2526 14.5733 71.1726 13.3733 70.9592 12.28C70.7459 11.16 70.3992 10.2667 69.9192 9.6C69.4659 8.93333 68.8659 8.6 68.1192 8.6C67.1059 8.6 66.2259 9.2 65.4792 10.4C64.7326 11.5733 64.2659 13.5067 64.0792 16.2L64.2392 16.44C64.1859 16.7867 64.1459 17.16 64.1192 17.56C64.1192 17.96 64.1192 18.36 64.1192 18.76C64.1192 20.6 64.3859 22.12 64.9192 23.32C65.4526 24.52 66.1459 25.4 66.9992 25.96C67.8526 26.52 68.7326 26.8 69.6392 26.8C70.2526 26.8 70.8792 26.7067 71.5192 26.52C72.1592 26.3333 72.7859 25.9867 73.3992 25.48C74.0126 24.9733 74.5726 24.2533 75.0792 23.32L75.8392 23.64C75.5459 24.5733 75.0526 25.5067 74.3592 26.44C73.6926 27.3467 72.8259 28.0933 71.7592 28.68C70.6926 29.2667 69.4392 29.56 67.9992 29.56C66.1859 29.56 64.5859 29.16 63.1992 28.36C61.8126 27.56 60.7326 26.3733 59.9592 24.8C59.1859 23.2 58.7992 21.2533 58.7992 18.96C58.7992 16.5333 59.1992 14.4933 59.9992 12.84C60.8259 11.1867 61.9592 9.93333 63.3992 9.08C64.8392 8.2 66.4792 7.76 68.3192 7.76ZM92.6383 7.76C93.7583 7.76 94.6516 7.90667 95.3183 8.2C96.0116 8.49333 96.5716 8.86667 96.9983 9.32C97.4783 9.82667 97.8116 10.48 97.9983 11.28C98.2116 12.08 98.3183 13.16 98.3183 14.52V25.28C98.3183 26.4 98.5183 27.16 98.9183 27.56C99.3449 27.96 100.052 28.16 101.038 28.16V29C100.558 28.9733 99.8116 28.9467 98.7983 28.92C97.8116 28.8667 96.8516 28.84 95.9183 28.84C94.9316 28.84 93.9716 28.8667 93.0383 28.92C92.1049 28.9467 91.4116 28.9733 90.9583 29V28.16C91.8116 28.16 92.4116 27.96 92.7583 27.56C93.1049 27.16 93.2783 26.4 93.2783 25.28V13.16C93.2783 12.44 93.2116 11.8 93.0783 11.24C92.9449 10.6533 92.6783 10.2 92.2783 9.88C91.8783 9.53333 91.3049 9.36 90.5583 9.36C89.6783 9.36 88.8916 9.6 88.1983 10.08C87.5316 10.56 86.9983 11.2267 86.5983 12.08C86.2249 12.9067 86.0383 13.84 86.0383 14.88V25.28C86.0383 26.4 86.2116 27.16 86.5583 27.56C86.9049 27.96 87.5049 28.16 88.3583 28.16V29C87.9049 28.9733 87.2249 28.9467 86.3183 28.92C85.4116 28.8667 84.4916 28.84 83.5583 28.84C82.5716 28.84 81.5716 28.8667 80.5583 28.92C79.5449 28.9467 78.7849 28.9733 78.2783 29V28.16C79.2649 28.16 79.9583 27.96 80.3583 27.56C80.7849 27.16 80.9983 26.4 80.9983 25.28V12.68C80.9983 11.48 80.7983 10.6 80.3983 10.04C80.0249 9.45333 79.3183 9.16 78.2783 9.16V8.32C79.1316 8.4 79.9583 8.44 80.7583 8.44C81.7449 8.44 82.6783 8.4 83.5583 8.32C84.4649 8.21333 85.2916 8.06667 86.0383 7.88V11.88C86.7049 10.36 87.6249 9.29333 88.7983 8.68C89.9716 8.06667 91.2516 7.76 92.6383 7.76ZM110.174 1.76V8.36H115.294V9.16H110.174V25.08C110.174 26.04 110.348 26.72 110.694 27.12C111.041 27.52 111.534 27.72 112.174 27.72C112.788 27.72 113.348 27.4933 113.854 27.04C114.361 26.56 114.814 25.7733 115.214 24.68L115.934 25C115.534 26.3067 114.908 27.4 114.054 28.28C113.228 29.1333 112.054 29.56 110.534 29.56C109.628 29.56 108.854 29.44 108.214 29.2C107.601 28.9867 107.068 28.6667 106.614 28.24C106.028 27.6267 105.628 26.8933 105.414 26.04C105.228 25.1867 105.134 24.0533 105.134 22.64V9.16H101.614V8.36H105.134V2.8C106.094 2.77333 106.988 2.68 107.814 2.52C108.641 2.36 109.428 2.10666 110.174 1.76ZM126.759 7.76C128.599 7.76 130.225 8.13333 131.639 8.88C133.079 9.6 134.212 10.76 135.039 12.36C135.892 13.96 136.319 16.0667 136.319 18.68C136.319 21.2933 135.892 23.4 135.039 25C134.212 26.6 133.079 27.76 131.639 28.48C130.225 29.2 128.599 29.56 126.759 29.56C124.919 29.56 123.279 29.2 121.839 28.48C120.399 27.76 119.265 26.6 118.439 25C117.612 23.4 117.199 21.2933 117.199 18.68C117.199 16.0667 117.612 13.96 118.439 12.36C119.265 10.76 120.399 9.6 121.839 8.88C123.279 8.13333 124.919 7.76 126.759 7.76ZM126.759 8.56C125.505 8.56 124.479 9.36 123.679 10.96C122.905 12.5333 122.519 15.1067 122.519 18.68C122.519 22.2533 122.905 24.8267 123.679 26.4C124.479 27.9733 125.505 28.76 126.759 28.76C127.985 28.76 128.999 27.9733 129.799 26.4C130.599 24.8267 130.999 22.2533 130.999 18.68C130.999 15.1067 130.599 12.5333 129.799 10.96C128.999 9.36 127.985 8.56 126.759 8.56ZM152.222 7.76C153.049 7.76 153.729 7.93333 154.262 8.28C154.822 8.62667 155.236 9.06667 155.502 9.6C155.769 10.1333 155.902 10.6933 155.902 11.28C155.902 12.16 155.636 12.8933 155.102 13.48C154.596 14.0667 153.916 14.36 153.062 14.36C152.262 14.36 151.609 14.1467 151.102 13.72C150.596 13.2933 150.342 12.7067 150.342 11.96C150.342 11.2933 150.502 10.7333 150.822 10.28C151.169 9.82667 151.556 9.46667 151.982 9.2C151.689 9.04 151.356 8.98667 150.982 9.04C150.342 9.09333 149.756 9.32 149.222 9.72C148.689 10.12 148.236 10.6133 147.862 11.2C147.489 11.7867 147.196 12.4133 146.982 13.08C146.796 13.7467 146.702 14.3867 146.702 15V24.88C146.702 26.1867 147.036 27.0667 147.702 27.52C148.369 27.9467 149.342 28.16 150.622 28.16V29C150.009 28.9733 149.116 28.9467 147.942 28.92C146.796 28.8667 145.596 28.84 144.342 28.84C143.302 28.84 142.262 28.8667 141.222 28.92C140.209 28.9467 139.449 28.9733 138.942 29V28.16C139.929 28.16 140.622 27.96 141.022 27.56C141.449 27.16 141.662 26.4 141.662 25.28V12.68C141.662 11.48 141.462 10.6 141.062 10.04C140.689 9.45333 139.982 9.16 138.942 9.16V8.32C139.796 8.4 140.622 8.44 141.422 8.44C142.409 8.44 143.342 8.4 144.222 8.32C145.129 8.21333 145.956 8.06667 146.702 7.88V12.04C147.022 11.2933 147.436 10.6 147.942 9.96C148.476 9.32 149.102 8.8 149.822 8.4C150.569 7.97333 151.369 7.76 152.222 7.76ZM176.502 8.32V9.16C175.995 9.26667 175.515 9.54667 175.062 10C174.635 10.4533 174.222 11.2533 173.822 12.4L167.902 28.64L166.662 30.52L158.422 11.4C157.915 10.3867 157.435 9.76 156.982 9.52C156.528 9.28 156.155 9.16 155.862 9.16V8.32C156.635 8.4 157.435 8.46667 158.262 8.52C159.115 8.54667 159.968 8.56 160.822 8.56C161.808 8.56 162.755 8.53333 163.662 8.48C164.595 8.42667 165.462 8.37333 166.262 8.32V9.16C165.648 9.16 165.102 9.2 164.622 9.28C164.142 9.36 163.822 9.58667 163.662 9.96C163.528 10.3067 163.635 10.92 163.982 11.8L168.982 24L168.662 24.16L172.182 14.64C172.635 13.3867 172.822 12.3733 172.742 11.6C172.662 10.8267 172.368 10.24 171.862 9.84C171.355 9.44 170.662 9.21333 169.782 9.16V8.32C170.208 8.34667 170.635 8.37333 171.062 8.4C171.488 8.42667 171.902 8.45333 172.302 8.48C172.702 8.48 173.088 8.48 173.462 8.48C174.022 8.48 174.568 8.46667 175.102 8.44C175.662 8.41333 176.128 8.37333 176.502 8.32ZM167.902 28.64L166.382 32.68C166.142 33.3467 165.875 33.9067 165.582 34.36C165.315 34.84 165.008 35.2267 164.662 35.52C164.262 35.8667 163.768 36.12 163.182 36.28C162.622 36.44 161.995 36.52 161.302 36.52C160.688 36.52 160.088 36.4133 159.502 36.2C158.942 35.9867 158.462 35.6667 158.062 35.24C157.688 34.8133 157.502 34.2533 157.502 33.56C157.502 32.8133 157.755 32.2133 158.262 31.76C158.768 31.3067 159.462 31.08 160.342 31.08C161.115 31.08 161.742 31.2667 162.222 31.64C162.728 32.04 162.982 32.6267 162.982 33.4C162.982 33.9067 162.835 34.36 162.542 34.76C162.248 35.16 161.835 35.4667 161.302 35.68C161.435 35.7067 161.555 35.72 161.662 35.72C161.795 35.7467 161.902 35.76 161.982 35.76C162.755 35.76 163.448 35.5067 164.062 35C164.675 34.4933 165.168 33.6933 165.542 32.6L166.982 28.64H167.902Z" fill="#D8B192"/>
</svg>
