<svg width="26" height="27" viewBox="0 0 26 27" fill="none" xmlns="http://www.w3.org/2000/svg">
                                        <path
                                            d="M7.42089 0.222168H4.66811C2.38763 0.222168 0.53894 2.18714 0.53894 4.61106V7.53698C0.53894 9.9609 2.38763 11.9259 4.66811 11.9259H7.42089C9.70136 11.9259 11.5501 9.9609 11.5501 7.53698V4.61106C11.5501 2.18714 9.70136 0.222168 7.42089 0.222168Z"
                                            fill="#322A7D" />
                                        <path
                                            d="M21.1848 0.222168H18.432C16.1515 0.222168 14.3029 2.18714 14.3029 4.61106V7.53698C14.3029 9.9609 16.1515 11.9259 18.432 11.9259H21.1848C23.4653 11.9259 25.314 9.9609 25.314 7.53698V4.61106C25.314 2.18714 23.4653 0.222168 21.1848 0.222168Z"
                                            fill="#322A7D" />
                                        <path
                                            d="M21.1848 14.8516H18.432C16.1515 14.8516 14.3029 16.8165 14.3029 19.2405V22.1664C14.3029 24.5903 16.1515 26.5553 18.432 26.5553H21.1848C23.4653 26.5553 25.314 24.5903 25.314 22.1664V19.2405C25.314 16.8165 23.4653 14.8516 21.1848 14.8516Z"
                                            fill="#322A7D" />
                                        <path
                                            d="M7.42089 14.8516H4.66811C2.38763 14.8516 0.53894 16.8165 0.53894 19.2405V22.1664C0.53894 24.5903 2.38763 26.5553 4.66811 26.5553H7.42089C9.70136 26.5553 11.5501 24.5903 11.5501 22.1664V19.2405C11.5501 16.8165 9.70136 14.8516 7.42089 14.8516Z"
                                            fill="#322A7D" />
                                    </svg>