<svg width="27" height="28" viewBox="0 0 27 28" fill="none" xmlns="http://www.w3.org/2000/svg">
                            <path
                                d="M8.5329 21.0976V23.1545C8.53436 24.2454 8.94279 25.2911 9.66862 26.0623C10.3944 26.8335 11.3784 27.2672 12.4047 27.2684H22.1316C23.1577 27.2668 24.1413 26.8329 24.8668 26.0618C25.5923 25.2906 26.0006 24.2451 26.002 23.1545V5.05037C26.0009 3.95928 25.5927 2.91321 24.8668 2.14169C24.1409 1.37017 23.1568 0.93622 22.1302 0.935059L12.4047 0.935059C11.3782 0.93622 10.394 1.37017 9.66813 2.14169C8.94227 2.91321 8.534 3.95928 8.5329 5.05037V7.1073C8.5329 7.38006 8.63485 7.64166 8.81631 7.83453C8.99777 8.02741 9.24388 8.13576 9.50051 8.13576C9.75713 8.13576 10.0032 8.02741 10.1847 7.83453C10.3662 7.64166 10.4681 7.38006 10.4681 7.1073V5.05037C10.4685 4.50457 10.6726 3.98124 11.0357 3.5953C11.3988 3.20936 11.8912 2.99237 12.4047 2.99198H22.1316C22.6446 2.99276 23.1365 3.20972 23.4992 3.5953C23.862 3.98088 24.0661 4.50362 24.0668 5.04891V23.1545C24.0661 23.6998 23.862 24.2226 23.4992 24.6082C23.1365 24.9937 22.6446 25.2107 22.1316 25.2115H12.4047C11.8917 25.2107 11.3999 24.9937 11.0371 24.6082C10.6743 24.2226 10.4702 23.6998 10.4695 23.1545V21.0976C10.4695 20.8248 10.3675 20.5633 10.1861 20.3704C10.0046 20.1775 9.7585 20.0692 9.50188 20.0692C9.24526 20.0692 8.99914 20.1775 8.81768 20.3704C8.63622 20.5633 8.5329 20.8248 8.5329 21.0976ZM1.9345 12.3359L4.10231 10.0318C4.28373 9.83893 4.5298 9.73059 4.78637 9.73059C5.04295 9.73059 5.28901 9.83893 5.47044 10.0318C5.65186 10.2246 5.75379 10.4861 5.75379 10.7589C5.75379 11.0316 5.65186 11.2931 5.47044 11.4859L3.92888 13.1245H15.5497C15.8064 13.1245 16.0525 13.2328 16.2339 13.4257C16.4154 13.6186 16.5173 13.8802 16.5173 14.1529C16.5173 14.4257 16.4154 14.6873 16.2339 14.8802C16.0525 15.073 15.8064 15.1814 15.5497 15.1814H3.92888L5.47044 16.8199C5.56027 16.9154 5.63153 17.0287 5.68015 17.1535C5.72876 17.2783 5.75379 17.412 5.75379 17.547C5.75379 17.682 5.72876 17.8157 5.68015 17.9405C5.63153 18.0653 5.56027 18.1786 5.47044 18.2741C5.38061 18.3696 5.27396 18.4453 5.15659 18.497C5.03921 18.5487 4.91342 18.5753 4.78637 18.5753C4.65933 18.5753 4.53353 18.5487 4.41616 18.497C4.29879 18.4453 4.19214 18.3696 4.10231 18.2741L1.9345 15.9729C1.48147 15.4902 1.22705 14.8362 1.22705 14.1544C1.22705 13.4726 1.48147 12.8186 1.9345 12.3359Z"
                                fill="#BBC5D5" stroke="#BBC5D5" />
                        </svg>