<svg width="27" height="27" viewBox="0 0 27 27" fill="none" xmlns="http://www.w3.org/2000/svg">
                                        <path
                    d="M4.09687 27.3333C3.27587 27.3322 2.4888 26.985 1.90826 26.3679C1.32772 25.7509 1.00109 24.9143 1 24.0417L1 4.29167C1.00109 3.41902 1.32772 2.58245 1.90826 1.96539C2.4888 1.34833 3.27587 1.00116 4.09687 1H22.6781C23.4991 1.00116 24.2862 1.34833 24.8667 1.96539C25.4473 2.58245 25.7739 3.41902 25.775 4.29167V24.0417C25.7739 24.9143 25.4473 25.7509 24.8667 26.3679C24.2862 26.985 23.4991 27.3322 22.6781 27.3333H4.09687ZM3.06458 4.29167V24.0417C3.06495 24.3326 3.17382 24.6114 3.36734 24.8171C3.56085 25.0228 3.82321 25.1385 4.09687 25.1389H22.6781C22.9518 25.1385 23.2141 25.0228 23.4077 24.8171C23.6012 24.6114 23.7101 24.3326 23.7104 24.0417V4.29167C23.7101 4.00078 23.6012 3.72193 23.4077 3.51624C23.2141 3.31056 22.9518 3.19483 22.6781 3.19444H4.09687C3.82321 3.19483 3.56085 3.31056 3.36734 3.51624C3.17382 3.72193 3.06495 4.00078 3.06458 4.29167ZM6.46151 21.5298C6.31697 21.3762 6.21911 21.18 6.18058 20.9667C6.14206 20.7533 6.16464 20.5326 6.24542 20.3331C6.29764 20.2004 6.37071 20.0783 6.46151 19.9717C6.56205 19.8745 6.6775 19.7963 6.80286 19.7406C6.92663 19.6813 7.06046 19.6496 7.19617 19.6471C7.33188 19.6447 7.46664 19.6717 7.59222 19.7265C7.71779 19.7812 7.83155 19.8626 7.92656 19.9656C8.02158 20.0687 8.09584 20.1912 8.14483 20.3257C8.20262 20.456 8.23091 20.5988 8.22742 20.7427C8.22691 20.9599 8.16599 21.1721 8.05233 21.3526C7.93867 21.5331 7.77734 21.6739 7.58862 21.7572C7.3999 21.8406 7.19221 21.8627 6.99167 21.821C6.79112 21.7792 6.60668 21.6753 6.46151 21.5224V21.5298ZM11.3229 21.8472C11.0491 21.8472 10.7866 21.7316 10.593 21.5259C10.3994 21.3201 10.2906 21.041 10.2906 20.75C10.2906 20.459 10.3994 20.1799 10.593 19.9741C10.7866 19.7684 11.0491 19.6528 11.3229 19.6528H19.5813C19.855 19.6528 20.1176 19.7684 20.3112 19.9741C20.5048 20.1799 20.6135 20.459 20.6135 20.75C20.6135 21.041 20.5048 21.3201 20.3112 21.5259C20.1176 21.7316 19.855 21.8472 19.5813 21.8472H11.3229ZM6.46151 14.945C6.27296 14.7349 6.16582 14.457 6.16146 14.1667C6.16375 14.0931 6.17065 14.0198 6.1821 13.9472C6.19332 13.8785 6.2142 13.8119 6.24404 13.7497C6.26638 13.6798 6.29739 13.6134 6.33626 13.5522L6.46013 13.3869C6.56079 13.2903 6.67623 13.2126 6.80148 13.1572C7.0528 13.0475 7.3347 13.0475 7.58602 13.1572C7.71078 13.2127 7.82575 13.2904 7.92599 13.3869L8.04986 13.5522C8.08871 13.6134 8.11972 13.6798 8.14208 13.7497C8.17192 13.8119 8.1928 13.8785 8.20402 13.9472C8.21591 14.0198 8.22327 14.0931 8.22604 14.1667C8.22733 14.3111 8.20151 14.4544 8.15008 14.5882C8.09866 14.7219 8.02267 14.8434 7.92656 14.9456C7.83044 15.0477 7.71613 15.1285 7.59031 15.1832C7.46448 15.2378 7.32967 15.2653 7.19375 15.2639C6.92062 15.2593 6.65917 15.1454 6.46151 14.945ZM11.3229 15.2639C11.0491 15.2639 10.7866 15.1483 10.593 14.9425C10.3994 14.7368 10.2906 14.4577 10.2906 14.1667C10.2906 13.8757 10.3994 13.5966 10.593 13.3908C10.7866 13.185 11.0491 13.0694 11.3229 13.0694H19.5813C19.855 13.0694 20.1176 13.185 20.3112 13.3908C20.5048 13.5966 20.6135 13.8757 20.6135 14.1667C20.6135 14.4577 20.5048 14.7368 20.3112 14.9425C20.1176 15.1483 19.855 15.2639 19.5813 15.2639H11.3229ZM6.46151 8.36309C6.36852 8.25835 6.29517 8.1357 6.24542 8.00174C6.19097 7.87036 6.16285 7.72836 6.16285 7.5848C6.16285 7.44123 6.19097 7.29924 6.24542 7.16785C6.29517 7.03389 6.36852 6.91125 6.46151 6.8065C6.56208 6.70935 6.67752 6.63118 6.80286 6.57535C6.99111 6.48767 7.20043 6.46466 7.40158 6.50952C7.46627 6.52146 7.5289 6.54366 7.5874 6.57535C7.65321 6.5996 7.7157 6.63305 7.77321 6.67483L7.92737 6.8065C8.02085 6.91112 8.09467 7.03377 8.14483 7.16785C8.19776 7.29975 8.22582 7.44141 8.22742 7.5848C8.2234 7.87561 8.11624 8.1541 7.92737 8.36456L7.77321 8.49622C7.71564 8.53751 7.65315 8.57047 7.5874 8.59424C7.52891 8.62596 7.46628 8.64815 7.40158 8.66007C7.33331 8.6723 7.26433 8.67963 7.19513 8.68202C6.92152 8.67775 6.65951 8.56384 6.46151 8.36309ZM11.3229 8.68056C11.0491 8.68056 10.7866 8.56496 10.593 8.35919C10.3994 8.15342 10.2906 7.87433 10.2906 7.58333C10.2906 7.29233 10.3994 7.01325 10.593 6.80748C10.7866 6.60171 11.0491 6.48611 11.3229 6.48611H19.5813C19.855 6.48611 20.1176 6.60171 20.3112 6.80748C20.5048 7.01325 20.6135 7.29233 20.6135 7.58333C20.6135 7.87433 20.5048 8.15342 20.3112 8.35919C20.1176 8.56496 19.855 8.68056 19.5813 8.68056H11.3229Z"
                    fill="#322A7D" stroke="#322A7D" stroke-width="0.5"/>
                                    </svg>