<svg width="27" height="27" viewBox="0 0 27 27" fill="none" xmlns="http://www.w3.org/2000/svg">
                                        <path
                                            d="M24.6071 25.2526C24.6057 24.0837 24.1681 22.963 23.3905 22.1365C22.6128 21.3099 21.5585 20.8448 20.4587 20.8433H19.5819C18.4822 20.8448 17.4278 21.3099 16.6502 22.1365C15.8725 22.963 15.435 24.0837 15.4335 25.2526C15.4262 25.4121 15.3615 25.5625 15.2527 25.6727C15.1439 25.7828 14.9995 25.8443 14.8492 25.8443C14.699 25.8443 14.5545 25.7828 14.4457 25.6727C14.337 25.5625 14.2722 25.4121 14.2649 25.2526C14.2668 23.7544 14.8275 22.3181 15.8243 21.2586C16.821 20.1992 18.1723 19.6032 19.5819 19.6012H20.4587C21.8683 19.6032 23.2196 20.1992 24.2164 21.2586C25.2131 22.3181 25.7739 23.7544 25.7757 25.2526C25.7795 25.3367 25.7673 25.4208 25.7396 25.4997C25.712 25.5786 25.6696 25.6507 25.615 25.7117C25.5603 25.7726 25.4946 25.8211 25.4218 25.8543C25.349 25.8875 25.2706 25.9046 25.1914 25.9046C25.1122 25.9046 25.0338 25.8875 24.961 25.8543C24.8882 25.8211 24.8225 25.7726 24.7679 25.7117C24.7132 25.6507 24.6708 25.5786 24.6432 25.4997C24.6156 25.4208 24.6033 25.3367 24.6071 25.2526ZM11.3429 25.2526C11.3414 24.0837 10.9039 22.963 10.1262 22.1365C9.34855 21.3099 8.29422 20.8448 7.19444 20.8433H6.31768C5.21789 20.8448 4.16357 21.3099 3.3859 22.1365C2.60823 22.963 2.1707 24.0837 2.16924 25.2526C2.17308 25.3367 2.16082 25.4208 2.13319 25.4997C2.10556 25.5786 2.06314 25.6507 2.00851 25.7117C1.95388 25.7726 1.88816 25.8211 1.81536 25.8543C1.74255 25.8875 1.66417 25.9046 1.58497 25.9046C1.50576 25.9046 1.42738 25.8875 1.35457 25.8543C1.28177 25.8211 1.21606 25.7726 1.16142 25.7117C1.10679 25.6507 1.06437 25.5786 1.03674 25.4997C1.00911 25.4208 0.996847 25.3367 1.00069 25.2526C1.00251 23.7544 1.56328 22.3181 2.56001 21.2586C3.55674 20.1992 4.90808 19.6032 6.31768 19.6012H7.19444C8.60403 19.6032 9.95537 20.1992 10.9521 21.2586C11.9488 22.3181 12.5096 23.7544 12.5114 25.2526C12.5041 25.4121 12.4394 25.5625 12.3306 25.6727C12.2219 25.7828 12.0774 25.8443 11.9272 25.8443C11.7769 25.8443 11.6324 25.7828 11.5237 25.6727C11.4149 25.5625 11.3502 25.4121 11.3429 25.2526ZM16.0171 14.1619C16.0171 13.3327 16.2484 12.522 16.6819 11.8325C17.1153 11.143 17.7314 10.6056 18.4522 10.2882C19.173 9.97089 19.9662 9.88786 20.7314 10.0496C21.4966 10.2114 22.1995 10.6108 22.7512 11.1971C23.3028 11.7835 23.6785 12.5306 23.8308 13.3439C23.983 14.1573 23.9048 15.0003 23.6063 15.7665C23.3077 16.5326 22.8021 17.1874 22.1534 17.6482C21.5047 18.1089 20.742 18.3548 19.9618 18.3548C18.9159 18.3536 17.9132 17.9115 17.1737 17.1254C16.4341 16.3394 16.0182 15.2736 16.0171 14.1619ZM17.1856 14.1619C17.1856 14.7456 17.3485 15.3162 17.6536 15.8015C17.9587 16.2867 18.3924 16.665 18.8997 16.8882C19.4071 17.1115 19.9654 17.1699 20.5039 17.0559C21.0425 16.9419 21.5372 16.6608 21.9254 16.2479C22.3136 15.8351 22.5779 15.3092 22.6848 14.7367C22.7918 14.1642 22.7366 13.5709 22.5263 13.0317C22.3159 12.4925 21.9599 12.0318 21.5032 11.7077C21.0465 11.3837 20.5096 11.2108 19.9604 11.2111C19.2246 11.2123 18.5193 11.5236 17.9991 12.0768C17.4789 12.6299 17.1864 13.3798 17.1856 14.1619ZM2.75421 14.1619C2.75421 13.3327 2.98556 12.522 3.41901 11.8325C3.85247 11.143 4.46855 10.6056 5.18935 10.2882C5.91016 9.97089 6.70331 9.88786 7.46852 10.0496C8.23372 10.2114 8.9366 10.6108 9.48828 11.1971C10.04 11.7835 10.4157 12.5306 10.5679 13.3439C10.7201 14.1573 10.642 15.0003 10.3434 15.7665C10.0448 16.5326 9.53922 17.1874 8.89051 17.6482C8.24181 18.1089 7.47913 18.3548 6.69894 18.3548C5.65307 18.3536 4.65034 17.9115 3.9108 17.1254C3.17126 16.3394 2.7553 15.2736 2.75421 14.1619ZM3.92276 14.1619C3.92194 14.7458 4.0841 15.3168 4.38872 15.8027C4.69333 16.2885 5.12671 16.6674 5.63399 16.8914C6.14128 17.1153 6.69968 17.1743 7.23851 17.0608C7.77735 16.9474 8.2724 16.6665 8.66101 16.2539C9.04963 15.8412 9.31433 15.3153 9.42163 14.7427C9.52893 14.1701 9.474 13.5765 9.26379 13.0371C9.05358 12.4977 8.69754 12.0367 8.24073 11.7124C7.78392 11.3882 7.24687 11.2152 6.69756 11.2155C5.96245 11.2167 5.25772 11.5274 4.73766 12.0796C4.2176 12.6318 3.92458 13.3806 3.92276 14.1619ZM17.5875 7.4323L17.3563 7.18798C17.3162 7.14625 17.2843 7.0964 17.2626 7.04138C17.2408 6.98636 17.2296 6.92727 17.2297 6.8676C17.2295 6.80833 17.2407 6.74965 17.2624 6.69509C17.2842 6.64053 17.3161 6.59122 17.3563 6.55013L18.9158 4.90723L8.80481 4.91893L10.3601 6.5633C10.4005 6.60428 10.4327 6.65354 10.4546 6.70811C10.4766 6.76268 10.4879 6.82141 10.4879 6.88076C10.4879 6.94011 10.4766 6.99885 10.4546 7.05341C10.4327 7.10798 10.4005 7.15724 10.3601 7.19823L10.1289 7.444C10.0465 7.52737 9.9371 7.57386 9.82334 7.57386C9.70958 7.57386 9.60018 7.52737 9.51778 7.444L6.85309 4.61756C6.77268 4.52871 6.72777 4.41021 6.72777 4.28693C6.72777 4.16365 6.77268 4.04515 6.85309 3.9563L9.51365 1.12986C9.59605 1.04649 9.70545 1 9.81921 1C9.93297 1 10.0424 1.04649 10.1248 1.12986L10.3601 1.38002C10.4412 1.46735 10.4866 1.58507 10.4866 1.70773C10.4866 1.83038 10.4412 1.9481 10.3601 2.03543L8.8461 3.65639L18.8703 3.64469L17.3563 2.03543C17.2757 1.947 17.2306 1.82868 17.2306 1.70553C17.2306 1.58238 17.2757 1.46406 17.3563 1.37563L17.5875 1.12986C17.6699 1.04649 17.7794 1 17.8931 1C18.0069 1 18.1163 1.04649 18.1987 1.12986L20.8578 3.9563C20.9383 4.04515 20.9832 4.16365 20.9832 4.28693C20.9832 4.41021 20.9383 4.52871 20.8578 4.61756L18.1973 7.44254C18.1161 7.5283 18.0062 7.57644 17.8917 7.57644C17.7772 7.57644 17.6674 7.5283 17.5862 7.44254L17.5875 7.4323Z"
                                            fill="#BBC5D5" stroke="#BBC5D5" stroke-width="0.7" />
                                    </svg>