<svg width="27" height="28" viewBox="0 0 27 28" fill="none" xmlns="http://www.w3.org/2000/svg">
                                        <path
                    d="M4.7369 27.2851C3.74716 27.2812 2.79898 26.8617 2.099 26.118C1.39902 25.3742 1.00399 24.3666 1 23.3146V6.82113C1.00435 5.76913 1.39945 4.76153 2.09931 4.01764C2.79918 3.27376 3.74715 2.8538 4.7369 2.84918H6.36792V2.1177C6.36792 1.82127 6.47871 1.53698 6.67591 1.32737C6.87312 1.11776 7.14059 1 7.41948 1C7.69837 1 7.96584 1.11776 8.16304 1.32737C8.36025 1.53698 8.47104 1.82127 8.47104 2.1177V2.84918H18.2544V2.1177C18.2544 1.82127 18.3652 1.53698 18.5624 1.32737C18.7596 1.11776 19.0271 1 19.306 1C19.5849 1 19.8523 1.11776 20.0495 1.32737C20.2467 1.53698 20.3575 1.82127 20.3575 2.1177V2.84918H22.0409C23.0307 2.85266 23.979 3.27234 24.6787 4.01656C25.3783 4.76077 25.7725 5.76904 25.775 6.82113V23.3731C25.7396 24.4181 25.326 25.4082 24.6206 26.137C23.9152 26.8658 22.9723 27.2771 21.9886 27.2851H4.7369ZM3.10312 6.767V23.3146C3.10529 23.7744 3.27812 24.2148 3.58404 24.5399C3.88996 24.8651 4.30426 25.0488 4.7369 25.0511H22.0381C22.4707 25.0488 22.885 24.8651 23.191 24.5399C23.4969 24.2148 23.6697 23.7744 23.6719 23.3146V6.82552C23.6697 6.36567 23.4969 5.92531 23.191 5.60015C22.885 5.27498 22.4707 5.09129 22.0381 5.08898H20.3603V5.82046C20.3411 6.10511 20.2227 6.37192 20.0282 6.56864C19.8337 6.76537 19.5772 6.87784 19.3087 6.88404C19.0303 6.8825 18.7637 6.76425 18.5668 6.55497C18.3699 6.34569 18.2586 6.06229 18.2572 5.76633V5.09044H8.47242V5.81022C8.47105 5.95408 8.44253 6.09619 8.38856 6.22813C8.33459 6.36006 8.25625 6.47915 8.1582 6.57832C8.06014 6.6775 7.94436 6.75475 7.8177 6.8055C7.69105 6.85626 7.5561 6.87948 7.42085 6.8738C7.14217 6.87264 6.87519 6.75456 6.678 6.54524C6.48081 6.33592 6.36937 6.0523 6.36792 5.75609V5.02461H4.7369C4.30331 5.02693 3.88819 5.21143 3.58211 5.53786C3.27603 5.86428 3.10384 6.30614 3.10312 6.767ZM19.2523 22.4763C18.9734 22.4763 18.7059 22.3585 18.5087 22.1489C18.3115 21.9393 18.2007 21.655 18.2007 21.3586C18.2007 21.0622 18.3115 20.7779 18.5087 20.5683C18.7059 20.3586 18.9734 20.2409 19.2523 20.2409H20.5158C20.7943 20.2424 21.0609 20.3607 21.2578 20.57C21.4547 20.7792 21.5659 21.0626 21.5674 21.3586C21.549 21.6486 21.4323 21.9217 21.239 22.1272C21.0456 22.3327 20.7887 22.4568 20.5158 22.4763H19.2523ZM12.7296 22.4763C12.4507 22.4763 12.1832 22.3585 11.986 22.1489C11.7888 21.9393 11.678 21.655 11.678 21.3586C11.678 21.0622 11.7888 20.7779 11.986 20.5683C12.1832 20.3586 12.4507 20.2409 12.7296 20.2409H13.9931C14.272 20.2409 14.5395 20.3586 14.7367 20.5683C14.9339 20.7779 15.0447 21.0622 15.0447 21.3586C15.0447 21.655 14.9339 21.9393 14.7367 22.1489C14.5395 22.3585 14.272 22.4763 13.9931 22.4763H12.7296ZM6.26056 22.4763C5.98167 22.4763 5.7142 22.3585 5.51699 22.1489C5.31979 21.9393 5.209 21.655 5.209 21.3586C5.209 21.0622 5.31979 20.7779 5.51699 20.5683C5.7142 20.3586 5.98167 20.2409 6.26056 20.2409H7.52408C7.80253 20.2424 8.06916 20.3607 8.26605 20.57C8.46294 20.7792 8.5742 21.0626 8.57564 21.3586C8.55728 21.6486 8.44059 21.9217 8.24722 22.1272C8.05386 22.3327 7.79693 22.4568 7.52408 22.4763H6.26056ZM19.255 17.7787C18.9762 17.7787 18.7087 17.661 18.5115 17.4514C18.3143 17.2417 18.2035 16.9575 18.2035 16.661C18.2035 16.3646 18.3143 16.0803 18.5115 15.8707C18.7087 15.6611 18.9762 15.5433 19.255 15.5433H20.5186C20.797 15.5449 21.0636 15.6631 21.2605 15.8724C21.4574 16.0817 21.5687 16.3651 21.5701 16.661C21.5615 16.9545 21.448 17.2335 21.2526 17.4412C21.0572 17.6489 20.7947 17.7696 20.5186 17.7787H19.255ZM12.7323 17.7787C12.4534 17.7787 12.186 17.661 11.9888 17.4514C11.7916 17.2417 11.6808 16.9575 11.6808 16.661C11.6808 16.3646 11.7916 16.0803 11.9888 15.8707C12.186 15.6611 12.4534 15.5433 12.7323 15.5433H13.9959C14.2743 15.5449 14.5409 15.6631 14.7378 15.8724C14.9347 16.0817 15.046 16.3651 15.0474 16.661C15.0514 16.8089 15.0269 16.9562 14.9755 17.0937C14.9241 17.2312 14.8468 17.3562 14.7483 17.4608C14.6499 17.5654 14.5323 17.6476 14.403 17.7023C14.2736 17.757 14.135 17.783 13.9959 17.7787H12.7323ZM6.26331 17.7787C5.98442 17.7787 5.71695 17.661 5.51974 17.4514C5.32254 17.2417 5.21175 16.9575 5.21175 16.661C5.21175 16.3646 5.32254 16.0803 5.51974 15.8707C5.71695 15.6611 5.98442 15.5433 6.26331 15.5433H7.52684C7.80361 15.5471 8.06793 15.6662 8.26301 15.8749C8.45809 16.0836 8.56836 16.3654 8.57014 16.6596C8.56152 16.9531 8.44796 17.2321 8.25259 17.4397C8.05723 17.6474 7.79474 17.7681 7.51858 17.7773L6.26331 17.7787ZM19.2578 13.1411C18.9789 13.1411 18.7114 13.0234 18.5142 12.8138C18.317 12.6042 18.2062 12.3199 18.2062 12.0234C18.2062 11.727 18.317 11.4427 18.5142 11.2331C18.7114 11.0235 18.9789 10.9057 19.2578 10.9057H20.5213C20.8 10.9065 21.067 11.0245 21.2641 11.2339C21.4611 11.4434 21.5722 11.7272 21.5729 12.0234C21.5545 12.3134 21.4378 12.5865 21.2445 12.792C21.0511 12.9976 20.7942 13.1216 20.5213 13.1411H19.2578ZM12.7351 13.1411C12.4562 13.1411 12.1887 13.0234 11.9915 12.8138C11.7943 12.6042 11.6835 12.3199 11.6835 12.0234C11.6835 11.727 11.7943 11.4427 11.9915 11.2331C12.1887 11.0235 12.4562 10.9057 12.7351 10.9057H13.9986C14.2775 10.9057 14.545 11.0235 14.7422 11.2331C14.9394 11.4427 15.0502 11.727 15.0502 12.0234C15.0502 12.3199 14.9394 12.6042 14.7422 12.8138C14.545 13.0234 14.2775 13.1411 13.9986 13.1411H12.7351ZM6.26606 13.1411C5.98717 13.1411 5.7197 13.0234 5.5225 12.8138C5.32529 12.6042 5.2145 12.3199 5.2145 12.0234C5.2145 11.727 5.32529 11.4427 5.5225 11.2331C5.7197 11.0235 5.98717 10.9057 6.26606 10.9057H7.52959C7.80826 10.9065 8.0753 11.0245 8.27235 11.2339C8.4694 11.4434 8.58042 11.7272 8.58115 12.0234C8.56278 12.3134 8.44609 12.5865 8.25273 12.792C8.05936 12.9976 7.80243 13.1216 7.52959 13.1411H6.26606Z"
                    fill="#322A7D" stroke="#322A7D" stroke-width="0.5"/>
                                    </svg>